<svg xmlns="http://www.w3.org/2000/svg" viewBox="0 0 68.67 68.67" width="512" height="512"><path d="M45.88 29.263c2.14-2.318 3.462-5.406 3.462-8.804V13c0-7.168-5.832-13-13-13h-4.01c-7.17 0-13 5.832-13 13v7.458c0 3.398 1.32 6.485 3.462 8.804-16.95 5.912-18.29 24.41-18.304 24.663 0 8.27 13.11 14.746 29.846 14.746s29.847-6.476 29.845-14.806c-.012-.194-1.353-18.69-18.3-24.6zM34.335 53.797a2.958 2.958 0 0 1 2.955 2.955 2.957 2.957 0 0 1-2.954 2.954 2.957 2.957 0 0 1-2.954-2.954 2.957 2.957 0 0 1 2.954-2.955zm0-16.36c-1.846 0-5.086-1.362-5.888-4.57 1.227.384 2.53.592 3.883.592h4.012c1.352 0 2.656-.21 3.883-.594-.802 3.208-4.043 4.572-5.89 4.572zm0-26.916c-1.355 0-2.458-1.102-2.458-2.457s1.103-2.458 2.458-2.458 2.46 1.103 2.46 2.458-1.105 2.458-2.46 2.458zm-.003 2.136c4.322 0 8.643-.298 12.938-.87.045.4.072.804.072 1.215v7.46l-.002.046-4.525 1.766H25.858l-4.525-1.766-.002-.046V13c0-.41.028-.814.072-1.213 4.293.57 8.61.87 12.93.87zm2.01 18.802H32.33c-2.07 0-4.004-.586-5.66-1.586V24.27h15.333v5.602a10.92 10.92 0 0 1-5.66 1.586zm7.66-7.504l3.096-1.208a10.997 10.997 0 0 1-3.097 5.59v-4.382zm-19.333 0v4.382a10.982 10.982 0 0 1-3.096-5.59l3.096 1.208zM32.33 2h4.012c4.96 0 9.16 3.3 10.527 7.82-2.945.39-5.9.647-8.86.76a4.424 4.424 0 0 0 .784-2.517c0-2.458-2-4.458-4.46-4.458-2.457 0-4.457 2-4.457 4.458 0 .935.292 1.8.786 2.52a96.122 96.122 0 0 1-8.86-.76C23.17 5.303 27.37 2 32.33 2zm21.995 60.694v-10.36a1 1 0 0 0-2 0V63.56c-4.894 1.927-11.202 3.11-17.99 3.11-6.794 0-13.11-1.186-18.006-3.11V52.334a1 1 0 0 0-2 0v10.358c-4.826-2.296-7.84-5.38-7.842-8.706.047-.748 1.35-18.125 18.017-23.173.566.43 1.162.817 1.795 1.15.355 4.956 4.76 7.202 7.536 7.447v13.436c-1.943.25-3.454 1.895-3.454 3.904 0 2.18 1.773 3.954 3.954 3.954s3.955-1.774 3.955-3.954c0-2.01-1.51-3.655-3.454-3.904V39.412c2.776-.245 7.182-2.492 7.537-7.447.632-.333 1.23-.72 1.795-1.15 16.667 5.047 17.97 22.423 18.016 23.11-.002 3.36-3.024 6.464-7.86 8.77zm-27.4-16.37h-7.25a.5.5 0 0 0 0 1h3.126v1.19h-2.463a.5.5 0 0 0-.5.5v8.832a.5.5 0 0 0 .5.5h5.928a.5.5 0 0 0 .5-.5v-8.833a.5.5 0 0 0-.5-.5H23.8v-1.188h3.126a.5.5 0 0 0 0-1zm-1.16 11.022h-4.93v-7.833h4.93v7.833zm6.89-.595a1.682 1.682 0 1 1 3.363 0 1.682 1.682 0 0 1-3.364 0z" fill="#3e617a"/></svg>