<svg xmlns="http://www.w3.org/2000/svg" viewBox="0 0 69.253 69.253" width="512" height="512"><path d="M45.758 29.705a12.957 12.957 0 0 0 3.876-9.246V13c0-7.168-5.832-13-13-13h-4.01c-7.17 0-13 5.832-13 13v7.458c0 3.615 1.485 6.888 3.875 9.246C6.157 35.457 4.794 54.254 4.78 54.508c0 8.268 13.11 14.745 29.848 14.745s29.847-6.477 29.845-14.807c-.013-.194-1.375-18.99-18.715-24.74zm-10.87 11.17a69.34 69.34 0 0 1-1.766-3.17c0-.002 0-.003-.002-.004-.85-1.63-1.58-3.22-1.876-4.316.453.048.913.075 1.38.075h4.01c.655 0 1.293-.065 1.923-.16-.298 1.16-1.114 2.92-2.052 4.695l-.02.037c-.52.98-1.073 1.96-1.596 2.843zm-7.926-16.29h15.333v5.287c-1.656 1-3.59 1.586-5.66 1.586h-4.012c-2.072 0-4.005-.586-5.66-1.586v-5.287zm13.693 8.23c.957-.313 1.86-.74 2.705-1.254l2.037 6.61-6.453-.558c.878-1.785 1.606-3.586 1.71-4.798zm3.64-4.48V24.27l3.006-1.173a10.995 10.995 0 0 1-3.005 5.24zM21.623 13c0-6.065 4.935-11 11-11h4.01c6.066 0 11 4.935 11 11v7.458c0 .124-.014.244-.018.367l-4.508 1.76H26.15l-4.508-1.76c-.004-.123-.02-.243-.02-.367V13zm.333 10.095l3.006 1.173v4.068a10.98 10.98 0 0 1-3.006-5.24zm7.18 9.875c.144 1.148.79 2.763 1.575 4.39l-6.838.77 2.023-6.568c1 .608 2.087 1.086 3.24 1.408zM16.62 64.143V52.92a1 1 0 0 0-2 0v10.357c-4.825-2.296-7.84-5.38-7.84-8.708.01-.18 1.25-17.364 16.97-22.845l-2.24 7.273a1 1 0 0 0 1.07 1.288l9.104-1.026a74.607 74.607 0 0 0 2.352 4.056c2.197 3.943 5.94 8.005 7.006 9.13V66.89c-2.068.233-4.215.36-6.414.36-6.795 0-13.11-1.184-18.007-3.11zm37.997-.866V52.92a1 1 0 0 0-2 0v11.224c-2.79 1.098-6.038 1.955-9.575 2.487V52.044c0-.262-.103-.513-.285-.7-.044-.045-4.25-4.365-6.7-8.53a75.728 75.728 0 0 0 1.894-3.28l8.755.756A1 1 0 0 0 47.747 39l-2.24-7.27c15.68 5.44 16.925 22.106 16.97 22.78-.002 3.358-3.024 6.463-7.86 8.767zm-19.025-8.775a1 1 0 0 1 1-1h1.083a1 1 0 0 1 0 2h-1.083a1 1 0 0 1-1-1zm3.083 10.5a1 1 0 0 1-1 1h-1.083a1 1 0 0 1 0-2h1.083a1 1 0 0 1 1 1zM28.55 21.418c1.927 0 3.537-1.335 3.987-3.125h4.183c.45 1.79 2.06 3.125 3.988 3.125 2.274 0 4.125-1.85 4.125-4.125s-1.85-4.125-4.125-4.125c-1.928 0-3.538 1.335-3.988 3.125h-4.183c-.45-1.79-2.06-3.125-3.988-3.125-2.275 0-4.126 1.85-4.126 4.125s1.85 4.125 4.125 4.125zm12.158-6.25c1.172 0 2.125.953 2.125 2.125s-.953 2.125-2.125 2.125-2.125-.953-2.125-2.125.953-2.125 2.125-2.125zm-12.16 0c1.173 0 2.126.953 2.126 2.125s-.953 2.125-2.125 2.125-2.126-.953-2.126-2.125.953-2.125 2.125-2.125z" fill="#3e617a"/></svg>