<svg xmlns="http://www.w3.org/2000/svg" viewBox="0 0 71.871 71.871" width="512" height="512"><path d="M45.05 34.808a15.712 15.712 0 0 0 1.776-2.89c.877.285 2.287.64 3.913.64 1.695 0 3.622-.387 5.408-1.64.248-.175.403-.45.424-.752.05-.768 1.115-18.867-11.15-25.26-.07-.04-.148-.048-.224-.066.143-.93.288-1.95.432-3.252a1 1 0 0 0-.885-1.104 80.438 80.438 0 0 0-17.617 0 1 1 0 0 0-.885 1.104c.15 1.358.302 2.414.45 3.376-12.81 6.628-11.456 24.455-11.39 25.22.023.296.18.564.42.734 1.787 1.254 3.714 1.64 5.41 1.64 1.626 0 3.037-.354 3.913-.64a15.658 15.658 0 0 0 1.777 2.89C12.62 40.202 11.51 57.8 11.5 58.034c0 7.76 10.733 13.838 24.437 13.838s24.437-6.078 24.437-13.89c-.012-.183-1.122-17.78-15.325-23.172zm-9.114 8.003c-2.084 0-5.802-1.61-6.46-5.41 1.892 1.39 4.097 2.203 6.46 2.203s4.568-.814 6.46-2.204c-.658 3.8-4.376 5.41-6.46 5.41zM25.322 24.16c0-2.9.695-5.598 2.01-7.873 3.955 2.745 9.87 3.397 14.596 3.397 1.473 0 2.827-.064 3.973-.147.446 1.435.65 2.846.65 4.624 0 7.413-4.76 13.443-10.613 13.443s-10.615-6.03-10.615-13.442zM43.524 2.37a86.67 86.67 0 0 1-.47 3.236 90.317 90.317 0 0 0-.525 3.688 90.96 90.96 0 0 0-13.187 0 90.317 90.317 0 0 0-.524-3.688c-.155-.97-.314-1.968-.472-3.236 5.04-.49 10.137-.49 15.176 0zm-26.256 27.17c-.118-2.764-.2-16.795 9.752-22.487.11.714.22 1.5.328 2.41-.46.043-.918.08-1.377.132-.548.06-.944.555-.884 1.104s.55.944 1.104.884a88.937 88.937 0 0 1 19.49 0 1 1 0 0 0 .218-1.988c-.458-.05-.918-.09-1.377-.133.118-.977.236-1.81.353-2.567 9.667 5.41 9.794 19.808 9.72 22.65-2.584 1.55-5.566.955-7.005.513.616-1.818.96-3.808.96-5.895 0-1.824-.2-3.314-.62-4.807a36.23 36.23 0 0 0 1.535-.197 1 1 0 0 0-.31-1.975c-.173.027-17.34 2.62-22.628-4.37a1 1 0 0 0-1.595 1.207c.26.345.55.665.855.97-1.608 2.643-2.464 5.793-2.464 9.175 0 2.09.345 4.08.962 5.898-1.434.444-4.413 1.045-7.014-.52zm-3.77 28.55c.01-.173 1.103-17.1 14.79-21.676.032.03.063.056.093.085.17 4.842 4.395 7.04 7.056 7.29v26.078c-5.303-.062-10.156-1.096-13.943-2.777v-10.54a1 1 0 0 0-2 0v9.536c-3.717-2.106-5.995-4.92-5.996-7.997zm38.866 7.997V56.55a1 1 0 0 0-2 0v10.54c-3.785 1.68-8.632 2.713-13.928 2.775v-26.08c2.662-.25 6.886-2.446 7.055-7.288.032-.028.063-.056.093-.085 13.687 4.576 14.782 21.502 14.79 21.62 0 3.108-2.284 5.938-6.01 8.053zm-17.24-59.68h-1.207V4.782h1.206V3.576h1.625V4.78h1.206v1.626h-1.206v1.206h-1.625V6.406zm-11.31 42.51h3.33v1.31H24.51a.5.5 0 0 0-.5.5v9.335a.5.5 0 0 0 .5.5h6.265a.5.5 0 0 0 .5-.5v-9.334a.5.5 0 0 0-.5-.5h-2.632v-1.312h3.33a.5.5 0 0 0 0-1h-7.66a.5.5 0 0 0 0 1zm6.46 10.645h-5.263v-8.334h5.265v8.334z" fill="#3e617a"/></svg>