<svg xmlns="http://www.w3.org/2000/svg" viewBox="0 0 58.118 58.118" width="512" height="512"><g fill="#3e617a"><path d="M58.1 47.214l.018-.348-.006-.006c.004-.195 0-.395-.005-.598l.01-.01-.02-.308c-.02-.407-.064-.826-.128-1.255l-.038-.227a12.98 12.98 0 0 0-.177-.868l-.07-.294c-.073-.272-.16-.55-.253-.827-.03-.09-.057-.183-.09-.274-.127-.355-.27-.712-.437-1.072-1.88-4.055-1.907-9.524-1.907-9.58V12.06h-2v-12h-19v12h-2v18.195c0 1.553-.98 2.952-2.44 3.483l-3.35 1.218-14.834 5.395-1.375.5v2.21H4.24c-.26-.013-2.53-.038-3.662 1.472-.448.6-.867 1.66-.32 3.33.765 2.335 4.41 5.764 9.737 7.74v1.665l.68.23c1.187.4 2.425.562 3.707.562 2.565 0 5.303-.65 8.146-1.323l.908-.215c.53-.124 1.047-.238 1.558-.345l.108-.022c.12-.025.234-.045.352-.068a55.528 55.528 0 0 1 7.7-1.002 55.36 55.36 0 0 1 2.32-.087c.717-.012 1.416-.01 2.098 0l.083.002c.682.013 1.35.035 2 .064.015 0 .03 0 .047.002 1.33.06 2.6.148 3.827.232l3.247.223-.023-.022c.41.02.814.037 1.216.048.23.006.454.01.672.01.114 0 .215-.007.325-.008a18.692 18.692 0 0 0 1.402-.072 15.584 15.584 0 0 0 .926-.11c.255-.04.498-.084.73-.132l.113-.024c.24-.053.468-.11.684-.173l.075-.02a9.5 9.5 0 0 0 .624-.21l.054-.018c.198-.077.384-.155.558-.237.012-.006.025-.01.037-.017a7.45 7.45 0 0 0 .49-.256c.01-.006.02-.01.03-.017.152-.088.293-.177.424-.268l.027-.018a5.7 5.7 0 0 0 .357-.27l.03-.023a5.19 5.19 0 0 0 .292-.262l.03-.03c.087-.083.165-.166.238-.247l.033-.035c.07-.078.132-.154.19-.228l.033-.04a5.55 5.55 0 0 0 .147-.203c.01-.015.022-.03.03-.044.044-.063.08-.12.116-.176l.027-.04c.04-.067.077-.128.11-.18l.054-.092a3.09 3.09 0 0 0 .148-.253l.012-.024c.394-.748 1.01-2.434 1.112-4.616zm-2.53-4.01l.066.21c.128.423.237.85.313 1.283l-.965-.964-7.074-7.074 5.087-5.087v.097c0 .04.003.088.004.147l.003.096.007.202.005.146a14.094 14.094 0 0 0 .022.443l.018.29.016.242c.01.105.018.218.027.33l.023.27c.01.12.024.246.037.373l.03.3c.015.13.032.265.05.4a22.587 22.587 0 0 0 .102.757c.016.115.03.228.05.347.023.148.05.3.077.45.02.122.04.24.063.365l.094.474c.025.123.048.244.074.367.036.165.077.332.116.5.03.12.055.24.086.36.043.172.092.344.14.516.033.118.063.237.097.355.054.183.114.365.173.547.035.107.066.215.103.322.068.198.143.394.217.59.034.09.065.18.1.27.113.285.233.566.36.842.187.403.342.815.48 1.233zm-9.072-7.96L35.31 24.06H53v4.686l-6.5 6.5zM35.998 7.55a1 1 0 0 0 0-2V2.06h15v10h-15V7.55zm17 6.51v8h-19v-8h19zm-19 16.193v-4.68L56.063 47.64c-.086.9-.27 1.664-.45 2.24a7.713 7.713 0 0 1-.42 1.063c-.01.016-.02.04-.027.05-.03.047-.068.106-.11.18-.63 1.05-1.79 1.764-3.465 2.12-.033.008-.074.012-.11.02-.302.06-.616.114-.95.152a17.2 17.2 0 0 1-2.504.084c-.69-.02-1.386-.055-2.094-.097l-.123-.007c-.32-.02-.65-.042-.974-.064l-16.92-16.92 2.326-.847a5.724 5.724 0 0 0 3.756-5.362zm5.928 22.823l-.064-.003c-2.887-.136-6.05-.146-9.698.257-.013 0-.027.003-.04.005-1.43.16-2.934.383-4.525.687-.037.007-.07.01-.107.018L13.248 41.795l7.476-2.72 4.97-1.806L41.59 53.166c-.543-.034-1.1-.064-1.664-.09zM2.16 47.236c-.223-.68-.217-1.186.02-1.502.414-.558 1.526-.677 1.978-.677H10v8.405c-4.56-1.86-7.348-4.723-7.84-6.225zm19.908 7.555c-3.682.873-7.176 1.7-10.07 1.007V43.372L23.16 54.535l-.18.04-.912.216z"/><circle cx="37.998" cy="3.549" r="1"/><circle cx="40.998" cy="5.549" r="1"/><circle cx="38.998" cy="8.549" r="1"/></g></svg>