<svg xmlns="http://www.w3.org/2000/svg" viewBox="0 0 60 60" width="512" height="512"><g fill="#3e617a"><path d="M55.01 46.524C58.264 41.61 60 35.92 60 30 60 13.458 46.542 0 30 0S0 13.458 0 30s13.458 30 30 30c5.92 0 11.61-1.735 16.524-4.99l3.124 3.123c.82.994 2.186 1.658 3.756 1.824.254.027.506.04.756.04 1.435 0 2.78-.438 3.77-1.246 1.24-1.01 1.967-2.543 2.045-4.315.08-1.794-.527-3.503-1.614-4.56l-3.35-3.35zm-5.395-24.292a19.422 19.422 0 0 0-1.502-1.086c-.072-.046-.148-.084-.22-.13-.496-.313-1-.607-1.517-.87-.117-.06-.24-.108-.357-.165-.476-.23-.956-.448-1.445-.638-.178-.07-.36-.125-.54-.188-.432-.153-.865-.3-1.305-.422-.242-.067-.487-.12-.73-.178a19.4 19.4 0 0 0-1.146-.242c-.3-.052-.6-.09-.902-.13a18.453 18.453 0 0 0-2.895-.152c-.218.005-.434-.01-.652 0-.168.01-.33.04-.498.055-.25.02-.498.05-.747.08-.418.05-.833.105-1.244.18-.172.032-.342.074-.513.11-.484.103-.964.213-1.435.35-.042.013-.083.03-.124.042-2.82.847-5.39 2.33-7.577 4.364-.183.17-.376.324-.555.502l-.042.046c-.212.214-.406.45-.61.675-.254.28-.516.557-.752.85-.032.038-.068.072-.1.11a18.91 18.91 0 0 0-1.932 2.97c-.052.096-.095.196-.145.294-.216.43-.42.862-.603 1.304-.075.18-.142.36-.21.54a19.145 19.145 0 0 0-.818 2.732c-.06.27-.123.54-.172.812-.05.276-.083.554-.12.83-.04.307-.09.61-.116.92-.012.14-.01.284-.02.426-.046.71-.05 1.422-.02 2.133.01.257.015.514.036.77.024.292.064.58.1.87.04.302.08.602.13.902.045.254.098.505.152.757.075.35.16.698.254 1.044.056.204.112.408.175.61.13.424.278.84.438 1.256.05.127.093.254.144.38a18.91 18.91 0 0 0 2.606 4.51c.058.074.122.14.18.21.138.173.288.337.432.505.262.304.527.604.803.888.073.076.135.158.21.232.106.106.224.197.332.3a20.117 20.117 0 0 0 1.397 1.22c.344.27.697.526 1.056.773.094.064.18.14.276.203C15.06 52.203 6 42.14 6 30 6 16.767 16.767 6 30 6c12.14 0 22.202 9.06 23.784 20.773-.07-.108-.156-.206-.23-.313-.21-.31-.435-.61-.666-.91-.134-.172-.264-.347-.404-.516a19.162 19.162 0 0 0-1.152-1.274c-.016-.016-.03-.033-.044-.05-.49-.49-1-.945-1.528-1.37-.047-.04-.098-.07-.145-.108zM2 30C2 14.56 14.56 2 30 2s28 12.56 28 28c0 2.57-.347 5.094-1.022 7.52v-.01c0-.58-.032-1.157-.083-1.733-.015-.173-.04-.344-.06-.516a19.85 19.85 0 0 0-.293-1.805c-.083-.394-.18-.785-.288-1.174-.05-.175-.093-.352-.146-.527a20.25 20.25 0 0 0-.147-.458c.022-.43.04-.86.04-1.295C56 15.663 44.337 4 30 4S4 15.663 4 30s11.663 26 26 26c.413 0 .822-.018 1.23-.037 2.003.682 4.102 1.03 6.22 1.032A28.015 28.015 0 0 1 30 58C14.56 58 2 45.44 2 30zm54.666 27.2c-.74.605-1.88.89-3.052.77-1.052-.112-1.965-.536-2.443-1.133l-2.965-2.97.002-.002-1.487-1.487-.66.37c-.444.25-.895.474-1.35.68-.29.132-.583.244-.876.358-.153.06-.306.126-.46.182-.41.146-.823.276-1.24.39l-.08.023a17.61 17.61 0 0 1-11.908-1.023c-.1-.046-.202-.085-.3-.133a17.088 17.088 0 0 1-1.493-.818c-.154-.094-.303-.197-.455-.296-.35-.23-.693-.47-1.026-.726l-.222-.172c-.11-.086-.217-.175-.324-.264-.312-.26-.615-.53-.91-.813-.16-.152-.32-.302-.473-.46-.25-.26-.485-.525-.716-.794-.132-.152-.267-.3-.395-.46a17.333 17.333 0 0 1-2.52-4.28c-.027-.064-.05-.13-.075-.195a17.618 17.618 0 0 1-.57-1.702c-.1-.365-.19-.732-.267-1.102-.037-.175-.074-.35-.106-.53-.06-.336-.105-.674-.146-1.014-.023-.195-.052-.39-.068-.586a17.9 17.9 0 0 1-.05-1.06c-.005-.173-.02-.345-.02-.518.003-.505.028-1.01.073-1.513.017-.186.048-.37.07-.555.042-.342.086-.684.147-1.023.034-.19.078-.376.12-.563.073-.345.154-.687.25-1.026a17.568 17.568 0 0 1 .537-1.61c.047-.12.093-.245.143-.367.183-.44.383-.875.604-1.303.025-.05.047-.1.073-.148a17.41 17.41 0 0 1 1.84-2.79c.214-.266.446-.51.673-.76.18-.202.35-.41.544-.603.248-.25.513-.477.774-.71.92-.824 1.91-1.543 2.963-2.146.164-.094.32-.198.487-.286.307-.163.626-.302.942-.446.22-.1.44-.21.667-.303.282-.114.573-.207.86-.307.28-.096.556-.195.84-.277.256-.074.518-.133.78-.195.327-.077.656-.154.99-.213.24-.043.485-.075.73-.108.354-.05.712-.09 1.073-.117.245-.018.49-.028.738-.036a17.428 17.428 0 0 1 3.045.165c.13.018.262.036.392.058.514.086 1.023.192 1.526.322.057.014.113.027.168.042a17.903 17.903 0 0 1 1.69.545c1.123.428 2.2.973 3.218 1.625l.046.028c.473.305.93.64 1.372.992.04.033.085.06.126.094.474.382.93.79 1.365 1.226l.03.034c.403.404.775.83 1.13 1.265.125.15.24.307.36.462.246.324.48.656.703.996.104.16.213.317.312.48.292.478.566.97.81 1.48.052.104.094.213.142.32a17.67 17.67 0 0 1 1.613 7.737 17.474 17.474 0 0 1-1.025 5.534 17.367 17.367 0 0 1-1.2 2.628l-.372.662 1.487 1.487 3.09 3.09c.674.655 1.074 1.853 1.022 3.05-.032.69-.243 1.98-1.31 2.85z"/><circle cx="51" cy="53" r="1"/><circle cx="55" cy="53" r="1"/><circle cx="53" cy="51" r="1"/><circle cx="53" cy="55" r="1"/><path d="M18 15a1 1 0 0 0-1 1v4a1 1 0 0 0 2 0v-4a1 1 0 0 0-1-1zM13.707 26.293a1 1 0 0 0-1.414 0l-2.5 2.5a1 1 0 1 0 1.414 1.414l2.5-2.5a1 1 0 0 0 0-1.414zM30.707 11.293a1 1 0 0 0-1.414 1.414l2 2a.997.997 0 0 0 1.414 0 1 1 0 0 0 0-1.414l-2-2zM14.168 36.445l-2 3a1 1 0 0 0 1.664 1.11l2-3a1 1 0 0 0-1.664-1.11zM33 31c2.206 0 4-1.794 4-4s-1.794-4-4-4-4 1.794-4 4 1.794 4 4 4zm0-6c1.103 0 2 .897 2 2s-.897 2-2 2-2-.897-2-2 .897-2 2-2zM48.828 43.172c-1.51-1.512-4.146-1.512-5.656 0C42.416 43.927 42 44.932 42 46s.416 2.073 1.172 2.828C43.927 49.584 44.932 50 46 50s2.073-.416 2.828-1.172C49.584 48.073 50 47.068 50 46s-.416-2.073-1.172-2.828zm-1.414 4.242c-.756.756-2.072.756-2.828 0-.378-.378-.586-.88-.586-1.414s.208-1.036.586-1.414S45.466 44 46 44s1.036.208 1.414.586S48 45.466 48 46s-.208 1.036-.586 1.414zM43.077 35.382A.996.996 0 0 0 44 36h5a1 1 0 0 0 0-2h-2.586l1.293-1.293a1 1 0 0 0-1.414-1.414l-3 3a1 1 0 0 0-.217 1.09zM30 42h-3a1 1 0 0 0 0 2h2v3a1 1 0 0 0 2 0v-4a1 1 0 0 0-1-1zM34 39a.997.997 0 0 0 .707-.293l2-2a1 1 0 0 0-1.414-1.414l-2 2A1 1 0 0 0 34 39zM38 41a1 1 0 0 0 1-1v-3a1 1 0 0 0-2 0v3a1 1 0 0 0 1 1zM36.707 42.293l-2-2a1 1 0 0 0-1.414 1.414l2 2a.997.997 0 0 0 1.414 0 1 1 0 0 0 0-1.414zM39.293 41.293l-2 2a1 1 0 0 0 1.414 1.414l2-2a1 1 0 0 0-1.414-1.414zM42 36a1 1 0 0 0-2 0v3a1 1 0 0 0 2 0v-3zM36 34a1 1 0 0 0 1 1h2a1 1 0 0 0 0-2h-2a1 1 0 0 0-1 1zM32.447 40.895a1 1 0 0 0 .447-1.342l-1-2a1 1 0 0 0-1.79.895l1 2a1.002 1.002 0 0 0 1.343.447zM34.707 34.707a1 1 0 0 0-1.414-1.414l-1 1a1 1 0 0 0 1.414 1.414l1-1zM34 43h-1a1 1 0 0 0 0 2h1a1 1 0 0 0 0-2z"/></g></svg>