<svg xmlns="http://www.w3.org/2000/svg" viewBox="0 0 60 60" width="512" height="512"><g fill="#3e617a"><circle cx="22" cy="16" r="1"/><circle cx="23" cy="47" r="1"/><circle cx="28" cy="43" r="1"/><circle cx="22" cy="38" r="1"/><circle cx="29" cy="37" r="1"/><circle cx="23" cy="30" r="1"/><circle cx="27" cy="22" r="1"/><circle cx="21" cy="22" r="1"/><circle cx="28" cy="11" r="1"/><circle cx="14" cy="24" r="1"/><circle cx="14" cy="27" r="1"/><circle cx="14" cy="30" r="1"/><circle cx="14" cy="33" r="1"/><circle cx="14" cy="36" r="1"/><path d="M59 32h-4.076l-.11.877C53.317 44.92 42.65 54 30 54c-4.016 0-6.867-.905-8.715-2.77-2.814-2.836-3.275-7.88-3.315-13.9.066-1.426.055-3.084.04-4.937C18.007 31.62 18 30.82 18 30c0-.864.007-1.706.014-2.52.015-1.868.027-3.53-.043-4.96.048-5.956.525-10.938 3.316-13.752C23.133 6.905 25.984 6 30 6c12.648 0 23.316 9.08 24.815 21.123l.11.877H59a1 1 0 0 0 0-2h-2.325C54.655 13.396 43.347 4 30 4 20.2 4 11.217 7.763 5.752 14.093A2.067 2.067 0 0 0 5.168 14C1.618 14 0 22.294 0 30s1.617 16 5.168 16c.203 0 .396-.038.584-.093C11.217 52.237 20.202 56 30 56c13.347 0 24.656-9.396 26.675-22H59a1 1 0 0 0 0-2zM2 30c0-9.024 2.077-13.962 3.222-13.964l.017.018c.874.936.828 5.637.784 10.184C6.012 27.44 6 28.7 6 30s.012 2.56.024 3.762c.012 1.284.024 2.578.016 3.798-.023 3.13-.19 5.773-.872 6.44C4.093 44 2 39.06 2 30zm5.208 14.555c.32-.66.522-1.55.647-2.697 0-.01.002-.018.003-.027.124-1.15.172-2.56.182-4.26v-.007c.007-1.135-.002-2.392-.016-3.795C8.014 32.564 8 31.302 8 30s.013-2.564.024-3.77c.014-1.402.022-2.66.016-3.794v-.008c-.01-1.7-.058-3.11-.182-4.26 0-.01-.002-.018-.003-.027-.125-1.145-.328-2.034-.647-2.696 3.102-3.617 7.465-6.33 12.494-7.9-2.243 2.38-3.158 5.764-3.515 9.784A2.3 2.3 0 0 0 15 17c-3.42 0-6 5.59-6 13s2.58 13 6 13c.433 0 .833-.12 1.187-.333.357 4.022 1.27 7.408 3.515 9.79-5.03-1.572-9.392-4.285-12.494-7.902zm8.774-17.853c.01 1.08.018 2.18.018 3.298s-.01 2.22-.018 3.298a275.49 275.49 0 0 0-.012 3.94c-.08 1.797-.28 3.2-.747 3.67A.27.27 0 0 1 15 41c-1.888 0-4-4.704-4-11s2.112-11 4-11c.108 0 .166.023.238.096.453.457.65 1.787.732 3.495-.01 1.333 0 2.704.012 4.112z"/><path d="M59 29h-5.586L37 12.586V9a1 1 0 0 0-2 0v3h-3a1 1 0 0 0 0 2h3.586l15 15h-5.172l-7.207-7.207c-.06-.06-.136-.095-.207-.137V18a1 1 0 0 0-2 0v3h-3a1 1 0 0 0 0 2h3.655c.042.07.076.146.138.207L42.586 29H32.414l-2.707-2.707a1 1 0 0 0-1.414 1.414L30.586 30l-2.293 2.293a1 1 0 0 0 1.414 1.414L32.414 31h10.172l-6 6H33a1 1 0 0 0 0 2h3v3a1 1 0 0 0 2 0v-3.586L45.414 31h5.172l-15 15H32a1 1 0 0 0 0 2h3v3a1 1 0 0 0 2 0v-3.586L53.414 31H59a1 1 0 0 0 0-2z"/></g></svg>