<svg xmlns="http://www.w3.org/2000/svg" viewBox="0 0 512 512" width="512" height="512"><path d="M502.154 359.385h-15.37a120.1 120.1 0 0 0 15.564-59.077c0-65.15-52.05-118.154-116.03-118.154-38.832 0-74.656 19.628-96.118 51.946-11.332-8.166-24.825-12.562-39.026-12.562H49.23V60.308c0-19.68 16.013-35.692 35.693-35.692h7.385c17.58 0 32.224 12.78 35.15 29.54h-9.304c-5.437 0-9.846 4.408-9.846 9.845v19.707c-12.272 9.232-19.692 23.84-19.692 39.37v19.693c0 5.437 4.41 9.846 9.846 9.846h78.77c5.436 0 9.845-4.41 9.845-9.846v-19.692c0-15.532-7.42-30.14-19.692-39.37V64c0-5.437-4.41-9.846-9.846-9.846h-10.197C144.27 26.5 120.767 4.924 92.308 4.924h-7.385c-30.54 0-55.385 24.844-55.385 55.384v161.23H9.846C4.41 221.54 0 225.95 0 231.386v196.923c0 5.437 4.41 9.846 9.846 9.846h154.257v19.692c0 27.146 21.738 49.23 48.46 49.23 26.72 0 48.457-22.084 48.457-49.23v-19.692h241.134c5.437 0 9.846-4.41 9.846-9.846V369.23c0-5.436-4.41-9.845-9.846-9.845zM128 73.845h19.692v15.13a9.85 9.85 0 0 0 4.914 8.522c9.116 5.275 14.778 15.076 14.778 25.58v9.846h-59.077v-9.846c0-10.504 5.663-20.306 14.778-25.58A9.847 9.847 0 0 0 128 88.975v-15.13zm36.103 344.617H19.693v-39.385h144.41v39.385zm87.07-118.154c-5.437 0-9.846 4.41-9.846 9.846v147.692c0 16.288-12.904 29.54-28.767 29.54-15.862 0-28.766-13.252-28.766-29.54V310.154c0-5.437-4.41-9.846-9.846-9.846-5.437 0-9.846 4.41-9.846 9.846v49.23H19.692v-19.69h38.42c5.437 0 9.846-4.41 9.846-9.847 0-5.437-4.41-9.846-9.846-9.846h-38.42v-78.768h231.48c10.81 0 21.04 3.632 29.428 10.322-5.362 12.017-8.67 24.777-9.842 38.043-.48 5.416 3.524 10.196 8.94 10.674.296.027.59.04.88.04 5.045 0 9.343-3.86 9.795-8.98 1.17-13.225 4.874-25.842 11.006-37.515 16.837-32.055 49.38-51.968 84.937-51.968 53.12 0 96.34 44.17 96.34 98.462 0 21.31-6.813 42.11-19.264 59.076H261.02v-49.23c0-5.44-4.41-9.848-9.847-9.848zm241.135 118.154H261.02v-39.385h231.288v39.385z" fill="#3e617a"/><path d="M94.03 322.885A9.92 9.92 0 0 0 87.07 320a9.918 9.918 0 0 0-6.96 2.885c-1.83 1.83-2.886 4.372-2.886 6.96s1.054 5.13 2.885 6.96c1.83 1.832 4.37 2.887 6.96 2.887s5.13-1.054 6.96-2.886c1.83-1.83 2.886-4.37 2.886-6.96s-1.054-5.13-2.885-6.96zM137.846 162.462c-5.437 0-9.846 4.41-9.846 9.846V192c0 5.437 4.41 9.846 9.846 9.846 5.437 0 9.846-4.41 9.846-9.846v-19.692c0-5.437-4.41-9.846-9.846-9.846zM184.193 175.19l-9.846-9.844c-3.846-3.844-10.078-3.844-13.925 0-3.845 3.845-3.845 10.08 0 13.925l9.846 9.847c1.924 1.92 4.443 2.883 6.963 2.883s5.04-.962 6.963-2.884c3.845-3.845 3.845-10.08 0-13.925zM115.27 165.344a9.847 9.847 0 0 0-13.924 0l-9.846 9.847c-3.845 3.846-3.845 10.08 0 13.926 1.923 1.92 4.442 2.883 6.962 2.883s5.04-.963 6.962-2.885l9.846-9.846c3.845-3.845 3.845-10.08 0-13.926z" fill="#3e617a"/></svg>