<svg xmlns="http://www.w3.org/2000/svg" viewBox="0 0 59.48 59.48" width="512" height="512"><g fill="#3e617a"><path d="M34.55 31.978a1 1 0 0 0 0 1.414c.902.9 1.4 2.1 1.4 3.37s-.498 2.47-1.4 3.372a1 1 0 0 0 1.415 1.414c1.28-1.28 1.984-2.98 1.984-4.785s-.706-3.506-1.985-4.785a1 1 0 0 0-1.414 0zM47.555 22.467a4.77 4.77 0 0 1-5.52-3.87c-.646-3.675-4.16-6.13-7.837-5.496a1 1 0 0 0 .346 1.972 4.774 4.774 0 0 1 5.52 3.87c.578 3.282 3.44 5.6 6.663 5.6.387 0 .78-.034 1.174-.104a1 1 0 0 0-.345-1.97z"/><path d="M55.3 22.684c-.774-1.203-1.206-3.81-1.11-5.398.225-3.707-1.745-7.388-4.79-8.95-.586-.302-1.114-.454-1.58-.588-.8-.23-1.132-.327-1.435-.956-1.596-3.316-3.356-3.782-6.71-3.564-.313.006-.733-.46-1.164-.92-.74-.793-1.73-1.852-3.3-2.032l-.505-.05c-1.682 0-3.31.5-4.463 1.374-.326.246-.73.248-1.007.006C27.865.403 25.797-.488 24.377.298c-1.558.307-2.556 1.295-3.293 2.025-.583.577-.95.944-1.28.904-3.348-.215-5.115.25-6.712 3.564-.302.63-.633.726-1.434.957-.465.134-.993.286-1.58.588-3.045 1.563-5.014 5.243-4.79 8.95.096 1.588-.336 4.195-1.11 5.398-1.908 2.97-1.908 7.114 0 10.082.295.458.727.99 1.227 1.61.892 1.1 2.386 2.944 2.335 3.788-.227 3.736 2.053 8.04 5.082 9.596.545.28.637.562.843 1.42.114.473.256 1.062.562 1.696.823 1.71 2.114 2.2 3.056 2.56.936.356 1.323.504 1.465 1.53.33 2.383 1.604 3.99 3.497 4.41.317.068.644.103.975.103 2.132 0 4.458-1.416 5.93-3.702.178-.274.472-.305.59-.305s.41.03.587.305c1.702 2.64 4.542 4.114 6.906 3.598 1.894-.42 3.168-2.026 3.497-4.41.142-1.025.53-1.173 1.465-1.528.942-.36 2.233-.85 3.057-2.56.305-.635.447-1.225.56-1.698.208-.856.3-1.14.844-1.42 3.028-1.555 5.308-5.86 5.082-9.596-.05-.844 1.443-2.688 2.335-3.79.5-.617.932-1.15 1.227-1.608 1.908-2.968 1.908-7.113 0-10.082zm-1.683 9c-.235.366-.654.884-1.098 1.432-.472.58-.96 1.19-1.398 1.803-1.21-2.888-4.062-4.922-7.382-4.922-3.31 0-6-2.69-6-6a1 1 0 0 0-2 0c0 4.41 3.59 8 8 8 3.31 0 6 2.69 6 6 0 .025.013.047.014.072-.002.072-.017.145-.013.216.177 2.915-1.69 6.512-3.998 7.695-.205.106-.38.22-.538.34C44.15 43.788 41.65 42 38.74 42a1 1 0 0 0 0 2c2.756 0 5 2.242 5 5 0 .04.018.075.022.115a4.892 4.892 0 0 1-.314.896c-.478.993-1.134 1.243-1.965 1.56-1.026.39-2.432.925-2.735 3.125-.15 1.082-.608 2.434-1.947 2.73-1.538.34-3.554-.808-4.792-2.73a2.683 2.683 0 0 0-2.27-1.22c-.22 0-.434.03-.642.078a.993.993 0 0 0-.357-.072c-.504 0-.902.378-.973.86-.105.114-.213.223-.298.354a7.24 7.24 0 0 1-.616.81c-.04-.005-.074-.023-.115-.023a1 1 0 0 0-1 1c0 .02.01.036.01.055-.93.683-1.948 1.022-2.84.91a.987.987 0 0 0 .83-.964 1 1 0 0 0-2 0c0 .25.1.47.25.644-.584-.382-.92-1.018-1.102-1.673a.987.987 0 0 0 .852-.97 1 1 0 0 0-1-1 .997.997 0 0 0-.333.068 3.102 3.102 0 0 0-.68-1c0-.023.013-.043.013-.067a1 1 0 0 0-1-1 .977.977 0 0 0-.528.173l-.216-.084a9.183 9.183 0 0 1-.69-.287.98.98 0 0 0 .434-.802 1 1 0 0 0-1-1 .982.982 0 0 0-.766.382 7.017 7.017 0 0 1-.363-1.15c-.227-.946-.486-2.02-1.873-2.73-1.54-.79-2.87-2.66-3.54-4.683.158.105.338.182.543.182a1 1 0 0 0 0-2c-.38 0-.7.22-.87.533-.104-.586-.165-1.17-.132-1.73.053-.882-.382-1.843-1.002-2.804l.004.002a1 1 0 0 0 0-2 .99.99 0 0 0-.938.692c-.21-.27-.42-.536-.632-.798a.994.994 0 0 0-.43-1.894.98.98 0 0 0-.76.372c-.04-.057-.084-.118-.117-.17-1.5-2.33-1.5-5.586 0-7.917 1.043-1.622 1.543-4.63 1.423-6.602-.175-2.893 1.383-5.857 3.706-7.05.4-.205.795-.32 1.177-.432a.984.984 0 0 0-.43.8 1 1 0 0 0 2 0 .995.995 0 0 0-.954-.992 3.87 3.87 0 0 0 1.08-.547.99.99 0 0 0 .874.54 1 1 0 0 0 1-1 .986.986 0 0 0-.776-.956c.283-.573.553-1.01.837-1.347a.97.97 0 0 0-.06.3 1 1 0 1 0 1-1c-.036 0-.067.018-.102.022.386-.19.84-.284 1.397-.312a.987.987 0 0 0 1.38.02c.088.004.168.007.26.013.85.053 1.507-.32 2.075-.79 0 .016-.01.03-.01.048a1 1 0 0 0 2 0 .998.998 0 0 0-.98-.995c.32-.31.652-.592 1.018-.817.09.46.476.813.962.813a1 1 0 0 0 1-1c0-.178-.06-.338-.143-.483.5-.006 1.465.36 2.32 1.112.994.87 2.447.905 3.532.085.707-.536 1.74-.88 2.82-.955l.47.01c.912 0 1.48.537 2.31 1.424.714.763 1.532 1.607 2.753 1.55 2.792-.177 3.625.036 4.78 2.436.076.16.16.3.244.432-2.322.43-4.088 2.463-4.088 4.908a1 1 0 0 0 2 0c0-1.654 1.345-3 3-3a.99.99 0 0 0 .87-.536c.22.08.442.144.655.206.396.115.807.233 1.222.446 2.322 1.192 3.88 4.157 3.706 7.05-.12 1.972.38 4.98 1.423 6.602 1.5 2.33 1.5 5.586 0 7.916z"/><circle cx="22.74" cy="52.481" r="1"/><circle cx="26.74" cy="52.481" r="1"/><circle cx="24.74" cy="50.481" r="1"/><circle cx="20.74" cy="50.481" r="1"/><circle cx="28.74" cy="50.481" r="1"/><circle cx="20.74" cy="46.481" r="1"/><circle cx="28.74" cy="46.481" r="1"/><circle cx="26.74" cy="44.481" r="1"/><circle cx="24.74" cy="42.481" r="1"/><circle cx="20.74" cy="42.481" r="1"/><circle cx="28.74" cy="42.481" r="1"/><circle cx="22.74" cy="40.481" r="1"/><circle cx="28.74" cy="38.481" r="1"/><circle cx="22.74" cy="36.481" r="1"/><circle cx="26.74" cy="36.481" r="1"/><circle cx="28.74" cy="34.481" r="1"/><circle cx="26.74" cy="32.481" r="1"/><circle cx="24.74" cy="30.481" r="1"/><circle cx="20.74" cy="30.481" r="1"/><circle cx="28.74" cy="30.481" r="1"/><circle cx="22.74" cy="28.481" r="1"/><circle cx="24.74" cy="26.481" r="1"/><circle cx="20.74" cy="26.481" r="1"/><circle cx="28.74" cy="26.481" r="1"/><circle cx="26.74" cy="24.481" r="1"/><circle cx="24.74" cy="22.481" r="1"/><circle cx="22.74" cy="20.481" r="1"/><circle cx="26.74" cy="20.481" r="1"/><circle cx="28.74" cy="18.481" r="1"/><circle cx="22.74" cy="16.481" r="1"/><circle cx="26.74" cy="16.481" r="1"/><circle cx="24.74" cy="14.481" r="1"/><circle cx="20.74" cy="14.481" r="1"/><circle cx="22.74" cy="12.481" r="1"/><circle cx="26.74" cy="12.481" r="1"/><circle cx="28.74" cy="10.481" r="1"/><circle cx="22.74" cy="8.481" r="1"/><circle cx="20.74" cy="6.481" r="1"/><circle cx="28.74" cy="6.481" r="1"/><circle cx="26.74" cy="4.481" r="1"/><circle cx="18.74" cy="48.481" r="1"/><circle cx="16.74" cy="46.481" r="1"/><circle cx="14.74" cy="44.481" r="1"/><circle cx="12.74" cy="42.481" r="1"/><circle cx="16.74" cy="42.481" r="1"/><circle cx="14.74" cy="40.481" r="1"/><circle cx="12.74" cy="38.481" r="1"/><circle cx="14.74" cy="36.481" r="1"/><circle cx="10.74" cy="36.481" r="1"/><circle cx="18.74" cy="36.481" r="1"/><circle cx="14.74" cy="32.481" r="1"/><circle cx="10.74" cy="32.481" r="1"/><circle cx="18.74" cy="32.481" r="1"/><circle cx="14.74" cy="28.481" r="1"/><circle cx="10.74" cy="28.481" r="1"/><circle cx="16.74" cy="26.481" r="1"/><circle cx="14.74" cy="24.481" r="1"/><circle cx="12.74" cy="22.481" r="1"/><circle cx="16.74" cy="22.481" r="1"/><circle cx="14.74" cy="20.481" r="1"/><circle cx="18.74" cy="20.481" r="1"/><circle cx="12.74" cy="18.481" r="1"/><circle cx="10.74" cy="16.481" r="1"/><circle cx="12.74" cy="14.481" r="1"/><circle cx="16.74" cy="14.481" r="1"/><circle cx="10.74" cy="12.481" r="1"/><circle cx="18.74" cy="12.481" r="1"/><circle cx="16.74" cy="10.481" r="1"/><circle cx="6.74" cy="28.481" r="1"/><circle cx="8.74" cy="26.481" r="1"/><circle cx="6.74" cy="24.481" r="1"/><circle cx="8.74" cy="22.481" r="1"/><circle cx="8.74" cy="18.481" r="1"/><circle cx="8.74" cy="14.481" r="1"/></g></svg>