<svg xmlns="http://www.w3.org/2000/svg" viewBox="0 0 60.141 60.141" width="512" height="512"><g fill="#3e617a"><path d="M53.455 13.354C47.903 4.074 39.44-.763 30.185.098c-6.68.622-11.114 2.92-13.18 6.83-3.507 6.626 1.195 15.284 1.397 15.65l.28.51.584.006c.015 0 .244.01.62.078a9.927 9.927 0 0 0-1.306 4.922v10c0 8.822-7.178 16-16 16a1 1 0 0 0 0 2c9.768 0 17.728-7.827 17.977-17.537a10.538 10.538 0 0 1 8.94-2.74c.42 2.08.703 4.488.78 7.304.198 7.117 1.986 12.115 5.316 14.858a9.32 9.32 0 0 0 5.92 2.162c.398 0 .687-.028.83-.047h.097c4.688 0 8.3-1.477 10.73-4.39 4.397-5.27 3.453-13.475 3.157-15.397 3.838-6.26 2.637-17.74-2.872-26.952zM26.305 27.73c-1.883 1.07-3.9 2.902-5.726 6.005v-5.64c0-1.577.463-3.044 1.253-4.284 1.33.62 2.98 1.777 4.472 3.92zm-4.15 7.28c1.678-2.946 3.507-4.625 5.185-5.564.624 1.19 1.19 2.6 1.658 4.277a12.5 12.5 0 0 0-6.844 1.287zm29.48 19.412c-2.035 2.438-5.13 3.673-9.198 3.673h-.152l-.167.012c-.112.017-2.767.402-5.29-1.7-2.8-2.335-4.375-6.947-4.55-13.34-.07-2.5-.294-4.71-.63-6.674a11.445 11.445 0 0 1 3.93 2.52v3.637a1 1 0 0 0 2 0v-3h3a1 1 0 0 0 0-2h-3.53a13.39 13.39 0 0 0-5.86-3.416c-.523-2.17-1.198-3.978-1.962-5.486.216-.063.43-.118.633-.16 2.217-.457 3.97.18 4.415.625l2.83 2.83a.997.997 0 0 0 1.413 0 1 1 0 0 0 0-1.414l-2.12-2.123 2.12-2.12a1 1 0 0 0-1.414-1.415l-2.244 2.244c-1.24-.67-3.226-1.036-5.405-.586-.4.083-.82.195-1.258.344-1.604-2.44-3.433-3.852-5.018-4.665a7.96 7.96 0 0 1 5.398-2.115h4a1 1 0 0 0 0-2h-3v-3a1 1 0 0 0-2 0v3.05a9.973 9.973 0 0 0-6.416 3.266 9.1 9.1 0 0 0-1.246-.26c-.87-1.795-3.73-8.412-1.144-13.293C20.508 4.585 24.41 2.644 30.37 2.09c8.45-.786 16.228 3.695 21.37 12.29 5.24 8.764 6.403 19.58 2.704 25.16l-.226.34.076.4c.017.09 1.643 8.987-2.66 14.142z"/><path d="M52.667 32.08a1.013 1.013 0 0 0-.286-.253c-.002 0-.003-.004-.005-.006-2.083-1.202-3.566-3.118-4.176-5.394-.61-2.276-.284-4.678.92-6.76.01-.02.01-.044.02-.064.047-.096.088-.197.103-.305a.998.998 0 0 0-1.25-1.097 8.942 8.942 0 0 1-6.83-.898 8.94 8.94 0 0 1-4.19-5.467 1 1 0 1 0-1.932.518c.76 2.84 2.58 5.213 5.122 6.682a10.926 10.926 0 0 0 5.48 1.477c.305 0 .612-.035.92-.06a10.768 10.768 0 0 0-.296 6.493 10.768 10.768 0 0 0 3.493 5.47c-4.71 2.227-7.316 7.573-5.92 12.78a.998.998 0 0 0 1.224.708 1 1 0 0 0 .707-1.225c-1.283-4.794 1.57-9.74 6.364-11.023.003 0 .004-.003.007-.003a1.026 1.026 0 0 0 .376-.203.98.98 0 0 0 .226-.26c.012-.02.01-.044.02-.064.048-.096.09-.197.104-.305a1 1 0 0 0-.2-.74z"/></g></svg>