<svg xmlns="http://www.w3.org/2000/svg" viewBox="0 0 59.012 59.012" width="512" height="512"><g fill="#3e617a"><path d="M51.525 11.703c-4.477-4.292-8.948-6.18-13.288-5.613-5.29.692-8.703 4.823-9.82 6.39-4.97-1.172-5.98-5.405-6.024-5.602a.996.996 0 0 0-1.187-.764 1 1 0 0 0-.768 1.188c.053.248 1.383 6.092 8.265 7.275l.67.113.353-.577c.033-.054 3.328-5.337 8.785-6.042 3.706-.48 7.62 1.23 11.63 5.076 8.05 7.717 7.907 17.64 5.09 24.352-3.53 8.417-11.378 13.718-20.034 13.427l-.086-.002-.083.012c-.072.012-7.372.952-15.847-4.118l-.757-.44-.545.685a2.763 2.763 0 0 1-1.91.932c-1.22.084-2.674-.688-4.177-2.19-.996-.997-2.39-1.293-3.638-.78C7.204 45.417 5 46.885 5 52.017a1 1 0 0 0 2 0c0-3.208.99-4.76 1.917-5.145.5-.21 1.032-.08 1.46.346 1.962 1.964 3.888 2.89 5.757 2.77a4.762 4.762 0 0 0 2.68-1.066c6.255 3.557 11.767 4.102 14.562 4.102.963 0 1.604-.065 1.84-.094 9.423.212 18.016-5.495 21.86-14.655 3.92-9.347 1.794-19.528-5.55-26.57z"/><path d="M6.405 40.086c4.593-2.734 11.466.93 11.534.968l.71.386.526-.615c2.925-3.422 7.405-2.01 7.59-1.95l1.16.387.15-1.215c.336-2.762 4.232-4.252 4.272-4.267l.652-.245V26.72l-.557-.274c-2.776-1.373-2.942-5.018-2.944-5.05l-.026-.807-.792-.148c-11.7-2.17-13.383-10.352-13.45-10.7a.994.994 0 0 0-1.16-.8 1 1 0 0 0-.806 1.16c.072.396 1.87 9.52 14.317 12.16.207 1.365.927 4.122 3.417 5.666v4.256c-1.222.577-3.792 2.05-4.657 4.534-1.755-.322-5.34-.532-8.15 2.23-2.053-.96-8.14-3.357-12.805-.586C1.813 40.487 0 45.082 0 52.016a1 1 0 0 0 2 0c0-6.176 1.482-10.19 4.405-11.93z"/></g></svg>