<svg xmlns="http://www.w3.org/2000/svg" viewBox="0 0 512 512" width="512" height="512"><path d="M400.052 160.944a62.43 62.43 0 0 0-22.484-15.674 90.174 90.174 0 0 0 18.767-55.047C396.335 40.473 355.86 0 306.112 0S215.89 40.474 215.89 90.223c0 32.865 17.434 62.375 45.342 78.285l-68.172 81.96-68.563 48.453c-8.698 6.147-14.482 15.314-16.287 25.81-1.804 10.498.588 21.07 6.735 29.768a40.664 40.664 0 0 0 3.81 4.625c-13.91 8.71-23.185 24.162-23.185 41.75v101.28c0 5.438 4.408 9.847 9.846 9.847s9.846-4.41 9.846-9.846V400.872c0-16.288 13.25-29.538 29.538-29.538s29.538 13.25 29.538 29.538c0 5.437 4.408 9.846 9.846 9.846s9.846-4.41 9.846-9.846c0-16.122-7.79-30.46-19.803-39.445l65.157-46.045a9.86 9.86 0 0 0 .884-.705l11.635-10.413c.36-.32.695-.67 1.003-1.04l3.168-3.81V502.15c0 5.437 4.408 9.846 9.846 9.846h140.66c5.437 0 9.845-4.41 9.845-9.846V203.086a62.227 62.227 0 0 0-16.373-42.142zm-3.315 331.364H275.768V462.77h46.26c5.44 0 9.847-4.41 9.847-9.846 0-5.437-4.408-9.846-9.846-9.846h-46.26v-167.34l32.072-38.56c3.478-4.18 2.908-10.388-1.273-13.865-4.182-3.476-10.39-2.908-13.867 1.274l-34.35 41.297-.006.01-20.115 24.182-10.673 9.553-68.404 48.34a20.06 20.06 0 0 1-15.066 3.408 20.052 20.052 0 0 1-13.063-8.243 20.057 20.057 0 0 1-3.41-15.067 20.05 20.05 0 0 1 8.244-13.063l67.177-47.472a9.805 9.805 0 0 0 3.76-2.785l73.032-87.804c.292-.352.56-.724.8-1.114a33 33 0 0 1 3.27-4.382c.045-.05.08-.106.124-.158a32.613 32.613 0 0 1 24.35-10.937c5.437 0 9.845-4.41 9.845-9.846 0-5.437-4.41-9.846-9.847-9.846-12.527 0-24.55 4.516-33.96 12.56-23.78-11.917-38.83-36.005-38.83-62.995 0-38.89 31.64-70.53 70.53-70.53s70.53 31.64 70.53 70.53c0 20.334-8.802 39.693-24.152 53.11a9.848 9.848 0 0 0 5.562 17.216c22.054 2.07 38.686 20.356 38.686 42.537v289.22z" fill="#3e617a"/><path d="M358.537 445.962a9.94 9.94 0 0 0-6.97-2.885 9.934 9.934 0 0 0-6.962 2.885c-1.83 1.83-2.885 4.372-2.885 6.96s1.054 5.13 2.885 6.96a9.94 9.94 0 0 0 6.96 2.887c2.6 0 5.13-1.055 6.972-2.887 1.83-1.83 2.875-4.37 2.875-6.96s-1.044-5.13-2.875-6.96z" fill="#3e617a"/></svg>