<svg xmlns="http://www.w3.org/2000/svg" viewBox="0 0 60 60" width="512" height="512"><g fill="#3e617a"><path d="M56.537 5.5H3.463A3.468 3.468 0 0 0 0 8.963v39.074A3.468 3.468 0 0 0 3.463 51.5H4v3h8v-3h36v3h8v-3h.537A3.468 3.468 0 0 0 60 48.037V8.963A3.468 3.468 0 0 0 56.537 5.5zM10 52.5H6v-1h4v1zm44 0h-4v-1h4v1zm4-4.463c0 .807-.656 1.463-1.463 1.463H3.463A1.464 1.464 0 0 1 2 48.037V8.963C2 8.156 2.656 7.5 3.463 7.5h53.074c.807 0 1.463.656 1.463 1.463v39.074z"/><path d="M55 9.5H5a1 1 0 0 0-1 1v34a1 1 0 0 0 1 1h50a1 1 0 0 0 1-1v-34a1 1 0 0 0-1-1zm-1 2v19H40.754l-3.792-13.274a1 1 0 0 0-1.924 0l-3.364 11.81-1.814-3.047a1 1 0 0 0-1.808.196l-2.12 6.354-3.998-10.398a1 1 0 0 0-1.882.043L17.28 30.5H6v-19h48zm-48 32v-11h12c.43 0 .812-.275.948-.684l2.12-6.355 3.998 10.4c.15.386.52.64.934.64h.022a1 1 0 0 0 .926-.684l2.31-6.93 1.883 3.163a1.002 1.002 0 0 0 1.822-.24l3.04-10.667 3.036 10.63A1 1 0 0 0 40 32.5h14v11H6zM54 46.5h-1a1 1 0 0 0 0 2h1a1 1 0 0 0 0-2zM50 46.5h-1a1 1 0 0 0 0 2h1a1 1 0 0 0 0-2zM46 46.5h-1a1 1 0 0 0 0 2h1a1 1 0 0 0 0-2z"/></g></svg>