<svg xmlns="http://www.w3.org/2000/svg" viewBox="0 0 60 60" width="512" height="512"><g fill="#3e617a"><path d="M53 31H41.854l-2.867-18.156a1 1 0 0 0-.962-.844H38a1 1 0 0 0-.98.794l-3.473 16.53-1.688-2.836a.998.998 0 0 0-1.733.027l-3.98 7.16-5.22-13.046a1.002 1.002 0 0 0-.904-.63c-.407.01-.77.222-.934.586L14.355 31H7a1 1 0 0 0 0 2h8c.393 0 .748-.23.91-.586l4.03-8.868 5.13 12.825a1 1 0 0 0 .866.628L26 37a1 1 0 0 0 .874-.515l4.156-7.48 2.11 3.545a1 1 0 0 0 1.837-.305l2.882-13.717 2.15 13.63c.08.484.498.842.99.842h12a1 1 0 0 0 0-2zM12 52c2.757 0 5-2.243 5-5s-2.243-5-5-5-5 2.243-5 5 2.243 5 5 5zm0-8c1.302 0 2.402.84 2.816 2H12a1 1 0 0 0 0 2h2.816A2.996 2.996 0 0 1 12 50c-1.654 0-3-1.346-3-3s1.346-3 3-3zM37 52h14a1 1 0 0 0 1-1v-8a1 1 0 0 0-1-1H37a1 1 0 0 0-1 1v8a1 1 0 0 0 1 1zm13-2h-7v-6h7v6zm-12-6h3v6h-3v-6zM26 52c1.336 0 2.592-.52 3.535-1.465C30.48 49.592 31 48.335 31 47s-.52-2.59-1.465-3.535S27.335 42 26 42s-2.592.52-3.535 1.465C21.52 44.408 21 45.665 21 47s.52 2.592 1.465 3.535A4.965 4.965 0 0 0 26 52zm-2.12-7.12c.32-.322.704-.55 1.12-.698V47a1 1 0 0 0 2 0v-2.818A2.97 2.97 0 0 1 29 47a2.98 2.98 0 0 1-.88 2.12c-1.132 1.134-3.108 1.134-4.24 0-.568-.565-.88-1.318-.88-2.12s.312-1.555.88-2.12z"/><path d="M0 1v54h2v4h8v-4h40v4h8v-4h2V1H0zm8 56H4v-2h4v2zm48 0h-4v-2h4v2zm2-4H2V41h56v12zM2 39V3h56v36H2z"/><path d="M7.422 14.793l4.87 4.168a1.1 1.1 0 0 0 .704.255c.255 0 .51-.088.724-.264l4.86-4.16c1.132-.975 1.91-2.212 2.25-3.58.226-.91.173-1.516.14-1.732C20.715 6.922 18.72 5 16.315 5 14.97 5 13.813 5.702 13 6.626 12.187 5.702 11.03 5 9.685 5 7.28 5 5.285 6.922 5.03 9.478c-.033.216-.086.822.14 1.733.34 1.366 1.117 2.604 2.252 3.583zm-.42-4.99L7.02 9.7C7.143 8.357 8.1 7 9.684 7c1.084 0 2.005.962 2.4 1.856L13 10.914l.914-2.058C14.31 7.962 15.23 7 16.314 7c1.587 0 2.542 1.357 2.678 2.778 0 .003.047.342-.104.95-.24.963-.797 1.844-1.61 2.545L13 16.935l-4.274-3.658c-.817-.705-1.375-1.586-1.614-2.547-.146-.59-.108-.926-.11-.926zM50 8h4a1 1 0 0 0 0-2h-4a1 1 0 0 0 0 2zM55 10h-8a1 1 0 0 0 0 2h8a1 1 0 0 0 0-2zM54 14h-4a1 1 0 0 0 0 2h4a1 1 0 0 0 0-2z"/></g></svg>