<svg xmlns="http://www.w3.org/2000/svg" viewBox="0 0 60 60" width="512" height="512"><path d="M60 30c0-8.627-3.666-16.41-9.516-21.89-.023-.026-.04-.057-.065-.08a30.077 30.077 0 0 0-6.1-4.386l-.086-.046A30.486 30.486 0 0 0 43.068 3c-.06-.03-.123-.058-.184-.088a28.932 28.932 0 0 0-2.39-1.014l-.387-.142a30.347 30.347 0 0 0-2.835-.86c-.276-.07-.554-.132-.833-.193-.2-.044-.398-.088-.6-.128-.27-.054-.544-.1-.818-.147-.208-.035-.414-.072-.623-.103-.28-.04-.56-.073-.84-.107-.204-.024-.408-.052-.614-.073-.314-.03-.63-.05-.944-.072-.173-.01-.346-.028-.52-.037A31.73 31.73 0 0 0 30 0c-.714 0-1.42.034-2.12.083-.18.013-.36.025-.54.04-.665.06-1.326.135-1.978.236-.184.027-.365.065-.548.097-.49.087-.974.184-1.454.293-.247.056-.495.11-.74.17-.56.144-1.115.302-1.663.476-.293.093-.582.194-.872.296a30.253 30.253 0 0 0-5.655 2.675c-.25.153-.496.316-.742.476-.34.22-.674.45-1.004.683-.166.118-.34.222-.504.343-.017.01-.025.03-.04.044C4.777 11.384 0 20.144 0 30c0 15.492 11.805 28.28 26.89 29.84h.007A30.202 30.202 0 0 0 30 60a30.073 30.073 0 0 0 2.352-.1c.556-.044 1.108-.102 1.656-.176l.238-.03a29.64 29.64 0 0 0 3.915-.832c.04-.01.078-.018.115-.03.008 0 .014-.007.02-.01C50.816 55.216 60 43.665 60 30zM49 11c0 4.963-4.037 9-9 9H19a1 1 0 0 0 0 2h21c4.963 0 9 4.037 9 9s-4.037 9-9 9H20a1 1 0 0 0 0 2h13c2.206 0 4 1.794 4 4v11.11c-.697.18-1.4.327-2.106.453-.067.012-.133.025-.2.036-.688.116-1.38.208-2.073.273-.088.008-.18.013-.268.02-.613.053-1.228.083-1.844.094-.113.002-.225.008-.34.01a27.595 27.595 0 0 1-2.167-.077V51a1 1 0 0 0-1-1h-6c-4.962 0-9-4.037-9-9s4.038-9 9-9h21a1 1 0 0 0 0-2H21c-4.963 0-9-4.037-9-9s4.037-9 9-9h21a1 1 0 0 0 0-2H21a8.997 8.997 0 0 1-6.79-3.108c.16-.11.324-.216.487-.323.308-.203.617-.4.932-.59.267-.16.54-.316.813-.47.246-.136.495-.266.744-.395.444-.23.896-.448 1.353-.654a26.77 26.77 0 0 1 1.654-.686c.29-.107.582-.208.875-.306a28.045 28.045 0 0 1 4.504-1.116c.165-.026.33-.048.496-.072a28.737 28.737 0 0 1 2.063-.213A30.44 30.44 0 0 1 30 2c.46 0 .918.013 1.374.035.16.008.32.023.48.033.294.02.588.04.88.067.19.018.376.043.565.065.26.03.52.062.78.1.195.03.39.062.583.095.252.042.504.086.754.135.188.037.374.078.56.118a28.708 28.708 0 0 1 1.288.312 27.692 27.692 0 0 1 3.462 1.18 28.23 28.23 0 0 1 1.333.594l.096.044a28.096 28.096 0 0 1 6.675 4.516c.113.577.17 1.15.17 1.706zM2 30c0-8.875 4.155-16.792 10.616-21.926a11.04 11.04 0 0 0 3.808 2.923C12.637 12.737 10 16.567 10 21c0 4.432 2.634 8.26 6.42 10C12.633 32.74 10 36.568 10 41c0 6.065 4.935 11 11 11h5v5.71C12.45 55.762 2 44.08 2 30zm37 26.508V46a5.98 5.98 0 0 0-1.53-4H40c6.065 0 11-4.935 11-11 0-4.432-2.634-8.26-6.42-10 3.646-1.677 6.216-5.29 6.402-9.512C55.344 16.428 58 22.908 58 30c0 12.29-7.964 22.75-19 26.508z" fill="#3e617a"/></svg>