<svg xmlns="http://www.w3.org/2000/svg" viewBox="0 0 60 60" width="512" height="512"><path d="M60 30C60 14.13 47.61 1.104 31.994.074l-.01-.01-.375-.02H31.6A30.354 30.354 0 0 0 30 0c-.763 0-1.518.038-2.267.094l-.33.025c-9.9.854-18.437 6.53-23.245 14.67l-.08.136a29.836 29.836 0 0 0-1.99 4.104c-.04.1-.08.197-.118.296-.265.695-.506 1.4-.72 2.12l-.03.087-.18.61.01.008A29.905 29.905 0 0 0 0 30c0 8.337 3.42 15.888 8.93 21.33l-.003.017.4.382c.142.135.29.262.436.394a30.967 30.967 0 0 0 1.098.958l.142.117a29.04 29.04 0 0 0 2.196 1.64l.08.055c.376.252.755.496 1.14.73l.073.045a30.455 30.455 0 0 0 2.57 1.39c.386.186.776.362 1.17.53l.18.078c.374.157.75.305 1.132.447l.254.095c.356.13.716.25 1.078.366.11.036.22.072.333.106.34.104.68.2 1.023.29.137.038.272.076.41.11.322.082.646.155.97.225.16.035.318.072.48.104.308.063.62.116.93.168.177.03.352.063.53.09.306.045.614.08.923.117.183.022.366.047.55.066.33.034.66.055.992.077.163.01.326.027.49.035a29.534 29.534 0 0 0 2.977 0c.173-.008.344-.025.517-.037.318-.02.636-.042.952-.073.2-.02.4-.047.6-.07.288-.035.574-.068.86-.11.2-.03.4-.066.6-.1.283-.048.565-.096.845-.15.192-.04.382-.083.574-.125.288-.063.574-.128.86-.2.175-.043.35-.09.523-.137.302-.08.603-.166.902-.257a29.336 29.336 0 0 0 4.167-1.62l.19-.09a30.6 30.6 0 0 0 1.14-.585 29.255 29.255 0 0 0 1.29-.74 29.87 29.87 0 0 0 1.243-.795c.007-.002.01-.005.016-.008A30.212 30.212 0 0 0 50.49 51.9l.337-.315v-.024C56.476 46.105 60 38.46 60 30zm-11.164-.464l-.842 3.362.794 17.844a28.115 28.115 0 0 1-6.65 4.487c-.012.005-.026.01-.04.018-.378.182-.762.356-1.15.52-.064.028-.13.054-.193.08-.337.142-.677.276-1.02.404-.105.04-.21.076-.315.113a28.532 28.532 0 0 1-1.332.44 26.7 26.7 0 0 1-2.135.55c-.177.04-.354.078-.532.113-.258.05-.518.096-.78.14-.187.03-.373.064-.56.09-.265.04-.532.07-.8.103-.182.022-.364.047-.548.065-.294.03-.59.048-.888.068-.158.01-.315.025-.473.033-.452.02-.91.034-1.37.034-.463 0-.922-.013-1.38-.035-.15-.007-.302-.022-.454-.032-.305-.02-.61-.04-.913-.07-.173-.017-.344-.04-.516-.06-.282-.033-.564-.066-.844-.107-.17-.025-.34-.055-.51-.083a25.983 25.983 0 0 1-.842-.15c-.157-.032-.314-.067-.472-.1a25.634 25.634 0 0 1-2.207-.574c-.115-.036-.23-.072-.346-.11a29.686 29.686 0 0 1-1.242-.426c-.355-.132-.707-.27-1.056-.417-.055-.023-.11-.045-.166-.07-.38-.162-.76-.332-1.13-.51l-.072-.034a28.097 28.097 0 0 1-6.738-4.574c1.785-8.288 5.74-16.118 5.78-16.198l.35-.69-13.914-12.27.022-.066c.21-.65.444-1.29.7-1.918l.076-.196c.26-.628.545-1.243.85-1.846.04-.083.084-.165.126-.248C9.47 8.756 18.002 2.948 27.603 2.11c.108-.01.216-.017.324-.025A27.41 27.41 0 0 1 30 2c.38 0 .757.014 1.133.03l13.693 13.366a14.81 14.81 0 0 1 4.01 14.14zM2 30c0-2.188.26-4.315.737-6.36l12.028 10.606c-.968 2.01-3.714 8.044-5.322 14.74C4.828 43.993 2 37.322 2 30zm48.006 3.102l.77-3.08a16.82 16.82 0 0 0-4.55-16.058L34.307 2.332C47.708 4.41 58 16.025 58 30c0 7.244-2.765 13.854-7.295 18.83l-.7-15.728z" fill="#3e617a"/></svg>