<svg xmlns="http://www.w3.org/2000/svg" viewBox="0 0 73.75 73.75" width="512" height="512"><path d="M73.75 55.583v-10.5c0-2.206-1.794-4-4-4h-8.083v-20.75c0-7.168-5.832-13-13-13H40.25c-7.168 0-13 5.832-13 13v20.75H4c-2.206 0-4 1.794-4 4v10.5c0 1.2.542 2.266 1.382 3a3.975 3.975 0 0 0-1.382 3v.833c0 2.206 1.794 4 4 4h65.75c2.206 0 4-1.794 4-4v-.833c0-1.2-.542-2.266-1.382-3a3.972 3.972 0 0 0 1.382-3zM59.667 44.36A1.425 1.425 0 0 1 59 43.153V22.13c0-.507.267-.95.667-1.205V44.36zM40.25 9.332h8.417c5.554 0 10.147 4.14 10.885 9.495-1.465.39-2.552 1.716-2.552 3.302v21.024a3.43 3.43 0 0 0 2.667 3.337v.093a10.99 10.99 0 0 1-6.542 10.055V20.03c0-2.756-2.243-5-5-5h-7.333c-2.757 0-5 2.244-5 5V56.64a10.99 10.99 0 0 1-6.542-10.055v-.105a3.428 3.428 0 0 0 2.625-3.324V22.13c0-1.57-1.068-2.885-2.512-3.29.733-5.36 5.33-9.507 10.887-9.507zM29.875 22.13v21.024c0 .49-.248.923-.625 1.18V20.95c.377.257.625.69.625 1.18zM2 55.583v-10.5c0-1.103.897-2 2-2h23.25v3.5c0 4.54 2.346 8.658 6.063 11H10.75v-2.167a1 1 0 0 0-2 0v2.167H4a2 2 0 0 1-2-2zm0 6.834v-.833c0-1.103.897-2 2-2h4.75v1.72a1 1 0 0 0 2 0v-1.72h25.042v1.833c0 1.13.39 2.162 1.026 3H4c-1.103 0-2-.897-2-2zm38.792 2c-1.654 0-3-1.346-3-3V20.03c0-1.653 1.346-3 3-3h7.333c1.654 0 3 1.347 3 3v41.387c0 1.654-1.346 3-3 3h-7.333zm30.958-2.834v.833c0 1.103-.897 2-2 2H52.1a4.948 4.948 0 0 0 1.025-3v-1.833H63.75v1.72a1 1 0 0 0 2 0v-1.72h4c1.103 0 2 .897 2 2zm-6-4v-2.167a1 1 0 0 0-2 0v2.167h-8.147a12.998 12.998 0 0 0 6.064-11v-3.5h8.083c1.103 0 2 .897 2 2v10.5c0 1.103-.897 2-2 2h-4zM2 38.708c0-.83.672-1.5 1.5-1.5h8.875a1.5 1.5 0 0 1 0 3H3.5a1.5 1.5 0 0 1-1.5-1.5zm45.52-16.375a1 1 0 0 1-1 1h-4.124a1 1 0 0 1 0-2h4.125a1 1 0 0 1 1 1zm0 36.25a1 1 0 0 1-1 1h-4.124a1 1 0 0 1 0-2h4.125a1 1 0 0 1 1 1z" fill="#3e617a"/></svg>