<svg xmlns="http://www.w3.org/2000/svg" viewBox="0 0 59.413 59.413" width="512" height="512"><g fill="#3e617a"><path d="M59.413 6.23a4.63 4.63 0 0 0-1.366-3.298 4.67 4.67 0 0 0-6.595 0L18.127 36.258a2.278 2.278 0 0 0-.63 1.924L.293 55.386a1 1 0 0 0 .348 1.64c.165.064 2.19.82 4.925.82 2.71 0 6.115-.743 9.095-3.636l7.123-7.124a1 1 0 0 0 .273-.903l-.542-2.713 2.305-2.306.353.082a3.22 3.22 0 0 0 3.02-.867L54.19 13.384l3.857-3.857a4.633 4.633 0 0 0 1.366-3.298zm-9.53 8.633l-2.354-5.18 2.374-2.375 2.354 5.18-2.375 2.375zm-3.886 3.886l-2.354-5.18 2.375-2.375 2.354 5.18-2.375 2.374zM21.522 40.633l-1.8 1.8a1 1 0 0 0-.274.903l.542 2.713-6.733 6.735c-3.62 3.515-8.03 3.262-10.333 2.8l15.708-15.71c.006.004.013.005.02.008.18.098.374.174.58.222l2.29.53zm4.26-1.67a1.23 1.23 0 0 1-1.16.333l-4.94-1.14a.257.257 0 0 1-.115-.065.27.27 0 0 1-.065-.074c-.01-.02-.028-.043-.034-.063a.277.277 0 0 1 .073-.284l22.592-22.59 2.354 5.18L25.78 38.964zm30.85-30.85l-2.864 2.864-2.354-5.18 1.453-1.452c.52-.52 1.2-.778 1.884-.778a2.656 2.656 0 0 1 2.664 2.66c0 .712-.278 1.382-.78 1.885z"/><path d="M12.76 47.86l-2 2a1 1 0 0 0 1.413 1.413l2-2a1 1 0 0 0-1.414-1.414zM8.753 51.856c-.18.19-.29.45-.29.71 0 .26.11.52.29.71.19.18.45.29.71.29.27 0 .52-.11.71-.29.19-.19.29-.45.29-.71 0-.26-.1-.52-.29-.71-.37-.37-1.04-.37-1.42 0z"/></g></svg>