<svg xmlns="http://www.w3.org/2000/svg" viewBox="0 0 409.6 409.6"><path fill="#ebf0f3" d="M169.11 146.557l16.317 23.558 16.117-11.163-23.64-18.486z"/><path d="M164.95 149.438c-1.227.85-1.65 2.365-.945 3.383l13.763 19.87c.706 1.02 2.27 1.157 3.5.307l4.16-2.88-16.316-23.56-4.163 2.88z" fill="#d5d6db"/><path fill="#ebf0f3" d="M195.493 177.986l26.8 10.153 3.787-10.003-23.64-18.485z"/><path d="M193.7 182.72c-.53 1.394-.018 2.882 1.14 3.32l22.603 8.564c1.158.44 2.526-.337 3.055-1.733l1.794-4.73-26.8-10.154-1.792 4.734z" fill="#d5d6db"/><path fill="#ebf0f3" d="M322.472 32.372L309.024 49.57l-27.2-21.27 13.45-17.198z"/><path d="M266.612 139.023c-6.062-7.724-6.353-18.846-.034-26.927 6.318-8.08 17.182-10.482 26.14-6.46l13.847-17.71 3.81 2.98c.912-2.657.13-5.705-2.21-7.533a6.215 6.215 0 0 1-1.068-8.723l9.747-12.464a5.11 5.11 0 0 0-.88-7.17l-6.94-5.43-27.202-21.27-6.844-5.35a5.107 5.107 0 0 0-7.17.878L184.48 130.41l49.037 38.342 6.488-8.3a6.213 6.213 0 0 1 8.723-1.07l.002.003c2.297 1.795 5.376 1.855 7.72.414-1.08-1.16-2.234-2.27-3.522-3.278l13.682-17.5z" fill="#3a556a"/><g fill="#64798a"><path d="M182.728 129.038a1.877 1.877 0 0 0-2.636.323l-5.063 6.475c-.64.818-.496 2 .322 2.638l2.55 1.994 23.642 18.486.896.7 23.64 18.486 1.716 1.34c.818.64 2 .495 2.638-.324l5.062-6.474c.64-.818.494-2-.324-2.638l-1.653-1.293-49.038-38.34-1.754-1.372zM324.112 33.667c.817.64 1.997.495 2.636-.323l5.063-6.474a1.88 1.88 0 0 0-.322-2.638L301.008.398a1.88 1.88 0 0 0-2.638.324l-5.063 6.474c-.64.818-.495 2 .323 2.637l1.64 1.283 27.2 21.27 1.642 1.28z"/></g><path d="M246.593 282.427c16.628 0 31.5 8.875 39.756 22.55l75.265-96.26c20.836-26.646 16.125-65.14-10.522-85.975l-40.717-31.836-3.81-2.98-13.848 17.71a21.817 21.817 0 0 1 4.53 2.707c9.505 7.432 11.186 21.164 3.753 30.67-7.432 9.506-21.164 11.187-30.67 3.753a21.836 21.836 0 0 1-3.72-3.743l-13.68 17.498c1.287 1.01 2.44 2.12 3.52 3.278 10.137 10.853 11.187 27.745 1.753 39.812l-57.387 73.393c-5.377 6.878-15.31 8.094-22.188 2.716l-52.196-40.812c-5.996-4.69-14.658-3.63-19.346 2.366-4.688 5.996-3.628 14.66 2.37 19.346l90.672 70.898c.77-25.028 21.25-45.09 46.465-45.09z" fill="#ebf0f3"/><path d="M266.578 112.095c-6.32 8.08-6.028 19.204.034 26.927a21.836 21.836 0 0 0 3.72 3.743c9.506 7.433 23.238 5.752 30.67-3.753 7.433-9.506 5.752-23.238-3.753-30.67a21.774 21.774 0 0 0-4.53-2.707c-8.96-4.02-19.824-1.62-26.142 6.46zm22.898 6.187c4.017 3.14 4.726 8.942 1.586 12.958-3.14 4.017-8.942 4.726-12.958 1.586-4.017-3.14-4.726-8.943-1.586-12.958 3.14-4.018 8.943-4.726 12.958-1.586z" fill="#2f4859"/><ellipse cx="283.798" cy="125.543" rx="9.231" ry="9.231" fill="#64798a"/><path d="M291.772 317.8c-1.145-4.635-3.052-8.898-5.423-12.823-8.255-13.677-23.13-22.55-39.757-22.55-25.214 0-45.695 20.064-46.465 45.09-.015.485-.073.96-.073 1.447v45H305.652l-13.88-56.165z" fill="#2f4859"/><g fill="#3a556a"><path d="M358.44 373.964H51.158c-9.84 0-17.817 7.98-17.817 17.818 0 9.84 7.978 17.82 17.818 17.82H358.44c9.84 0 17.82-7.98 17.82-17.82s-7.98-17.818-17.82-17.818zM245.248 348.51c14.156 0 25.632-11.476 25.632-25.635 0-14.156-11.477-25.632-25.632-25.632-14.158 0-25.634 11.476-25.634 25.632 0 14.158 11.476 25.634 25.634 25.634zm0-36.45c5.972 0 10.815 4.842 10.815 10.815 0 5.975-4.842 10.817-10.815 10.817-5.975 0-10.817-4.842-10.817-10.817 0-5.972 4.843-10.815 10.818-10.815z"/></g><circle cx="245.248" cy="322.867" r="10.813" fill="#64798a"/></svg>