<svg xmlns="http://www.w3.org/2000/svg" viewBox="0 0 504.32 504.32"><g fill="#e4f2de" transform="translate(1 -2)"><ellipse cx="251.587" cy="253.307" rx="247.467" ry="110.933"/><ellipse transform="rotate(60 251.56 253.356)" cx="251.553" cy="253.358" rx="247.461" ry="110.931"/><ellipse transform="rotate(120 251.557 253.36)" cx="251.553" cy="253.358" rx="247.461" ry="110.931"/></g><path d="M209.067 360.533c-.853 5.12-4.267 9.387-7.68 11.947-4.267 4.267-10.24 6.827-17.067 6.827-14.507 0-25.6-11.093-25.6-25.6 0-8.533 4.267-17.067 11.093-21.333 4.267-2.56 9.387-4.267 14.507-4.267 14.507 0 25.6 11.093 25.6 25.6 0 2.56 0 4.266-.853 6.826zM103.254 68.693c-7.68-4.267-12.8-12.8-12.8-22.187 0-14.507 11.093-25.6 25.6-25.6 8.533 0 16.213 4.267 21.333 11.093 2.56 4.266 4.267 9.386 4.267 14.506 0 14.507-11.093 25.6-25.6 25.6-4.267 0-8.534-.853-12.8-3.413zM401.92 433.92c7.68 4.267 12.8 12.8 12.8 22.187 0 14.507-11.093 25.6-25.6 25.6-9.387 0-17.067-5.12-21.333-11.947-2.56-4.267-4.267-8.533-4.267-13.653 0-14.507 11.093-25.6 25.6-25.6 4.267 0 8.534.853 12.8 3.413z" fill="#80d6fa"/><path d="M389.12 485.973c-16.213 0-29.867-13.653-29.867-29.867s13.653-29.867 29.867-29.867c3.413 0 6.827.852 10.24 1.706 6.827-22.187 7.68-51.2 1.707-83.627-24.747 8.532-53.76 14.506-84.48 18.772-18.773 24.747-38.4 46.08-58.027 64 26.453 22.187 52.053 35.84 75.093 40.96 2.56.853 3.413 2.56 3.413 5.12-.853 2.56-2.56 3.413-5.12 3.413-24.747-5.12-52.053-19.627-80.213-43.52-46.933 39.253-93.867 55.467-125.44 37.547s-40.96-66.56-30.72-127.147C34.987 322.133 0 288.853 0 253.013c0-36.693 37.547-69.12 94.72-90.453-5.973-34.987-5.973-66.56 2.56-90.453-7.68-5.12-11.947-14.507-11.947-23.894 0-16.213 13.653-29.867 29.867-29.867S145.067 32 145.067 48.213 131.413 78.08 115.2 78.08c-3.413 0-6.827-.853-10.24-1.707-6.827 22.187-7.68 51.2-1.707 83.627 24.747-8.533 52.907-14.507 83.627-18.773 17.92-24.747 37.547-46.08 58.027-64-25.6-22.187-52.053-35.84-75.093-40.96-2.56-.853-3.413-2.56-3.413-5.12.854-2.56 2.56-3.413 5.12-3.413 24.748 5.12 52.908 19.627 80.214 43.52 5.973-5.12 11.093-9.387 17.067-13.653C311.47 26.88 350.72 18.35 378.03 33.71c31.573 17.92 40.96 66.56 30.72 128 58.027 21.333 95.573 53.76 95.573 90.453 0 36.694-37.546 69.12-95.572 90.454 5.973 34.987 5.973 66.56-2.56 90.453 7.68 5.12 11.947 14.507 11.947 23.893.852 15.36-12.8 29.013-29.015 29.013zm0-51.2c-11.947 0-21.333 9.387-21.333 21.333s9.387 21.333 21.333 21.333 21.333-9.388 21.333-21.334c0-7.68-4.267-14.507-10.24-17.92-.853 0-.853-.853-1.707-.853-2.56-1.706-5.972-2.56-9.386-2.56zM104.107 344.32c-10.24 56.32-1.707 100.693 27.307 117.76 28.16 16.213 71.68 1.707 115.2-34.987-15.36-13.653-30.72-29.867-45.227-47.787-5.12 3.413-10.24 5.12-16.213 5.12-16.213 0-29.867-13.653-29.867-29.867s13.653-29.868 29.867-29.868 29.867 13.653 29.867 29.867v2.56c34.134 2.56 67.414 1.706 98.134-1.708a568.502 568.502 0 0 0 32.427-50.347c10.24-17.92 19.628-35.84 27.308-52.907-7.68-17.92-17.067-35.84-27.307-53.76-10.24-17.92-21.332-34.133-32.426-50.347-38.4-4.266-81.067-4.266-119.467 0-11.093 15.36-22.187 32.428-32.427 50.348s-19.627 35.84-27.307 52.907c7.68 17.067 16.213 34.133 25.6 51.2.853 1.707.853 4.267-1.707 5.973-1.707.853-4.267.853-5.973-1.707-8.533-14.506-16.213-29.866-23.04-44.372-10.24 25.6-17.92 50.347-23.04 74.24 5.973 2.56 12.8 4.267 19.627 5.973 2.56.854 3.413 2.56 3.413 5.12-.853 2.56-2.56 3.414-5.12 3.414-6.826-2.557-13.653-4.264-19.626-6.824zm103.253 29.013c15.36 18.773 30.72 34.133 45.227 47.787 17.92-15.36 35.84-34.987 52.907-57.173-29.867 2.56-61.44 3.413-93.013.853-1.706 3.413-3.413 5.973-5.12 8.533zm-23.04-40.96c-11.947 0-21.333 9.387-21.333 21.333 0 11.947 9.387 21.333 21.333 21.333 5.12 0 10.24-1.708 13.653-5.12l.853-.854c2.56-2.56 4.267-5.12 5.12-8.533 0-.853 0-.853.853-1.707 0-1.707.852-3.413.852-5.12.002-11.946-9.385-21.333-21.332-21.333zm192-69.973c-6.827 15.36-15.36 31.573-23.893 46.933-9.387 15.36-18.773 30.72-28.16 44.373 27.307-3.413 52.907-9.387 75.947-17.067-5.12-23.893-13.654-48.64-23.894-74.24zm5.12-11.093c11.947 28.16 21.333 56.32 26.453 81.92 53.76-19.627 87.893-49.493 87.893-81.92 0-33.28-34.133-62.293-88.747-81.92-5.12 25.6-13.653 53.76-25.6 81.92zm-284.16-81.92c-53.76 19.627-87.893 49.493-87.893 81.92 0 31.573 33.28 61.44 88.747 81.92 5.12-25.6 13.653-53.76 26.453-81.92-12.8-28.16-22.187-56.32-27.307-81.92zm226.987-20.48c10.24 13.653 19.627 29.013 28.16 44.373 9.387 15.36 17.067 31.573 23.893 46.933 10.24-25.6 18.773-51.2 23.04-74.24-22.186-6.826-47.786-12.8-75.093-17.066zm-218.453 17.066c5.12 23.04 12.8 48.64 23.04 74.24 6.827-15.36 15.36-31.573 23.893-46.933 9.387-15.36 18.773-30.72 28.16-44.373-27.307 4.266-52.907 10.24-75.093 17.066zM317.44 139.52c30.72 3.413 58.88 10.24 84.48 18.773 10.24-56.32 1.707-101.547-27.307-117.76-23.893-13.653-59.733-5.973-99.84 23.04-5.12 3.413-10.24 7.68-15.36 11.947 19.627 17.92 39.254 40.107 58.027 64zm-64.853-58.027c-17.92 16.213-35.84 34.987-52.907 57.173 34.133-3.413 71.68-3.413 104.96 0-16.213-22.186-34.133-40.96-52.053-57.173zM106.667 65.28c2.56 1.707 5.973 2.56 9.387 2.56 11.947 0 21.333-9.387 21.333-21.333S128 25.173 116.054 25.173c-11.947 0-21.333 9.387-21.333 21.333 0 7.68 4.268 14.507 10.24 17.92.854.854.854.854 1.707.854z" fill="#51565f"/></svg>