<svg xmlns="http://www.w3.org/2000/svg" viewBox="0 0 58 58"><path d="M55.537 49.5H2.463A2.463 2.463 0 0 1 0 47.037V7.963A2.463 2.463 0 0 1 2.463 5.5h53.074A2.463 2.463 0 0 1 58 7.963v39.074a2.463 2.463 0 0 1-2.463 2.463z" fill="#3e465b"/><path fill="#556080" d="M4 9.5h50v34H4z"/><path d="M39.754 29.5l-3.792-13.274a1 1 0 0 0-1.924 0l-3.364 11.81-1.814-3.047a1 1 0 0 0-1.808.196l-2.12 6.354-3.998-10.398a1 1 0 0 0-1.882.043L16.28 29.5H4v2h13c.43 0 .812-.275.948-.684l2.12-6.355 3.998 10.4c.15.386.52.64.934.64h.022a1 1 0 0 0 .926-.684l2.31-6.93 1.883 3.163a1.002 1.002 0 0 0 1.822-.24l3.04-10.667 3.036 10.63A1 1 0 0 0 39 31.5h15v-2H39.754z" fill="#2bda72"/><path fill="#363e4b" d="M4 49.5h6v3H4zM48 49.5h6v3h-6z"/><path d="M53 47.5h-1a1 1 0 0 1 0-2h1a1 1 0 0 1 0 2z" fill="#a4e869"/><path d="M49 47.5h-1a1 1 0 0 1 0-2h1a1 1 0 0 1 0 2z" fill="#48a0dc"/><path d="M45 47.5h-1a1 1 0 0 1 0-2h1a1 1 0 0 1 0 2z" fill="#dd352e"/></svg>