<svg xmlns="http://www.w3.org/2000/svg" viewBox="0 0 57.413 57.413">
  <path d="M18.455 38.138a1.26 1.26 0 0 1-.842-.651L0 55.1s7.366 2.833 12.952-2.59l7.123-7.123-.648-3.238 3.076-3.076-4.048-.935z" fill="#e7eced"/>
  <path d="M56.34 7.827L25.487 38.679a2.242 2.242 0 0 1-2.09.599l-4.942-1.14a1.289 1.289 0 0 1-.621-2.167L51.159 2.646a3.663 3.663 0 0 1 5.181 0 3.665 3.665 0 0 1 0 5.181z" fill="#25ae88"/>
  <path d="M10.465 50.573a.999.999 0 0 1-.707-1.707l2-2a.999.999 0 1 1 1.414 1.414l-2 2a.997.997 0 0 1-.707.293zm-2.003 2c-.26 0-.52-.11-.71-.29-.18-.19-.29-.45-.29-.71 0-.26.11-.52.29-.71.38-.37 1.05-.37 1.42 0 .19.19.29.45.29.71 0 .26-.1.52-.29.71-.19.18-.44.29-.71.29z" fill="#afb6bb"/>
  <path d="M52.456 12.712a1 1 0 0 1-.911-.586l-3.238-7.124a.999.999 0 1 1 1.82-.828l3.238 7.124a.999.999 0 0 1-.909 1.414zm-3.886 3.885a1 1 0 0 1-.911-.586L44.42 8.888a.999.999 0 0 1 .496-1.324.996.996 0 0 1 1.324.496l3.238 7.123a.999.999 0 0 1-.908 1.414zm-3.886 3.886a1 1 0 0 1-.911-.586l-3.238-7.124a.999.999 0 1 1 1.82-.828l3.238 7.124a.999.999 0 0 1-.909 1.414z" fill="#556080"/>
</svg>
