<svg xmlns="http://www.w3.org/2000/svg" viewBox="0 0 495.2 495.2">
  <ellipse cx="247.6" cy="291.2" rx="108.8" ry="65.6" fill="#8c285c"/>
  <ellipse cx="247.6" cy="383.2" rx="60" ry="75.2" fill="#f9bda0"/>
  <g fill="#8c285c">
    <path d="M201.2 308l29.6-34.4L226 164l-80 16m148 128l-29.6-34.4 4.8-109.6 79.2 16"/>
    <path d="M345.2 128c0 64 26.4 80-78.4 80h-38.4c-43.2 0-78.4-36.8-78.4-80s35.2-80 78.4-80h38.4c43.2 0 78.4 36.8 78.4 80z"/>
  </g>
  <path fill="#f9bda0" d="M199.6 240h96v112h-96z"/>
  <path fill="#eaa78c" d="M299.6 356l-51.2 28.8L198 240h99.2z"/>
  <path d="M326.8 156.8c0 76.8-38.4 145.6-79.2 145.6s-79.2-68.8-79.2-145.6S206.8 68 247.6 68c40.8-.8 79.2 12 79.2 88.8z" fill="#fcccb9"/>
  <path d="M247.6 67.2c40.8 0 79.2 12.8 79.2 88.8 0 76.8-38.4 145.6-79.2 145.6" fill="#f9bda0"/>
  <path d="M285.2 52.8s159.2 145.6-143.2 140c0 0-12.8-80 20-115.2 32.8-34.4 91.2-28.8 91.2-28.8l32 4z" fill="#bf588a"/>
  <path d="M252.4 48.8l32.8 4s159.2 145.6-143.2 140" fill="#af437c"/>
  <path d="M230 52.8s22.4 120.8 122.4 132.8c0 0 15.2-72-12.8-104-28-32.8-80.8-30.4-80.8-30.4L230 52.8z" fill="#bf588a"/>
  <path d="M351.6 185.6s15.2-72-12.8-104c-27.2-32.8-80-30.4-80-30.4l-29.6 1.6" fill="#af437c"/>
  <path fill="#36c9b4" d="M262.8 495.2l189.6-2.4 3.2-70.4-150.4-73.6-57.6 45.6-57.6-45.6-150.4 73.6 3.2 70.4 189.6 2.4h15.2z"/>
  <path fill="#22b2b2" d="M232.4 495.2h30.4l189.6-2.4 3.2-70.4-150.4-73.6-57.6 45.6-57.6-45.6"/>
  <path fill="#149ca3" d="M247.6 467.2l87.2-104-29.6-14.4-57.6 45.6-57.6-45.6-29.6 14.4z"/>
  <path fill="#4eddc5" d="M47.6 428L158 375.2l33.6 36-41.6-8z"/>
  <path d="M343.6 88V77.6c0-42.4-37.6-77.6-80-77.6h-32c-42.4 0-80 35.2-80 77.6V88h192z" fill="#36c9b4"/>
  <path d="M231.6 88h32c40.8 0 76 12 78.4 28.8 0-1.6 1.6-4 1.6-5.6V76.8c0-41.6-37.6-76.8-80-76.8h-32" fill="#22b2b2"/>
  <g fill="#4eddc5">
    <ellipse transform="rotate(-117.728 201.996 23.127)" cx="202.003" cy="23.127" rx="8.8" ry="26.401"/>
    <circle cx="173.2" cy="45.6" r="3.2"/>
    <circle cx="166" cy="58.4" r="3.2"/>
  </g>
  <path fill="#af437c" d="M343.6 130.4L218 143.2 154.8 88h188.8z"/>
  <g fill="#ceefeb">
    <path d="M231.6 16h24v56h-24z"/>
    <path d="M215.6 32h56v24h-56z"/>
  </g>
</svg>
