<svg xmlns="http://www.w3.org/2000/svg" viewBox="0 0 512 512">
  <path d="M417.391 306.087c-9.217 0-16.696-7.473-16.696-16.696V55.652c0-9.206-7.49-16.696-16.696-16.696h-66.783c-9.206 0-16.696 7.49-16.696 16.696v33.391c0 9.223-7.479 16.696-16.696 16.696-9.217 0-16.696-7.473-16.696-16.696V55.652c0-27.619 22.468-50.087 50.087-50.087H384c27.619 0 50.087 22.468 50.087 50.087v233.739c0 9.223-7.479 16.696-16.696 16.696z" fill="#979ca7"/>
  <path d="M50.087 506.435c-9.223 0-16.696-7.473-16.696-16.696V389.565c0-9.223 7.473-16.696 16.696-16.696s16.696 7.473 16.696 16.696v100.174c0 9.223-7.473 16.696-16.696 16.696z" fill="#c4cad9"/>
  <path d="M461.913 506.435c-9.223 0-16.696-7.473-16.696-16.696V389.565c0-9.223 7.473-16.696 16.696-16.696s16.696 7.473 16.696 16.696v100.174c0 9.223-7.473 16.696-16.696 16.696z" fill="#b8bfcc"/>
  <path d="M61.217 339.478c-27.619 0-50.087-22.468-50.087-50.087s22.468-50.087 50.087-50.087 50.087 22.468 50.087 50.087-22.468 50.087-50.087 50.087z" fill="#f9bc35"/>
  <path d="M512 372.87c0 18.365-15.026 33.391-33.391 33.391H33.391C15.026 406.261 0 391.235 0 372.87s15.026-33.391 33.391-33.391h133.565l179.2-11.13 132.452 11.13C496.974 339.478 512 354.504 512 372.87z" fill="#5c5f66"/>
  <path d="M512 306.087c0 18.365-15.026 33.391-33.391 33.391H178.087V384c0 5.12-1.224 10.351-3.563 14.915l-33.391 66.783c-8.348 16.918-28.604 23.04-44.744 14.915-16.473-8.237-23.149-28.271-14.913-44.744l29.828-59.77v-70.233c.111-18.365 15.026-33.169 33.391-33.169h333.913c18.366-.001 33.392 15.025 33.392 33.39z" fill="#f9bc35"/>
  <path d="M333.913 122.769v-.334c0-27.603-22.483-50.087-50.087-50.087-10.35 0-19.812 3.117-27.826 8.459-13.468 9.016-22.261 24.376-22.261 41.628v.334c-20.814 15.694-33.391 40.292-33.391 66.449v33.391c0 9.238 7.456 16.696 16.696 16.696h133.565c9.239 0 16.696-7.457 16.696-16.696v-33.391c-.001-26.157-12.578-50.755-33.392-66.449z" fill="#e6eeff"/>
  <path d="M283.826 406.261h194.783c18.365 0 33.391-15.026 33.391-33.391s-15.026-33.391-33.391-33.391H283.826v66.782z" fill="#53565c"/>
  <path d="M283.826 339.478h194.783c18.365 0 33.391-15.026 33.391-33.391s-15.026-33.391-33.391-33.391H283.826v66.782z" fill="#f39e31"/>
  <path d="M350.609 239.304c9.239 0 16.696-7.457 16.696-16.696v-33.391c0-26.157-12.577-50.755-33.391-66.449v-.334c0-27.603-22.483-50.087-50.087-50.087v166.957h66.782z" fill="#dae2f2"/>
</svg>
