<svg xmlns="http://www.w3.org/2000/svg" viewBox="0 0 59 59">
  <path d="M18.034 29.5c0-13.374-1.275-24.295 11.695-24.967-.244-.007-.483-.033-.729-.033-9.208 0-18.526 3.512-24.03 10.372C6.371 16.372 6 22.346 6 29.5s.371 13.128-1.03 14.628C10.474 50.988 19.792 54.5 29 54.5c.246 0 .485-.026.73-.033-12.971-.672-11.696-11.593-11.696-24.967z" fill="#496aaf"/>
  <path d="M56.842 26.5h-2.034C53.293 14.338 42.699 4.88 29.73 4.533 16.759 5.205 18.034 16.126 18.034 29.5S16.759 53.795 29.73 54.467c12.969-.347 23.563-9.805 25.077-21.967H58v-6h-1.158z" fill="#f19266"/>
  <path d="M18.034 29.5c0-13.374-1.275-24.295 11.695-24.967-.244-.007-.483-.033-.729-.033-14.359 0-13 11.193-13 25s-1.359 25 13 25c.246 0 .485-.026.73-.033-12.971-.672-11.696-11.593-11.696-24.967z" fill="#f76363"/>
  <g fill="#ea6248">
    <circle cx="21" cy="15.5" r="1"/>
    <circle cx="22" cy="46.5" r="1"/>
    <circle cx="27" cy="42.5" r="1"/>
    <circle cx="21" cy="37.5" r="1"/>
    <circle cx="28" cy="36.5" r="1"/>
    <circle cx="22" cy="29.5" r="1"/>
    <circle cx="26" cy="21.5" r="1"/>
    <circle cx="20" cy="21.5" r="1"/>
    <circle cx="27" cy="10.5" r="1"/>
  </g>
  <path d="M16 29.5c0 6.627.375 12-2 12-2.761 0-5-5.373-5-12s2.239-12 5-12c2.406 0 2 5.373 2 12z" fill="#cce0e1"/>
  <path d="M58 28.5h-5.586L36 12.086V8.5a1 1 0 1 0-2 0v3h-3a1 1 0 1 0 0 2h3.586l15 15h-5.172l-7.207-7.207c-.061-.061-.136-.095-.207-.137V17.5a1 1 0 1 0-2 0v3h-3a1 1 0 1 0 0 2h3.655c.042.071.076.146.138.207l5.793 5.793H31.414l-2.707-2.707a.999.999 0 1 0-1.414 1.414l2.293 2.293-2.293 2.293a.999.999 0 1 0 1.414 1.414l2.707-2.707h10.172l-6 6H32a1 1 0 1 0 0 2h3v3a1 1 0 1 0 2 0v-3.586l7.414-7.414h5.172l-15 15H31a1 1 0 1 0 0 2h3v3a1 1 0 1 0 2 0v-3.586L52.414 30.5H58a1 1 0 1 0 0-2z" fill="#f7b563"/>
  <path d="M6 29.5c0 8.284.503 15-1.832 15S0 37.784 0 29.5s1.833-15 4.168-15S6 21.216 6 29.5z" fill="#b9d2d9"/>
  <circle cx="13" cy="23.5" r="1" fill="#e083a0"/>
  <circle cx="13" cy="26.5" r="1" fill="#e083a0"/>
  <circle cx="13" cy="29.5" r="1" fill="#e083a0"/>
  <circle cx="13" cy="32.5" r="1" fill="#e083a0"/>
  <circle cx="13" cy="35.5" r="1" fill="#e083a0"/>
  <path d="M3.779 41.508c-.838-1.835-1.823-5.955-1.823-12.061s.985-10.226 1.823-12.061c.264 1.894.23 5.35.201 8.262-.012 1.214-.024 2.486-.024 3.799s.013 2.585.024 3.799c.029 2.913.064 6.369-.201 8.262z" fill="#fff"/>
</svg>
