<svg xmlns="http://www.w3.org/2000/svg" viewBox="0 0 496 496">
  <path d="M338.4 129.2c0 40-32 72-72 72h-35.2c-40 0-72-32-72-72s32-72 72-72h35.2c39.2 0 72 32 72 72z" fill="#00233f"/>
  <path fill="#f9bda0" d="M184 241.2h128v152H184z"/>
  <path fill="#e28f71" d="M312 393.2h-64l-60-152h124z"/>
  <path d="M336.8 158.8c0 70.4-43.2 134.4-88.8 134.4s-88.8-64-88.8-134.4 43.2-82.4 88.8-82.4 88.8 12 88.8 82.4z" fill="#fcccb9"/>
  <path d="M248 76.4c45.6 0 88.8 12 88.8 82.4S293.6 293.2 248 293.2" fill="#f9bda0"/>
  <path d="M280 73.2c0 8.8-7.2 16-16 16h-24c-8.8 0-16-7.2-16-16s7.2-16 16-16h24c8.8 0 16 7.2 16 16z" fill="#00233f"/>
  <path d="M336 207.6c0 8-39.2 105.6-88 105.6s-88-98.4-88-105.6 39.2-14.4 88-14.4 88 6.4 88 14.4z" fill="#36c9b4"/>
  <path d="M248 193.2c48.8 0 88 6.4 88 14.4s-39.2 105.6-88 105.6" fill="#22b2b2"/>
  <path fill="#36c9b4" d="M265.6 486l230.4-2.4-4.8-68-176-72-67.2 44.8-67.2-44.8-176 72-4.8 68 230.4 2.4v.8h35.2z"/>
  <path fill="#22b2b2" d="M230.4 486v.8h35.2v-.8l230.4-2.4-4.8-68-176-72-67.2 44.8-67.2-44.8"/>
  <path fill="#f9bda0" d="M272.638 176.808l-111.686-68.825 35.671-57.886 111.687 68.825z"/>
  <path d="M263.2 9.2H232c-40.8 0-74.4 36-74.4 76.8v41.6C160 111.6 192 98 232 98h31.2c40 0 69.6 1.6 72 17.6 0-1.6.8 2.4.8 1.6V86c0-40.8-31.2-76.8-72.8-76.8z" fill="#36c9b4"/>
  <path d="M232 97.2h31.2c40 0 72 12 74.4 28V86.8c0-40.8-33.6-77.6-74.4-77.6H232" fill="#22b2b2"/>
  <path fill="#149ca3" d="M248 459.6L349.6 358l-34.4-14.4-67.2 44.8-67.2-44.8-34.4 14.4z"/>
  <g fill="#4eddc5">
    <ellipse transform="rotate(-117.736 203.401 34.076)" cx="203.401" cy="34.076" rx="8" ry="25.6"/>
    <circle cx="176" cy="55.6" r="3.2"/>
    <circle cx="168.8" cy="67.6" r="3.2"/>
    <path d="M239.2 202c0 3.2-33.6 14.4-52 16.8-18.4 2.4-13.6-6.4-13.6-9.6s14.4-7.2 32-9.6c18.4-1.6 33.6-.8 33.6 2.4zM14.4 421.2L144 370l38.4 34.4-48.8-7.2z"/>
  </g>
</svg>
