<svg xmlns="http://www.w3.org/2000/svg" viewBox="0 0 59.012 59.012">
  <path d="M50.833 12.425C37.41-.444 28.872 13.592 28.872 13.592c-6.294-1.083-7.456-6.5-7.456-6.5L14.25 9.925s1.667 9.167 14.25 11.5c0 0 .131 4.25 3.5 5.917v5.5s-4.5 1.667-4.917 5.083c0 0-5.25-1.75-8.667 2.25 0 0-17.417-9.486-17.417 11.84h5c0-6.022 3.315-7.276 5.083-5.507 4.81 4.81 7.583 1.167 7.583 1.167 8.917 5.333 16.5 4.25 16.5 4.25 19.409.584 31.223-24.587 15.668-39.5z" fill="#fbce9d"/>
  <path d="M33.376 53.02c-2.795 0-8.307-.545-14.561-4.102a4.762 4.762 0 0 1-2.681 1.067c-1.869.12-3.794-.807-5.758-2.771-.427-.426-.958-.555-1.459-.345C7.99 47.255 7 48.808 7 52.016a1 1 0 1 1-2 0c0-5.133 2.204-6.6 3.152-6.993 1.249-.514 2.642-.218 3.639.779 1.503 1.503 2.958 2.274 4.177 2.19a2.758 2.758 0 0 0 1.91-.932l.545-.684.757.439c8.475 5.07 15.775 4.13 15.847 4.118l.083-.012.086.002c8.656.291 16.504-5.01 20.035-13.427 2.816-6.713 2.958-16.635-5.09-24.352-4.012-3.846-7.925-5.557-11.63-5.075-5.458.705-8.752 5.988-8.785 6.042l-.354.577-.669-.113c-6.881-1.184-8.211-7.027-8.265-7.275a1 1 0 0 1 .768-1.188.996.996 0 0 1 1.187.764c.044.196 1.054 4.43 6.023 5.601 1.118-1.565 4.53-5.696 9.821-6.389 4.34-.567 8.812 1.321 13.288 5.613 7.345 7.042 9.472 17.223 5.551 26.568-3.844 9.16-12.436 14.867-21.859 14.655-.237.031-.877.096-1.841.096z" fill="#cf8c6d"/>
  <path d="M1 53.016a1 1 0 0 1-1-1c0-6.935 1.813-11.528 5.388-13.652 4.666-2.771 10.752-.375 12.806.585 2.81-2.762 6.394-2.552 8.149-2.229.865-2.485 3.435-3.957 4.657-4.534V27.93c-2.49-1.544-3.21-4.301-3.417-5.667-12.447-2.641-14.245-11.764-14.317-12.158a1 1 0 0 1 .805-1.162.994.994 0 0 1 1.162.801c.065.348 1.748 8.53 13.449 10.699l.792.147.025.806c.001.033.167 3.678 2.944 5.051l.557.274v6.814l-.651.244c-.04.015-3.936 1.505-4.273 4.267l-.148 1.215-1.161-.388c-.186-.059-4.665-1.471-7.59 1.951l-.525.615-.712-.386c-.068-.038-6.941-3.702-11.534-.968C3.482 41.826 2 45.84 2 52.016a1 1 0 0 1-1 1z" fill="#cf8c6d"/>
</svg>
