<svg xmlns="http://www.w3.org/2000/svg" viewBox="0 0 409.6 409.6"><path d="M283.632 120.136c-10.925 3.15-22.845.013-30.226-8.636-20.334-23.82-32.982-53.215-36.222-84.985L214.484 0 170.4 4.49l2.7 26.514c4.77 46.798 25.444 89.56 58.66 122.147 4.938 4.845 7.816 11.363 8.314 18.26 1.882 26.02.423 78.176-36.673 105.004-12.72 9.2-28.664 12.747-44.282 11.146-9.05-.927-20.278-1.8-29.057-1.595-9.44.22-18.732-2.22-26.764-7.184l-10.176-6.29-1.557-.886c-14.7-7.687-31.97-7.112-46.15 1.556-14.328 8.76-22.387 24.987-22.387 41.78v94.66h49.85v-69.724c0-2.657.832-5.02 2.206-6.924 4.543-6.295 14.25-5.432 18.58 1.01 14.44 21.498 71.92 91.607 186.7 52.565 0 0 101.632-39.37 106.21-167.556 0 .003-1.68-128.02-102.94-98.834z" fill="#fcd462"/><path d="M327.563 117.677c-2.673 50.13-21.845 253.07-156.97 273.798 28.297 8.844 64.572 10.427 109.77-4.945 0 0 101.63-39.37 106.21-167.557 0 0-1.213-87.608-59.01-101.296z" fill="#f6c358"/></svg>