<svg xmlns="http://www.w3.org/2000/svg" viewBox="0 0 409.6 409.6">
  <path d="M316.584 16.58H93.016c-11.1 0-20.097 8.997-20.097 20.095V265.27c0 72.836 59.045 131.88 131.881 131.88 72.835 0 131.88-59.045 131.88-131.88V36.676c.001-11.099-8.996-20.096-20.096-20.096z" fill="#ebf0f3"/>
  <path d="M113.218 0l8.463 38.331h166.238L296.382 0zm-4.674 76.662h192.471v121.016H108.544z" fill="#64798a"/>
  <path fill="#3a556a" d="M108.564 197.681V76.663h192.473z"/>
  <path fill="#fff" d="M117.212 85.325h175.155V189.02H117.212z"/>
  <path d="M204.801 299.041c-10.294 0-18.639 8.344-18.639 18.639v91.92h37.277v-91.92c0-10.295-8.344-18.639-18.638-18.639z" fill="#fcd462"/>
  <path fill="#f6c358" d="M186.163 326.144h37.279v32.819h-37.279z"/>
  <path d="M210.31 338.68c3.786 6.468-2.892 13.149-9.361 9.361a4.727 4.727 0 0 1-1.658-1.658c-3.788-6.469 2.893-13.147 9.361-9.361a4.727 4.727 0 0 1 1.658 1.658z" fill="#e56353"/>
  <path d="M204.801 227.799c-31.605 0-57.224 25.62-57.224 57.224v99.099c13.226 6.379 27.688 10.596 42.919 12.24v-78.681c0-7.89 6.417-14.307 14.307-14.307 7.889 0 14.307 6.417 14.307 14.307v78.681c15.229-1.645 29.688-5.86 42.914-12.24v-99.099c0-31.604-25.621-57.224-57.223-57.224z" fill="#64798a"/>
  <path d="M214.482 252.107c7.11 11.686-5.101 23.897-16.787 16.787a7.802 7.802 0 0 1-2.581-2.583c-7.094-11.682 5.103-23.88 16.785-16.785a7.83 7.83 0 0 1 2.583 2.581z" fill="#e56353"/>
  <path d="M147.579 281.201h114.447v6.692H147.579zm-2.49-177.064l-3.117 2.962 3.117 2.963h22.402l3.117-2.963-3.117-2.962zm29.652 6.62l-2.963-3.118-2.962 3.118v22.402l2.962 3.116 2.963-3.116zm-30.49 0l-2.962-3.118-2.963 3.118v22.402l2.963 3.116 2.962-3.116zm.838 59.451l-3.117-2.962 3.117-2.963h22.402l3.117 2.963-3.117 2.962zm29.652-6.62l-2.963 3.118-2.962-3.118v-22.402l2.962-3.116 2.963 3.116zm-30.49 0l-2.962 3.118-2.963-3.118v-22.402l2.963-3.116 2.962 3.116zm49.105-59.451l-3.117 2.962 3.117 2.963h22.402l3.118-2.963-3.118-2.962zm29.652 6.62l-2.962-3.118-2.963 3.118v22.402l2.963 3.116 2.962-3.116zm-30.49 0l-2.962-3.118-2.963 3.118v22.402l2.963 3.116 2.962-3.116zm.838 59.451l-3.117-2.962 3.117-2.963h22.402l3.118 2.963-3.118 2.962zm29.652-6.62l-2.962 3.118-2.963-3.118v-22.402l2.963-3.116 2.962 3.116zm-30.49 0l-2.962 3.118-2.963-3.118v-22.402l2.963-3.116 2.962 3.116zm49.105-59.451l-3.116 2.962 3.116 2.963h22.402l3.118-2.963-3.118-2.962zm29.652 6.62l-2.962-3.118-2.963 3.118v22.402l2.963 3.116 2.962-3.116zm-30.489 0l-2.962-3.118-2.964 3.118v22.402l2.964 3.116 2.962-3.116zm.837 59.451l-3.116-2.962 3.116-2.963h22.402l3.118 2.963-3.118 2.962zm29.652-6.62l-2.962 3.118-2.963-3.118v-22.402l2.963-3.116 2.962 3.116zm-30.489 0l-2.962 3.118-2.964-3.118v-22.402l2.964-3.116 2.962 3.116z" fill="#3a556a"/>
</svg>
