<svg xmlns="http://www.w3.org/2000/svg" viewBox="0 0 58 58">
  <path d="M9.017 50C10.79 41.272 15 33 15 33L1.179 20.815A28.983 28.983 0 0 0 0 29c0 8.267 3.467 15.717 9.017 21zM30.556.043l13.97 13.637a15.76 15.76 0 0 1 4.28 15.098L48 32l.807 18.164C54.46 44.873 58 37.354 58 29 58 13.506 45.848.851 30.556.043z" fill="#dc691d"/>
  <path d="M29 58c7.661 0 14.623-2.976 19.808-7.828L48 32l.806-3.222a15.759 15.759 0 0 0-4.28-15.098L30.556.043A28.691 28.691 0 0 0 29 0C15.827 0 4.713 8.786 1.179 20.815L15 33s-4.211 8.275-5.984 17.004C14.218 54.955 21.251 58 29 58z" fill="#fbce9d"/>
  <path d="M28.549 7.01a6.853 6.853 0 0 0-5.252-2.321c-2.353.044-4.744-.635-6.806-1.858A29.09 29.09 0 0 0 7.925 9.09c1.881 2.315 2.819 5.223 2.763 8.208a6.858 6.858 0 0 0 2.321 5.252c2.427 2.163 6.118 2.317 8.597.35a6.407 6.407 0 0 0 2.107-2.988 3.524 3.524 0 0 1 2.197-2.197 6.407 6.407 0 0 0 2.988-2.107c1.968-2.48 1.814-6.172-.349-8.598zm8.887 29.034a6.406 6.406 0 0 0-3.603.623 3.52 3.52 0 0 1-3.108 0 6.406 6.406 0 0 0-3.603-.623c-3.143.362-5.644 3.082-5.831 6.327a6.857 6.857 0 0 0 2.072 5.355c2.447 2.358 3.966 5.554 3.966 9.001v1.222a28.972 28.972 0 0 0 9.95-1.155v-.068c0-3.447 1.469-6.644 3.916-9.001a6.856 6.856 0 0 0 2.072-5.355c-.187-3.244-2.688-5.964-5.831-6.326z" fill="#f7f2d5"/>
  <circle cx="32.279" cy="26" r="7" fill="#fff"/>
</svg>
