<svg xmlns="http://www.w3.org/2000/svg" viewBox="0 0 421.141 421.141">
  <path d="M138.277 274.566c14.716-9.475 13.07-37.675 13.07-44.255h118.446c0 6.58-1.825 34.78 12.89 44.255l-72.113 80.771-72.293-80.771z" fill="#ffd7a3"/>
  <path d="M256.632 302.695l26.051-28.129c-14.716-9.474-12.89-37.675-12.89-44.255H151.347c8.498 24.433 64.707 66.352 105.285 72.384z" fill="#fdc88e"/>
  <path d="M302.695 144.767c0 52.696-30.343 118.446-92.124 118.446s-92.124-65.75-92.124-118.446 41.246-72.384 92.124-72.384 92.124 19.688 92.124 72.384z" fill="#ffe1b2"/>
  <path d="M121.521 156.283c-9.864-2.468-16.326 2.805-16.326 13.161 0 13.709 13.265 47.296 27.21 26.321 13.946-20.975-10.884-39.482-10.884-39.482zm176.423 0c10.767-2.468 17.821 2.805 17.821 13.161 0 13.709-14.479 47.296-29.701 26.321s11.88-39.482 11.88-39.482z" fill="#ffe1b2"/>
  <path d="M138.187 118.446c-2.742 7.887-6.58 52.643-6.58 52.643l-13.161-7.281-3.701-48.234 23.442 2.872zm144.767 0c2.742 7.887 6.58 52.643 6.58 52.643l13.161-7.281 3.701-48.234-23.442 2.872z" fill="#7e5449"/>
  <path d="M361.918 421.141c10.903 0 19.741-8.838 19.741-19.741v-50.303c0-28.954-22.562-59.864-50.138-68.687l-41.168-13.173c-22.149 16.936-53.802 40.039-79.782 40.039s-57.633-23.103-79.782-40.039L89.62 282.41c-27.576 8.823-50.138 39.733-50.138 68.687V401.4c0 10.903 8.838 19.741 19.741 19.741h302.695z" fill="#527992"/>
  <path d="M223.731 329.016c0 3.619-2.961 6.58-6.58 6.58H203.99c-3.619 0-6.58-2.961-6.58-6.58v-13.161c0-3.619 2.961-6.58 6.58-6.58h13.161c3.619 0 6.58 2.961 6.58 6.58v13.161z" fill="#545465"/>
  <circle cx="210.57" cy="368.498" r="6.58" fill="#d0d7dc"/>
  <path d="M210.57 309.275l-27.456 27.456c-2.859 2.859-7.596 2.487-9.975-.783l-48.113-66.156 15.326-15.326a6.58 6.58 0 0 1 9.055-.238l61.163 55.047z" fill="#475f7f"/>
  <path d="M210.57 309.275l27.456 27.456c2.859 2.859 7.596 2.487 9.975-.783l48.113-66.156-15.326-15.326a6.58 6.58 0 0 0-9.055-.238l-61.163 55.047z" fill="#475f7f"/>
  <path fill="#545465" d="M219.611 331.895l-9.041 3.701-9.04-3.701-4.12 89.246h26.321z"/>
  <path d="M364.235 420.907c9.797-1.16 17.423-9.399 17.423-19.507v-50.303c0-28.954-22.562-59.864-50.138-68.687l-35.879-11.481-52.169 149.978h120.763zM125.499 270.929L89.62 282.41c-27.576 8.823-50.138 39.733-50.138 68.687V401.4c0 10.109 7.627 18.347 17.423 19.507h120.764l-52.17-149.978z" fill="#e4ebf0"/>
  <path d="M125.026 269.793L97.037 303.63c-2.605 2.993-1.988 7.594 1.314 9.795l13.515 9.01-15.633 15.633a6.58 6.58 0 0 0-.541 8.693l42.496 74.379 39.482-.234-52.644-151.113zm171.088 0l27.989 33.837c2.605 2.993 1.988 7.594-1.314 9.795l-13.515 9.01 15.633 15.633a6.58 6.58 0 0 1 .541 8.693l-42.496 74.379-39.482-.234 52.644-151.113z" fill="#d0d7dc"/>
  <path d="M309.275 118.446h-197.41V23.697c62.01-31.596 135.399-31.596 197.41 0v94.749z" fill="#e4ebf0"/>
</svg>
