<svg xmlns="http://www.w3.org/2000/svg" viewBox="0 0 512.001 512.001">
  <path d="M219.729 294.957v33.391c0 9.238-7.345 16.696-16.584 16.696s-16.696-7.457-16.696-16.696v-33.391c0-9.238-7.456-16.696-16.696-16.696s-16.807 7.457-16.807 16.696v200.348c0 9.238-7.345 16.696-16.584 16.696s-16.696-7.457-16.696-16.696V297.071c0-26.157 19.144-49.53 45.191-51.979 1.668-.11 3.338-.223 4.896-.223 27.715.112 49.976 22.373 49.976 50.088z" fill="#5c5f66"/>
  <path d="M219.729 294.957v33.391c0 9.238-7.345 16.696-16.584 16.696s-16.696-7.457-16.696-16.696v-33.391a16.673 16.673 0 0 0-16.696-16.696V244.87c27.715.111 49.976 22.372 49.976 50.087z" fill="#53565c"/>
  <g fill="#f9bc35">
    <path d="M253.205 100.174c-27.619 0-50.087-22.468-50.087-50.087S225.586 0 253.205 0s50.087 22.468 50.087 50.087-22.468 50.087-50.087 50.087z"/>
    <path d="M392.335 256v222.609c0 18.365-15.026 33.391-33.391 33.391s-33.391-15.026-33.391-33.391V256c0-15.805-2.783-31.388-8.459-46.414l-11.911-32.167-17.919 29.273c-3.339 5.343-67.117 68.341-71.681 72.904-13.023 13.023-34.169 13.023-47.193 0-13.024-13.023-13.023-34.282 0-47.193l62.887-62.998c30.163-60.216 33.391-80.362 60.883-80.362 7.345 0 14.247 2.337 20.035 6.678a197.907 197.907 0 0 1 46.748 49.642c21.482 32.501 33.392 71.013 33.392 110.637z"/>
  </g>
  <path d="M392.335 256v222.609c0 18.365-15.026 33.391-33.391 33.391V145.363c21.481 32.501 33.391 71.013 33.391 110.637z" fill="#f39e31"/>
</svg>
