<svg xmlns="http://www.w3.org/2000/svg" viewBox="0 0 58.143 58.143">
  <path d="M18.769 21.096s-10.5-19 11-21 32.375 27.875 25 39c0 0 3.625 19.125-13 19 0 0-10.51 1.75-11-16-.576-20.879-12-21-12-21z" fill="#b34b4d"/>
  <path d="M40.072 36.552h-3.53c-4.153-4.108-10.104-4.965-14.895-2.54 2.578-4.523 5.516-6.07 7.705-6.521 2.218-.457 3.971.181 4.416.625l2.829 2.83a.997.997 0 0 0 1.414 0 .999.999 0 0 0 0-1.414L35.89 27.41l2.121-2.121a.999.999 0 1 0-1.414-1.414l-2.244 2.244c-1.241-.67-3.226-1.036-5.405-.586-2.56.528-5.965 2.255-8.876 7.206v-5.641c0-4.411 3.589-8 8-8h4a1 1 0 1 0 0-2h-3v-3a1 1 0 1 0-2 0v3.051c-5.046.503-9 4.773-9 9.949v10c0 8.822-7.178 16-16 16a1 1 0 1 0 0 2c9.768 0 17.728-7.827 17.977-17.537 4.235-3.966 10.732-3.828 15.023.356v3.636a1 1 0 1 0 2 0v-3h3a1 1 0 0 0 0-2.001z" fill="#7383bf"/>
  <path d="M52.358 31.821a.997.997 0 0 0-.484-.992c-.003-.001-.004-.004-.006-.006-2.083-1.203-3.566-3.119-4.176-5.395-.61-2.276-.283-4.678.92-6.761.012-.02.011-.043.021-.063.047-.096.088-.197.103-.305a.998.998 0 0 0-1.251-1.097 8.942 8.942 0 0 1-6.829-.898 8.94 8.94 0 0 1-4.191-5.467 1 1 0 0 0-1.932.518 10.932 10.932 0 0 0 5.123 6.682 10.926 10.926 0 0 0 5.479 1.477c.306 0 .613-.035.92-.06a10.768 10.768 0 0 0-.295 6.493 10.768 10.768 0 0 0 3.493 5.469c-4.709 2.228-7.316 7.574-5.921 12.782a.998.998 0 0 0 1.225.707 1 1 0 0 0 .707-1.225c-1.284-4.794 1.57-9.739 6.363-11.023.003-.001.004-.003.007-.003a1.026 1.026 0 0 0 .375-.203.98.98 0 0 0 .226-.26c.012-.02.011-.043.021-.063.046-.098.087-.199.102-.307z" fill="#f7b563"/>
</svg>
