<svg xmlns="http://www.w3.org/2000/svg" viewBox="0 0 460 460">
  <path d="M415.191 326.321c-9.233 28.097-25.088 54.514-47.571 76.843C329.575 441.055 279.712 460 229.848 460s-99.727-18.945-137.771-56.836c-22.482-22.328-38.338-48.746-47.571-76.843-15.312-46.598-12.404-97.816 8.734-142.665 9.331-19.797 22.205-38.356 38.641-54.726L215.326 5.986C219.333 1.995 224.59 0 229.848 0s10.516 1.995 14.523 5.986L367.815 128.93c16.436 16.369 29.311 34.928 38.641 54.726 21.138 44.849 24.047 96.067 8.735 142.665z" fill="#e57c53"/>
  <path d="M272.276 455.362A196.476 196.476 0 0 1 229.848 460c-49.863 0-99.727-18.945-137.771-56.836-22.482-22.328-38.338-48.746-47.57-76.843-15.313-46.598-12.404-97.816 8.734-142.665 9.33-19.797 22.205-38.356 38.641-54.726L215.326 5.986C219.332 1.995 224.59 0 229.848 0s10.516 1.995 14.523 5.986l27.905 27.792-95.539 95.152c-16.436 16.369-29.311 34.928-38.641 54.726-21.138 44.849-24.046 96.067-8.734 142.665 9.233 28.097 25.088 54.514 47.571 76.843 27.184 27.074 60.403 44.469 95.343 52.198z" fill="#f48e6e"/>
  <path d="M415.494 326.321c-9.233 28.097-25.088 54.514-47.571 76.843C329.879 441.055 280.015 460 230.152 460s-99.727-18.945-137.771-56.836c-22.482-22.328-38.338-48.746-47.571-76.843-15.312-46.598-12.403-97.816 8.734-142.665.68-1.442 1.384-2.876 2.102-4.305 6.191.419 12.434.649 18.732.649 93.504 0 176.093-46.676 225.774-117.99l67.967 66.921c16.436 16.369 29.311 34.928 38.641 54.726 21.138 44.848 24.046 96.066 8.734 142.664z" fill="#e05f3d"/>
  <path d="M272.125 455.396A196.46 196.46 0 0 1 229.849 460c-49.863 0-99.727-18.945-137.771-56.836-22.482-22.328-38.338-48.746-47.571-76.843-15.312-46.598-12.403-97.816 8.734-142.665.68-1.442 1.384-2.876 2.102-4.305 6.19.419 12.433.649 18.731.649 24.31 0 47.88-3.162 70.328-9.085a192.084 192.084 0 0 0-6.609 12.741c-21.138 44.849-24.047 96.067-8.734 142.665 9.232 28.097 25.088 54.514 47.57 76.843 27.224 27.113 60.5 44.521 95.496 52.232z" fill="#e86e56"/>
  <path d="M415.18 326.321c-9.233 28.097-25.088 54.514-47.571 76.843C329.564 441.055 279.701 460 229.837 460s-99.727-18.945-137.771-56.836c-22.482-22.328-38.338-48.746-47.571-76.843a193.273 193.273 0 0 1-9.349-49.632C61.828 285.319 90.286 290 119.841 290c110.59 0 205.917-65.289 249.582-159.417-.541-.551.916.907 2.151 2.206 14.647 15.405 26.267 32.61 34.872 50.868 21.137 44.848 24.046 96.066 8.734 142.664z" fill="#d83427"/>
  <path d="M272.568 455.292a196.469 196.469 0 0 1-42.73 4.708c-49.863 0-99.727-18.945-137.771-56.836-22.482-22.328-38.338-48.746-47.571-76.843a193.315 193.315 0 0 1-9.349-49.632C61.828 285.319 90.286 290 119.841 290c.657 0 .383-.014 1.039-.018 1.536 12.292 5.175 24.466 9.077 36.339 9.233 28.097 25.088 54.514 47.571 76.843 27.104 26.996 60.21 44.366 95.04 52.128z" fill="#e2453d"/>
  <path d="M415.163 326.321c-9.233 28.097-25.088 54.514-47.571 76.843C329.547 441.055 279.684 460 229.82 460s-99.727-18.945-137.771-56.836a194.411 194.411 0 0 1-27.304-33.974C97.122 382.59 132.607 390 169.828 390c111.874 0 208.136-66.808 251.089-162.701a196.153 196.153 0 0 0-1.133-5.171c7.99 34.376 6.453 70.492-4.621 104.193z" fill="#c92323"/>
  <path d="M272.541 455.292A196.437 196.437 0 0 1 229.813 460c-49.863 0-99.727-18.945-137.771-56.836a194.59 194.59 0 0 1-25.781-31.605c-1.617-2.472-2.599-4.067-1.523-2.369 29.397 12.167 61.361 19.378 94.856 20.603 1.533.056 5.416.168 5.8.174a195.92 195.92 0 0 0 12.105 13.197c27.105 26.996 60.212 44.366 95.042 52.128z" fill="#b51c1c"/>
</svg>
