<svg xmlns="http://www.w3.org/2000/svg" viewBox="0 0 466.737 466.737">
  <path fill="#f9bda0" d="M41.369 370.737h384v96h-384z"/>
  <path d="M133.561 132.154c-1.328-2.672 4.872-7.896 4.872-7.896l75.064-15.368 4.536 104.008-28.04 32.56m143.192-113.304c1.336-2.672-4.864-7.896-4.864-7.896l-75.064-15.368-4.544 104.008 28.04 32.56" fill="#ce3309"/>
  <path fill="#f9bda0" d="M185.369 186.738h96v200h-96z"/>
  <path fill="#eaa78c" d="M281.369 280.145v-93.407h-95.024l48.232 134.535z"/>
  <path d="M308.329 102.122c0 72.24-36.624 137.616-74.944 137.616s-74.96-65.376-74.96-137.616 36.64-84.288 74.96-84.288 74.944 12.048 74.944 84.288z" fill="#fcccb9"/>
  <path d="M233.385 17.834c38.32 0 74.944 12.048 74.944 84.288s-36.624 137.616-74.944 137.616m-44.288 46.575l-156.184 48.08 3.68 132.344 193.296-45.384z" fill="#f9bda0"/>
  <path fill="#fcccb9" d="M32.913 334.393l3.68 132.344 193.296-45.384"/>
  <path fill="#f9bda0" d="M277.657 286.313l156.176 48.08-3.688 132.344-193.312-45.384z"/>
  <path fill="#eaa78c" d="M433.833 334.393l-3.688 132.344-193.312-45.384"/>
  <path d="M216.409 3.906s23.256 115.096 117.312 126.744c0 0 3.064-70.688-23-101.504-26.08-30.8-66.44-27-66.44-27l-27.872 1.76z" fill="#e5370e"/>
  <path d="M268.753 3.962s18.968 90.176-135.672 132.048c0 0-11.784-75.976 18.984-108.528 30.76-32.56 85.92-27.144 85.92-27.144l30.768 3.624z" fill="#f95130"/>
  <path d="M237.985.338l30.768 3.624s18.968 90.176-135.672 132.048" fill="#e5370e"/>
  <path fill="#6b767c" d="M41.369 370.737h384v96h-384z"/>
  <path fill="#071519" d="M41.369 386.737h384v80h-384z"/>
  <path fill="#e2f5f7" d="M227.385 466.737l-48.208-179.952-146.816 45.56 4.232 134.392z"/>
  <path fill="#ceeef2" d="M227.385 466.737l-48.208-179.952-146.816 45.56 20.232 134.392z"/>
  <path d="M227.385 466.737l-48.208-179.952-146.816 45.56 52.232 134.392zm11.968 0l48.208-179.952 146.816 45.56-4.232 134.392z" fill="#c3e4ea"/>
  <path d="M386.057 445.817c0 1.128-2.088 2.04-4.664 2.04h-54.672c-2.576 0-4.664-.912-4.664-2.04 0-1.128 2.088-2.04 4.664-2.04h54.672c2.576 0 4.664.912 4.664 2.04z" fill="#f8ffff"/>
  <path d="M179.145 287.081l-39.776 71.76 39.496 23.761-7 46.071 39.504 38.064h10zm108.448 0l39.776 71.76-39.504 23.761 7 46.071-39.496 38.064h-10z" fill="#e2f5f7"/>
  <path d="M317.353 387.961c1.952 0 4.016-1.56 4.016-3.496v-99.984c0-21.152-16.512-38.368-37.672-38.368-1.92 0-3.152 1.56-3.152 3.496 0 1.92.544 3.488 2.464 3.488 17.304 0 30.36 14.08 30.36 31.392v99.992c0 1.92 2.08 3.48 3.984 3.48zm-134.72-141.847c-21.16 0-37.264 17.216-37.264 38.368v65.832c2.6.896 5.4 1.864 8 3.104v-68.936c0-17.312 12.752-31.392 30.056-31.392 1.912 0 2.16-1.56 2.16-3.488-.008-1.928-1.032-3.488-2.952-3.488z" fill="#4e595e"/>
  <circle cx="319.465" cy="390.737" r="8.144" fill="#7cb1b5"/>
  <path d="M345.033 415.633c0 14.128-11.472 25.592-25.56 25.592-14.152 0-25.584-11.472-25.584-25.592 0-14.112 11.44-25.576 25.584-25.576 14.088 0 25.56 11.472 25.56 25.576z" fill="#37a2a5"/>
  <path d="M301.385 397.553c9.968-9.976 26.176-9.976 36.168 0 9.984 9.984 9.976 26.208.016 36.168" fill="#1b8796"/>
  <circle cx="319.473" cy="415.641" r="13.664" fill="#37a2a5"/>
  <path d="M309.817 425.289c-5.328-5.312-5.328-13.984 0-19.304 5.328-5.336 14-5.328 19.328-.008" fill="#1b8796"/>
  <g fill="#37a2a5">
    <path d="M169.369 457.977l-8.504-88.952c0-7.456-6.832-13.512-14.272-13.512-7.472 0-15.88 6.064-15.88 13.512l-9.344 88.952v-88.952c0-11.296 12.696-20.496 24-20.496 11.312 0 24 9.192 24 20.496v88.952z"/>
    <path d="M130.769 455.801c0 4.632 1.136 8.392-1.52 8.392-2.64 0-4.8-3.76-4.8-8.392s2.16-8.4 4.8-8.4c2.648 0 1.52 3.768 1.52 8.4z"/>
  </g>
  <ellipse cx="125.329" cy="455.777" rx="3.64" ry="4.936" fill="#1b8796"/>
  <path d="M160.873 455.801c0-4.632-1.128-8.4 1.528-8.4 2.648 0 4.8 3.768 4.8 8.4s-2.152 8.392-4.8 8.392c-2.648 0-1.528-3.759-1.528-8.392z" fill="#37a2a5"/>
  <ellipse cx="166.329" cy="455.777" rx="3.632" ry="4.944" fill="#1b8796"/>
  <g fill="#4e595e">
    <path d="M361.369 410.737h8v24h-8z"/>
    <path d="M353.369 418.737h24v8h-24z"/>
  </g>
</svg>
