<svg version="1" xmlns="http://www.w3.org/2000/svg" viewBox="0 0 512 512">
  <path fill="#eac6bb" d="M459 125l-37-49-38-34-60-27h-76l-58 15-48 29-39 37-12 53 6 62-24 18-30 62 34 32-6 40 15 27 1 46 47 10 54-3 11 63 197 5-2-40v-92l16-30 45-90 14-80z"/>
  <path d="M373 24C342 8 307 0 272 0 161 0 53 77 82 204l-19 24-35 63 34 26-2 45 14 19s-16 60 8 69a209 209 0 0 0 99 8l3 54h226s-23-113 11-161 145-228-48-327zm8 426l4 41H204l-2-34-1-24-23 3s-12 2-29 2c-15 0-37-1-58-8-1-3-2-10 0-22l3-21 3-10-6-8-9-13 1-38v-11l-8-6-19-16 24-45 19-22 6-8-2-11c-5-23-6-44-1-64 4-19 12-36 24-51 15-19 37-35 62-46a214 214 0 0 1 242 55c14 17 23 35 28 55 8 33 4 71-11 112-14 35-33 65-43 79-17 24-25 61-23 111z"/>
  <path d="M201 270l5-1 22-8a11 11 0 0 0-7-20l-22 8a11 11 0 0 0 2 21zm-58 2l5 1 24 1c4 0 8-2 10-6a11 11 0 0 0-9-15l-24-1a11 11 0 0 0-6 20zm-15-4a11 11 0 0 0-4-17l-23-8a11 11 0 0 0-7 20l23 8c3 1 8 0 11-3zm84 63l-4 3-10 21a11 11 0 0 0 19 10l10-21a11 11 0 0 0-15-13zm20-56a11 11 0 0 0-16 9l-1 24a11 11 0 1 0 21 1l2-24c0-4-2-7-6-10zm-50 95l-4 2-20 13a11 11 0 1 0 12 18l20-13a11 11 0 0 0-8-20zm-41 28h-5l-22 8a11 11 0 1 0 7 20l23-8a11 11 0 0 0-3-20z"/>
</svg>
