<svg xmlns="http://www.w3.org/2000/svg" viewBox="0 0 409.6 409.6"><path d="M392.205 0H17.395C7.787 0 0 7.788 0 17.393v374.81c0 9.608 7.788 17.397 17.394 17.397h374.81c9.607 0 17.396-7.79 17.396-17.396V17.394C409.6 7.787 401.81 0 392.205 0z" fill="#64798a"/><path d="M328.772 169.59v-22.343H214.248V121h72.75V98.658h-72.75V72.404h45.018V50.062h-45.018V20.26h-22.342v29.8H150.4v22.343h41.506v26.254H122.67V121h69.237v26.247H80.895v22.342h111.01v26.246H122.67v22.342h69.237v26.255H150.4v22.342h41.506v24.618h-60.052c-26.814 0-50.2 20.663-51.003 47.465-.832 27.734 21.404 50.482 48.95 50.482 22.778 0 41.923-15.55 47.4-36.612 1.867-7.174 8.05-12.363 15.462-12.363h20.855c7.324 0 13.573 5.045 15.383 12.142 5.456 21.387 24.99 37.15 48.153 36.827 26.008-.36 47.91-22.26 48.272-48.267.383-27.37-21.687-49.674-48.967-49.674h-62.11v-24.618h45.02v-22.342h-45.02v-26.255H287v-22.342h-72.75V169.59h114.524z" fill="#3a556a"/></svg>