<svg xmlns="http://www.w3.org/2000/svg" viewBox="0 0 496 496"><path d="M411.6 146.4c0 35.2 1.6 61.6-33.6 61.6H100.4c-35.2 0-32.8-26.4-32.8-61.6V56.8c0-35.2 29.6-40.8 64.8-40.8H346c35.2 0 65.6 5.6 65.6 40.8v89.6z" fill="#0d4972"/><path d="M68.4 55.2c0-35.2 28.8-39.2 64-39.2H346c35.2 0 65.6 5.6 65.6 40.8v89.6c0 35.2 2.4 63.2-32.8 63.2" fill="#00233f"/><path d="M179.6 424H86c-28 0-49.6-20.8-49.6-48S58 328 86 328h93.6c4.8 0 8 3.2 8 8s-3.2 8-8 8H86c-19.2 0-33.6 13.6-33.6 32s14.4 32 33.6 32h93.6c4.8 0 8 3.2 8 8s-3.2 8-8 8z" fill="#04445b"/><path d="M309.2 328c0 13.6-11.2 24-24.8 24H186c-13.6 0-24.8-10.4-24.8-24s11.2-24 24.8-24h97.6c14.4 0 25.6 10.4 25.6 24z" fill="#055072"/><path d="M309.2 328c0 13.6-11.2 24-24.8 24H186c-13.6 0-24.8-10.4-24.8-24.8" fill="#03445b"/><path d="M267.6 299.2c0 17.6-14.4 32-32 32s-32-14.4-32-32V292c0-17.6 14.4-32 32-32s32 14.4 32 32v7.2z" fill="#097d8c"/><path d="M435.6 221.6c0 40.8 3.2 74.4-37.6 74.4H80.4c-40.8 0-36.8-34.4-36.8-74.4V60c0-40 32.8-44 73.6-44h244c40.8 0 74.4 4 74.4 44v161.6z" fill="#149ca3"/><path d="M435.6 205.6c0 40.8 3.2 74.4-37.6 74.4H80.4c-40.8 0-36.8-33.6-36.8-74.4V44.8C43.6 4 76.4 0 117.2 0h244c40.8 0 74.4 4 74.4 44.8v160.8z" fill="#36c9b4"/><path d="M115.6 0h245.6c40.8 0 74.4 4 74.4 44.8v161.6c0 40.8 3.2 74.4-37.6 74.4H83.6" fill="#22b2b2"/><g fill="#149ca3"><path d="M362 .8c40.8 0 73.6 3.2 73.6 44v161.6c0 40.8 3.2 74.4-37.6 74.4"/><path d="M411.6 161.6c0 35.2 1.6 62.4-33.6 62.4H100.4c-35.2 0-32.8-27.2-32.8-62.4V72c0-35.2 29.6-40 64.8-40H346c35.2 0 65.6 4.8 65.6 40v89.6z"/></g><path d="M411.6 146.4c0 35.2 1.6 61.6-33.6 61.6H100.4c-35.2 0-32.8-26.4-32.8-61.6V56.8c0-35.2 29.6-40.8 64.8-40.8H346c35.2 0 65.6 5.6 65.6 40.8v89.6z" fill="#0d4972"/><path d="M67.6 56.8c0-35.2 29.6-40.8 64.8-40.8H346c35.2 0 65.6 5.6 65.6 40.8v89.6c0 35.2 1.6 61.6-33.6 61.6" fill="#00233f"/><g fill="#04445b"><circle cx="198.8" cy="247.2" r="5.6"/><circle cx="238.8" cy="247.2" r="5.6"/><circle cx="279.6" cy="247.2" r="5.6"/></g><path d="M323.6 420.8c0 15.2-12 27.2-27.2 27.2H182.8c-15.2 0-27.2-12-27.2-27.2v-2.4c0-15.2 12-27.2 27.2-27.2h114.4c15.2 0 27.2 12 27.2 27.2v2.4h-.8z" fill="#36c9b4"/><g fill="#22b2b2"><path d="M323.6 422.4v-3.2c0 15.2-12 28.8-27.2 28.8H182.8c-15.2 0-27.2-12-27.2-27.2l.8.8"/><path d="M379.6 408c0-26.4-21.6-48-48-48s-48 21.6-48 48v24c0 26.4 21.6 48 48 48s48-21.6 48-48v-24z"/></g><path d="M331.6 480c27.2 0 48-20.8 48-48v-24c0-27.2-20.8-48-48-48" fill="#0d4972"/><ellipse transform="rotate(-128.04 351.862 386.556)" cx="351.863" cy="386.558" rx="24" ry="10.4" fill="#13628e"/><g fill="#149ca3"><circle cx="185.2" cy="398.4" r="3.2"/><circle cx="207.6" cy="398.4" r="3.2"/><circle cx="230" cy="398.4" r="3.2"/><circle cx="185.2" cy="410.4" r="3.2"/><circle cx="207.6" cy="410.4" r="3.2"/><circle cx="230" cy="410.4" r="3.2"/><circle cx="185.2" cy="422.4" r="3.2"/><circle cx="207.6" cy="422.4" r="3.2"/><circle cx="230" cy="422.4" r="3.2"/><circle cx="185.2" cy="434.4" r="3.2"/><circle cx="207.6" cy="434.4" r="3.2"/><circle cx="230" cy="434.4" r="3.2"/><path d="M399.6 441.6c-.8 0-1.6 0-2.4-.8-1.6-1.6-1.6-4 0-4.8 12-12 12-31.2 0-42.4-1.6-1.6-1.6-4 0-4.8 1.6-1.6 4-1.6 4.8 0 14.4 14.4 14.4 38.4 0 52.8-.8-.8-1.6 0-2.4 0z"/><path d="M409.2 468c-.8 0-1.6 0-2.4-.8-1.6-1.6-1.6-4 0-4.8 12.8-12.8 20-30.4 20-48.8s-7.2-35.2-20-48c-1.6-1.6-1.6-4 0-4.8 1.6-1.6 4-1.6 4.8 0 14.4 14.4 22.4 33.6 22.4 53.6s-8 39.2-22.4 53.6h-2.4z"/><path d="M423.6 495.2c-.8 0-1.6 0-2.4-.8-1.6-1.6-1.6-4 0-4.8 20-20 31.2-47.2 31.2-75.2 0-28.8-11.2-55.2-31.2-75.2-1.6-1.6-1.6-4 0-4.8 1.6-1.6 4-1.6 4.8 0 21.6 21.6 33.6 50.4 33.6 80.8s-12 59.2-33.6 80.8c-.8-.8-1.6-.8-2.4-.8z"/></g></svg>