<svg xmlns="http://www.w3.org/2000/svg" viewBox="0 0 409.6 409.6"><path d="M141.907 305.204h-91.43c.845 1.725 1.647 3.542 2.53 5.164 10.912 20.015 24.967 32.078 40.313 32.078h91.477c-16.6 0-31.656-14.208-42.89-37.242z" fill="#3a556a"/><path d="M405.56 234.52h-3.727v-14.158c0-.702-.57-1.274-1.275-1.274h-53.81c-.703 0-1.274.572-1.274 1.274v14.158h-3.728v-14.158c0-2.758 2.245-5 5.004-5h53.81a5.01 5.01 0 0 1 5.003 5v14.158z" fill="#64798a"/><path fill="#d5d6db" d="M398.962 254.087H225.486V228.91H409.6z"/><ellipse cx="184.781" cy="204.8" rx="62.838" ry="137.646" fill="#64798a"/><ellipse cx="184.781" cy="204.8" rx="40.689" ry="98.36" fill="#3a556a"/><ellipse cx="184.781" cy="204.8" rx="33.413" ry="85.135" fill="#FFF"/><path d="M53.007 99.233h-4.813C21.577 99.233 0 146.497 0 204.8s21.577 105.567 48.195 105.567h4.813C39.24 285.117 30.48 247.207 30.48 204.8c0-42.405 8.76-80.318 22.527-105.567z" fill="#e1e6e9"/><path d="M339.464 228.91H152.75c1.057 9.125 2.697 17.607 4.81 25.176h171.266l10.638-25.177z" fill="#ebf0f3"/><g fill="#64798a"><path d="M400.423 228.91c0 4.72-11.92 8.547-26.622 8.547s-26.62-3.827-26.62-8.548M243.507 254.106H390.65v72.243H243.508z"/></g><path fill="#2f4859" d="M234.94 326.35h164.25v7.362H234.94z"/><g fill="#3a556a"><path d="M54.62 342.446H25.042a4.927 4.927 0 0 1-4.927-4.927v-46.177H54.62v51.103zM293.172 333.703a8.742 8.742 0 0 1-17.484 0"/></g><path d="M269.08 333.703a8.742 8.742 0 0 1-17.485 0" fill="#64798a"/><path d="M387.15 333.703a8.742 8.742 0 0 1-17.485 0" fill="#3a556a"/><g fill="#64798a"><path d="M363.055 333.703a8.742 8.742 0 0 1-17.484 0M136.887 342.446H49.96v-37.24h91.853v32.313a4.926 4.926 0 0 1-4.926 4.926z"/></g><path d="M121.96 204.8c0-76.02 28.132-137.646 62.837-137.646H93.32c-15.346 0-29.4 12.064-40.31 32.078-13.77 25.25-22.53 63.163-22.53 105.568 0 39.682 7.732 75.285 19.998 100.404h91.43c-12.25-25.12-19.95-60.75-19.95-100.404z" fill="#ebf0f3"/></svg>