<svg xmlns="http://www.w3.org/2000/svg" viewBox="0 0 512.003 512.003"><path d="M240.838 60.632c-107.9 0-195.368 87.47-195.368 195.368s87.47 195.368 195.368 195.368S436.206 363.898 436.206 256c0-107.9-87.47-195.368-195.368-195.368zm0 315.71c-66.463 0-120.343-53.878-120.343-120.342s53.88-120.343 120.343-120.343S361.18 189.537 361.18 256 307.3 376.343 240.84 376.343z" fill="#a2d2dd"/><path fill="#9aa8b2" d="M41.01 390.478V496.84h325.053l26.213-43.116-15.626-26.442"/><path d="M355.436 44.13C321.35 25.654 282.322 15.16 240.832 15.16 107.826 15.162 0 122.988 0 256.006c0 133.006 107.826 240.832 240.832 240.832 21.623 0 42.585-2.848 62.512-8.197 22.356-5.984 43.426-15.12 62.717-26.885l107.766-144.57c5.12-19.53 7.848-40.047 7.848-61.177.002-91.53-51.056-171.133-126.238-211.88zm26.828 273.054l-34.04 49.28c-22.656 22.032-52.067 37.152-84.832 41.96a155.137 155.137 0 0 1-22.56 1.634c-85.085 0-154.053-68.967-154.053-154.052s68.967-154.064 154.05-154.064c30.914 0 59.69 9.1 83.812 24.772 42.284 27.464 70.253 75.11 70.253 129.292 0 21.743-4.495 42.43-12.63 61.178z" fill="#afe0ef"/><path d="M481.676 256.006c0 21.13-2.728 41.647-7.848 61.178L366.06 461.754a239.196 239.196 0 0 1-62.716 26.885c14.447-50.097-39.952-80.218-39.952-80.218 32.765-4.808 62.176-19.928 84.833-41.96l34.04-49.28c8.136-18.75 12.63-39.436 12.63-61.178 0-54.184-27.968-101.828-70.252-129.292 62.176-20.517 30.793-82.585 30.793-82.585 75.182 40.748 126.24 120.352 126.24 211.88z" fill="#e6f7fc"/><g fill="#b5c0c9"><path d="M189.817 317.182h322.186v49.278H189.817z"/><path d="M366.06 366.46h145.943v130.373H366.06z"/></g><path d="M486.027 366.463c-54.087 0-119.953 58.57-119.965 113.703V366.463h119.965z" fill="#9aa8b2"/></svg>