<svg xmlns="http://www.w3.org/2000/svg" viewBox="0 0 384.962 384.962"><path d="M277.734 49.403c0-10.063-8.158-18.22-18.222-18.22h-125.18c-10.064 0-18.222 8.156-18.222 18.22v49.03h161.624v-49.03zm-58.732 21.074a5.63 5.63 0 0 1-5.63 5.63h-8.938v8.937a5.63 5.63 0 0 1-5.63 5.63H195.04a5.632 5.632 0 0 1-5.632-5.63v-8.938h-8.938a5.63 5.63 0 0 1-5.628-5.63v-3.765a5.63 5.63 0 0 1 5.628-5.63h8.938v-8.937a5.63 5.63 0 0 1 5.632-5.63H198.805a5.63 5.63 0 0 1 5.63 5.63v8.938h8.937a5.63 5.63 0 0 1 5.63 5.63v3.767z" fill="#e0dcd3"/><path d="M213.372 61.082h-8.938v-8.938a5.63 5.63 0 0 0-5.63-5.63H195.04a5.632 5.632 0 0 0-5.632 5.63v8.938h-8.938a5.63 5.63 0 0 0-5.628 5.63v3.766a5.63 5.63 0 0 0 5.628 5.63h8.938v8.937a5.63 5.63 0 0 0 5.632 5.63H198.805a5.63 5.63 0 0 0 5.63-5.63v-8.938h8.937a5.63 5.63 0 0 0 5.63-5.63v-3.765a5.63 5.63 0 0 0-5.63-5.63zM366.74 98.432H18.22C8.16 98.432 0 106.59 0 116.652V335.56c0 10.062 8.158 18.22 18.22 18.22h348.52c10.063 0 18.222-8.157 18.222-18.22V116.652c0-10.063-8.16-18.22-18.222-18.22zm-14.625 44.136c7.883 0 14.273 6.39 14.273 14.272 0 7.883-6.39 14.272-14.273 14.272s-14.272-6.39-14.272-14.272c0-7.88 6.39-14.272 14.272-14.272zm0 43.426c7.883 0 14.273 6.39 14.273 14.273 0 7.882-6.39 14.27-14.273 14.27s-14.272-6.39-14.272-14.27c0-7.883 6.39-14.273 14.272-14.273zm-42.363-43.426c7.882 0 14.272 6.39 14.272 14.272 0 7.883-6.39 14.272-14.272 14.272-7.883 0-14.273-6.39-14.273-14.272-.002-7.88 6.39-14.272 14.272-14.272zm0 43.426c7.882 0 14.272 6.39 14.272 14.273 0 7.882-6.39 14.27-14.272 14.27-7.883 0-14.273-6.39-14.273-14.27-.002-7.883 6.39-14.273 14.272-14.273zm-35.214 62.334v59.666c0 7.53-6.104 13.633-13.633 13.633H46.62c-7.528 0-13.633-6.104-13.633-13.633V144.216c0-7.53 6.104-13.63 13.633-13.63h214.285c7.53 0 13.633 6.1 13.633 13.63V248.328zm79.704 73.3H306.26c-6.037 0-10.932-4.896-10.932-10.934s4.895-10.933 10.932-10.933h47.982c6.038 0 10.933 4.896 10.933 10.934s-4.895 10.933-10.933 10.933zm1.062-30.977h-47.982c-6.037 0-10.933-4.894-10.933-10.932 0-6.04 4.895-10.933 10.932-10.933h47.982c6.038 0 10.933 4.894 10.933 10.933s-4.894 10.933-10.933 10.933zm1.063-30.975h-47.982c-6.037 0-10.933-4.895-10.933-10.933s4.896-10.933 10.933-10.933h47.982c6.038 0 10.933 4.894 10.933 10.932s-4.895 10.933-10.933 10.933z" fill="#e74424"/><path fill="#f7f1e6" d="M149.45 269.21l4.253-20.834h-5.533zM78.932 205.942a3.058 3.058 0 0 1 3.157-2.075 3.063 3.063 0 0 1 2.772 2.563l5.797 35.616 9.947.008 8.567-35.844c.335-1.397 1.628-2.356 3.03-2.353a3.064 3.064 0 0 1 2.954 2.442l7.42 35.77 2.942.003 12.115-66.6a3.048 3.048 0 0 1 3.197-2.512 3.065 3.065 0 0 1 2.88 2.873l4.07 66.258 7.2.007 5.616-27.514a3.042 3.042 0 0 1 3.133-2.45 3.067 3.067 0 0 1 2.917 2.705l3.2 27.27 3.232.004 12.777-66.44c.292-1.518 1.67-2.59 3.205-2.48a3.064 3.064 0 0 1 2.865 2.864l4.193 66.075 6.02.006 3.72-19.098a3.065 3.065 0 0 1 2.917-2.48 3.044 3.044 0 0 1 3.062 2.298l4.988 19.292 3.754.003 2.793-11.076a3.065 3.065 0 0 1 2.678-2.302 3.056 3.056 0 0 1 3.07 1.747l5.473 11.642 39.938.033v-97.98c0-7.528-6.104-13.63-13.633-13.63H46.622c-7.528 0-13.633 6.102-13.633 13.63v97.782l33.767.027 12.178-36.082zM124.147 249.634l.23-1.258h-.49zM94.69 266.81l4.406-18.434H91.69zM218.734 249.5l.283-1.124h-.573zM171.076 252.547l.802-4.17h-1.29zM197.605 265.454l3.326-17.078h-4.41z"/><path fill="#f7f1e6" d="M80.795 219.6l-7.572 22.43 11.223.01zM139.143 201.452l-7.39 40.627 9.886.007zM162.787 234.532l-1.546 7.57 2.436.003zM267.843 248.376H225.34l-3.597 14.263a3.065 3.065 0 0 1-2.962 2.315h-.01a3.066 3.066 0 0 1-2.967-2.298l-3.694-14.28h-4.933l-8.113 41.657a3.052 3.052 0 0 1-3.206 2.474 3.065 3.065 0 0 1-2.862-2.865l-2.62-41.267h-12.255l-4.768 24.797a3.037 3.037 0 0 1-3.123 2.485 3.07 3.07 0 0 1-2.935-2.707l-2.885-24.574h-4.45l-9.146 44.798a3.065 3.065 0 0 1-3.218 2.446 3.067 3.067 0 0 1-2.847-2.87l-2.727-44.374h-11.42l-3.247 17.855a3.068 3.068 0 0 1-2.98 2.52h-.037a3.065 3.065 0 0 1-3.002-2.444l-3.72-17.93H105.4l-8.3 34.725c-.34 1.42-1.653 2.38-3.096 2.353a3.066 3.066 0 0 1-2.914-2.57l-5.615-34.506h-52.49v59.618c0 7.53 6.104 13.633 13.633 13.633h214.29c7.528 0 13.632-6.104 13.632-13.633V248.33h-6.643l-.052.046zM209.297 237.5l-.905 4.64 2.106.003zM187.337 200.466l-8.01 41.652 10.654.01zM227.227 240.893l-.318 1.264h.912zM111.945 220.998l-5.034 21.06 9.404.008z"/><path fill="#1b2327" d="M274.446 242.04l-241.46-.042v6.378h241.49z"/><path fill="none" d="M32.987 241.998l33.734.123"/><path fill="#1b2327" d="M234.616 242.196h39.922l-39.938-.033z"/><path d="M234.6 242.033l-5.474-11.513a3.057 3.057 0 0 0-3.07-1.747 3.066 3.066 0 0 0-2.677 2.302l-2.794 11.077-1.57 6.224-.282 1.123-.29-1.124-1.61-6.227-4.99-19.293a3.043 3.043 0 0 0-3.062-2.297 3.064 3.064 0 0 0-2.916 2.48l-3.72 19.097-1.215 6.24-3.325 17.077-1.084-17.078-.395-6.244-4.193-66.075a3.064 3.064 0 0 0-2.865-2.865c-1.536-.11-2.913.964-3.205 2.48l-12.778 66.44-1.205 6.264-.803 4.17-.49-4.17-.734-6.266-3.2-27.27a3.067 3.067 0 0 0-2.917-2.706 3.044 3.044 0 0 0-3.133 2.45l-5.616 27.514-1.282 6.277-4.253 20.835-1.28-20.835-.386-6.283-4.07-66.258a3.065 3.065 0 0 0-2.88-2.872 3.046 3.046 0 0 0-3.196 2.51l-12.115 66.602-1.146 6.302-.23 1.26-.26-1.26-1.31-6.305-7.418-35.77a3.065 3.065 0 0 0-2.955-2.442c-1.4-.004-2.694.955-3.03 2.353l-8.566 35.845-1.51 6.322-4.407 18.435-3-18.435-1.03-6.33-5.797-35.616a3.065 3.065 0 0 0-5.93-.487l-12.18 36.083L32.99 242v6.377h35.738c1.315 0 2.682-.962 3.103-2.21l1.397-4.135 7.57-22.43 3.652 22.438 1.03 6.336 5.615 34.505a3.065 3.065 0 0 0 2.914 2.572c1.44.028 2.754-.932 3.094-2.352l8.3-34.725 1.51-6.317 5.034-21.06 4.37 21.067 1.308 6.31 3.72 17.93a3.064 3.064 0 0 0 3 2.443h.038a3.067 3.067 0 0 0 2.98-2.518l3.247-17.855 1.147-6.297 7.39-40.627 2.497 40.636.387 6.29 2.727 44.372a3.067 3.067 0 0 0 6.065.425l9.145-44.798 1.28-6.272 1.546-7.57.89 7.572.735 6.27 2.885 24.576a3.07 3.07 0 0 0 2.934 2.708c1.558.05 2.837-1 3.123-2.485l4.77-24.797 1.203-6.258 8.01-41.652 2.646 41.66.395 6.25 2.62 41.267a3.065 3.065 0 0 0 2.86 2.865 3.052 3.052 0 0 0 3.207-2.474l8.113-41.658 1.214-6.234.903-4.643 1.2 4.644 1.613 6.232 3.694 14.28a3.065 3.065 0 0 0 2.968 2.3h.01a3.066 3.066 0 0 0 2.962-2.317l3.597-14.264 1.568-6.22.318-1.263.595 1.265 2.072 4.408a3.065 3.065 0 0 0 2.774 1.762H274.545v-6.33l-39.944.035z" fill="#2b3237"/><circle cx="309.752" cy="156.841" r="14.272" fill="#f7f1e6"/><circle cx="352.115" cy="156.841" r="14.272" fill="#f7f1e6"/><circle cx="309.752" cy="200.266" r="14.272" fill="#f7f1e6"/><circle cx="352.115" cy="200.266" r="14.272" fill="#f7f1e6"/><path d="M356.367 237.81h-47.982c-6.037 0-10.933 4.895-10.933 10.933s4.896 10.933 10.933 10.933h47.982c6.038 0 10.933-4.895 10.933-10.933s-4.895-10.933-10.933-10.933zM355.304 268.786h-47.982c-6.037 0-10.933 4.894-10.933 10.933 0 6.037 4.895 10.932 10.932 10.932h47.982c6.038 0 10.933-4.895 10.933-10.933 0-6.04-4.894-10.934-10.933-10.934zM354.242 299.76H306.26c-6.037 0-10.932 4.896-10.932 10.934s4.895 10.933 10.932 10.933h47.982c6.038 0 10.933-4.895 10.933-10.933s-4.895-10.933-10.933-10.933z" fill="#1b2327"/></svg>