<svg xmlns="http://www.w3.org/2000/svg" viewBox="0 0 512 512"><path d="M256 0l-33.758 256L256 512c141.385 0 256-114.615 256-256S397.385 0 256 0z" fill="#ea5a20"/><path d="M0 256c0 141.385 114.615 256 256 256V0C114.615 0 0 114.615 0 256z" fill="#f77a20"/><path d="M256 478.242c-122.545 0-222.242-99.697-222.242-222.242S133.455 33.758 256 33.758 478.242 133.455 478.242 256 378.545 478.242 256 478.242z" fill="#FFF"/><path d="M256 33.758v444.484c122.545 0 222.242-99.697 222.242-222.242S378.545 33.758 256 33.758z" fill="#a3dde9"/><path d="M256 33.758C133.455 33.758 33.758 133.455 33.758 256S133.455 478.242 256 478.242c103.93 0 188.484-99.697 188.484-222.242S359.93 33.758 256 33.758z" fill="#c4f5ff"/><path d="M256 81.02c-96.484 0-174.98 78.496-174.98 174.98 0 30.734 8.12 60.984 23.488 87.504.433.743 4.464 7.125 12.557 2.456l23.29-13.446a8.44 8.44 0 0 0-8.44-14.617l-16.84 9.724c-9.986-19.595-15.758-41.154-16.94-63.18h19.457a8.44 8.44 0 0 0 8.44-8.44 8.44 8.44 0 0 0-8.44-8.44H98.125a156.965 156.965 0 0 1 16.95-63.18l16.84 9.723a8.437 8.437 0 0 0 11.53-3.09 8.44 8.44 0 0 0-3.09-11.527l-16.812-9.705a159.343 159.343 0 0 1 46.238-46.237l9.706 16.81a8.437 8.437 0 0 0 11.53 3.09 8.44 8.44 0 0 0 3.088-11.53l-9.724-16.84a156.97 156.97 0 0 1 63.18-16.95v19.467a8.44 8.44 0 0 0 8.44 8.44 8.44 8.44 0 0 0 8.44-8.44V98.125a156.956 156.956 0 0 1 63.18 16.95l-9.723 16.84a8.44 8.44 0 0 0 14.618 8.44l9.706-16.81a159.355 159.355 0 0 1 46.24 46.237l-16.813 9.705a8.44 8.44 0 0 0 8.44 14.617l16.84-9.723a156.972 156.972 0 0 1 16.95 63.18h-19.464a8.44 8.44 0 0 0-8.44 8.44 8.44 8.44 0 0 0 8.44 8.44h19.456c-1.18 22.013-6.946 43.575-16.918 63.192l-16.86-9.735a8.438 8.438 0 0 0-11.53 3.09 8.44 8.44 0 0 0 3.09 11.527l24.363 14.066a8.437 8.437 0 0 0 11.526-3.085c15.332-26.535 23.44-56.79 23.44-87.495 0-96.484-78.496-174.98-174.98-174.98z" fill="#82c8db"/><g fill="#06384a"><path d="M246.154 251.94l-85.004 49.077a8.44 8.44 0 0 0 8.44 14.617l85.004-49.077-8.44-14.617zM299.853 230.68a50.333 50.333 0 0 0-19.196-18.896l-16.44 29.48 8.654 14.988 33.75.503a50.33 50.33 0 0 0-6.767-26.074z"/></g><g fill="#419ebe"><path d="M285.423 430.98h-58.845a8.44 8.44 0 0 1 0-16.88h58.845a8.44 8.44 0 0 1 0 16.88zM274.17 397.222h-36.34a8.44 8.44 0 0 1 0-16.88h36.34a8.44 8.44 0 0 1 0 16.88z"/></g><path d="M254.875 275.692c-10.86 0-19.692-8.833-19.692-19.692 0-10.86 8.833-19.692 19.692-19.692s19.692 8.833 19.692 19.692c0 10.86-8.833 19.692-19.692 19.692z" fill="#ea5a20"/></svg>