<svg xmlns="http://www.w3.org/2000/svg" viewBox="0 0 512.001 512.001"><path d="M452.228 414.233c15.367-29.58-4.458-51.074-4.458-51.074 23.61-35.01-7.328-62.643-7.328-62.643 9.77-56.13-30.125-79.287-30.125-79.287-1.628-38.528-33.382-53.93-33.382-53.93s20.354-38.628 0-71.196c-20.354-32.567-56.18-31.496-56.18-31.496S306.1-1.6 258.88.03s-65.95 68.795-65.95 68.795c-53.736 21.573-31.754 81.016-46.41 98.476-14.654 17.462-9.77 41.977-9.77 41.977-29.31 19.54-18.727 56.586-18.727 56.586-50.48 22.39-36.64 77.632-36.64 77.632-36.638 20.232-25.24 68.515-25.24 68.515s15.567 40.274 74.84 46.86c0 0 17.563 24.147 47.565 16.83 0 0 24.873 40.98 89.638 35.856 0 0 53.788 1.463 83.06-37.32 0 0 35.124 4.54 51.954-27 0 0 32.05-.323 49.028-33.003z" fill="#aa8b65"/><g fill="#836948"><path d="M196.596 212.933a8.233 8.233 0 0 1-8.053-9.975c4.614-21.313 19.37-29.714 31.18-32.114-.578-24.783 16.826-36.618 27.152-39.53a8.232 8.232 0 0 1 4.533 15.83c-1.987.607-18.73 6.45-14.55 29.74a8.23 8.23 0 0 1-8.678 9.666c-1.876-.092-19.147-.412-23.544 19.89a8.238 8.238 0 0 1-8.04 6.493zM342.745 318.47a8.23 8.23 0 0 1-8.232-8.525c.238-6.707-1.34-11.922-4.69-15.5-5.256-5.608-13.648-6.102-13.73-6.104a8.233 8.233 0 0 1-7.813-9.92c4.6-21.872-12.59-30.61-14.566-31.533-4.148-1.864-5.97-6.725-4.105-10.872 1.863-4.15 6.767-5.984 10.91-4.12 9.74 4.378 26 18.274 24.956 41.52 4.995 1.453 11.212 4.278 16.36 9.774 6.46 6.893 9.53 16.09 9.13 27.34a8.234 8.234 0 0 1-8.22 7.94zM175.03 346.617a8.233 8.233 0 0 1-8.026-6.435c-5.444-24.31 8.633-38.174 19.858-43.764 5.297-25.44 26.698-30.052 27.66-30.246l3.255 16.14.11-.023c-1.376.317-13.485 3.61-15.448 20.9a8.23 8.23 0 0 1-5.715 6.926c.002 0-4.948 1.68-9.02 5.894-5.05 5.223-6.567 11.953-4.636 20.575a8.232 8.232 0 0 1-8.04 10.032z"/><circle cx="121.444" cy="394.517" r="13.294"/><circle cx="329.992" cy="131.079" r="13.294"/><path d="M216.156 107.596a8.232 8.232 0 0 1-8.002-10.194c10.525-42.935 49.206-50.596 50.848-50.9 4.46-.836 8.768 2.118 9.598 6.588a8.234 8.234 0 0 1-6.553 9.592c-1.29.255-29.97 6.29-37.9 38.64a8.237 8.237 0 0 1-7.99 6.274zM262.074 458.11c-5.48 0-10.743-.852-15.768-2.558-14.942-5.074-23.352-16.4-26.826-22.198-34.462-11.56-40.2-47.26-40.433-48.82a8.232 8.232 0 0 1 16.28-2.47c.194 1.23 4.928 29.08 31.943 36.456a8.236 8.236 0 0 1 5.353 4.593c.036.078 5.894 12.503 19.164 16.912 10.573 3.512 23.358 1.26 38.008-6.694a8.23 8.23 0 0 1 11.163 3.31 8.23 8.23 0 0 1-3.308 11.16c-12.65 6.866-24.555 10.31-35.576 10.31zM339.54 419.54a8.23 8.23 0 0 1-7.58-5.02 8.23 8.23 0 0 1 4.287-10.76c1.08-.493 22.533-10.803 20.68-48.437a8.233 8.233 0 0 1 7.818-8.627 8.218 8.218 0 0 1 8.628 7.818c2.45 49.764-29.27 63.8-30.62 64.372a8.237 8.237 0 0 1-3.213.655z"/></g><path d="M447.236 363.16c23.61-35.01-7.328-62.643-7.328-62.643 9.77-56.13-30.125-79.287-30.125-79.287-.318-7.54-1.8-14.18-3.963-20.007 3.504 11.103 4.976 24.85 2.078 41.498 0 0 30.94 27.634 7.328 62.643 0 0 19.825 21.495 4.458 51.074-16.98 32.68-49.028 33.004-49.028 33.004-16.83 31.54-51.955 27-51.955 27-29.27 38.785-83.058 37.322-83.058 37.322-64.765 5.123-89.638-35.857-89.638-35.857-30.003 7.317-47.566-16.83-47.566-16.83-18.812-2.09-33.217-7.576-44.123-14.09-1.34 13.85 1.294 25.025 1.294 25.025s15.565 40.274 74.838 46.86c0 0 17.562 24.147 47.565 16.83 0 0 24.873 40.98 89.638 35.857 0 0 53.79 1.463 83.06-37.32 0 0 35.125 4.54 51.955-27 0 0 32.05-.325 49.028-33.005 15.367-29.578-4.457-51.073-4.457-51.073z" fill="#663a00" opacity=".16"/></svg>