<svg xmlns="http://www.w3.org/2000/svg" width="512" height="512" viewBox="0 0 304.225 304.225">
  <path d="M.123 129.398c-.122 5.14 1.755 7.164 3.262 8.792.481.526.901.976 1.219 1.509.709 1.193 1.214 2.675 1.5 4.407 6.211 37.65 7.609 42.782 23.369 51.083 7.544 3.977 23.056 6.644 38.595 6.644 12.117 0 29.619-1.595 44.174-9.187 21.205-11.065 29.106-49.259 29.477-51.181.021-.194.647-4.751 10.335-4.751h.01l.593-.005c9.19 0 9.823 4.562 9.89 5.054.326 1.624 8.229 39.812 29.433 50.883 14.556 7.597 32.058 9.187 44.175 9.187 15.539 0 31.048-2.673 38.593-6.644 15.762-8.301 17.16-13.438 23.368-51.088.285-1.727.793-3.208 1.502-4.406.316-.533.735-.984 1.217-1.51 1.507-1.628 3.387-3.658 3.263-8.792-.021-.86.016-2.39.052-4.067.062-2.561.119-5.445.031-6.999-.445-7.615-7.183-10.716-10.574-11.268-21.681-4.453-47.711-5.743-75.191-3.77l-1.435.102c-16.762 1.186-25.994 1.838-36.997 6.765a161.493 161.493 0 0 0-7.504 3.633c-4.137 2.131-10.112 4.443-13.323 5.147-1.292.288-2.602.57-3.762.803-1.67.339-4.901.339-6.571 0a238 238 0 0 1-3.765-.803c-3.203-.704-9.178-3.016-13.318-5.147-2.323-1.193-4.948-2.488-7.503-3.633-11.003-4.927-20.233-5.579-36.995-6.765l-1.437-.102c-27.488-1.967-53.555-.673-75.083 3.754-3.493.572-10.227 3.674-10.672 11.289-.096 1.553-.033 4.438.026 6.998.03 1.683.066 3.216.046 4.068zm297.733-9.355v5.634l-7.017-2.816 7.017-2.818zm-121.674 8.083c1.062-2.636 7.746-11.417 49.213-13.831 7.27-.422 13.437-.629 18.854-.629 24.451 0 32.233 4.396 36.862 11.485 2.771 4.241 4.655 13.113 4.676 18.737.052 12.282-2.418 34.113-19.448 42.367-7.804 3.78-19.506 6.038-31.297 6.038-22.634 0-40.726-7.695-48.385-20.578-16.115-27.068-10.673-43.138-10.475-43.589zm-153.084-2.979c4.635-7.092 12.415-11.485 36.863-11.485 5.419 0 11.586.207 18.856.629 41.458 2.418 48.149 11.2 49.337 14.142.064.145 5.509 16.221-10.589 43.284-7.667 12.883-25.753 20.578-48.384 20.578-11.796 0-23.499-2.258-31.305-6.038-17.031-8.254-19.498-30.085-19.449-42.367.021-5.632 1.903-14.502 4.671-18.743zm-16.749-5.104l7.014 2.817-7.014 2.816v-5.633z" fill="#dc4c39"/>
</svg>
