<svg xmlns="http://www.w3.org/2000/svg" width="512" height="512" viewBox="0 0 94 94">
  <g fill="#FFF">
    <path d="M64.748 32.155h8.781a3.507 3.507 0 0 0 3.496-3.498v-8.371a3.506 3.506 0 0 0-3.496-3.498h-8.781a3.507 3.507 0 0 0-3.497 3.498v8.371a3.507 3.507 0 0 0 3.497 3.498z"/>
    <ellipse cx="47.074" cy="46.831" rx="15.602" ry="15.117"/>
    <path d="M89 0H5a5 5 0 0 0-5 5v84a5 5 0 0 0 5 5h84a5 5 0 0 0 5-5V5a5 5 0 0 0-5-5zm-3.157 75.872c0 5.911-4.487 9.971-9.971 9.971H18.128c-5.484 0-9.971-4.06-9.971-9.971V18.128c0-5.911 4.486-9.971 9.971-9.971h57.744c5.483 0 9.971 4.06 9.971 9.971v57.744z"/>
    <path d="M71.221 47.676c0 12.922-10.812 23.396-24.146 23.396-13.336 0-24.147-10.475-24.147-23.396 0-2.316.35-4.553.997-6.666h-7.136v32.815a3.098 3.098 0 0 0 3.089 3.088h54.099a3.098 3.098 0 0 0 3.088-3.088V41.01h-6.838a22.82 22.82 0 0 1 .994 6.666z"/>
  </g>
</svg>
