<svg xmlns="http://www.w3.org/2000/svg" viewBox="0 0 512 512">
  <circle cx="256" cy="256" r="256" fill="#324a5e"/>
  <path d="M508.114 300.639L369.778 162.302c0 .44-147.968 145.415-147.968 145.415s-77.903 90.257-78.152 90.505l113.759 113.761c125.525-.683 229.655-91.693 250.697-211.344z" fill="#2b3b4e"/>
  <path fill="#fff" d="M321.253 113.778H143.658v284.444h226.12v-235.92z"/>
  <path fill="#e6f3ff" d="M369.778 162.302l-48.525-48.524h-58.357v284.444h106.882z"/>
  <path d="M321.253 162.304l48.525-.002-48.525-48.524zm-150.586 65.252h91.574v113.778h-91.574z" fill="#cfdbe6"/>
  <path d="M271.963 227.556h30.525v113.778h-30.525zm38.84 0h30.525v113.778h-30.525z" fill="#b8c9d9"/>
  <path fill="#fd8469" d="M170.667 204.283h91.574v17.239h-91.574z"/>
  <path d="M271.963 204.283h30.525v17.239h-30.525zm38.84 0h30.525v17.239h-30.525z" fill="#fc6f58"/>
</svg>
