<svg xmlns="http://www.w3.org/2000/svg" width="512" height="512" viewBox="0 0 32.027 32.027">
  <path d="M16.307 16.734a.993.993 0 0 1-.293-.707c0-.27.104-.52.291-.705l8.537-8.494A3.975 3.975 0 0 0 26.014 4a3.976 3.976 0 0 0-1.172-2.828C24.086.416 23.082 0 22.014 0s-2.072.416-2.816 1.16L7.479 12.492a4.967 4.967 0 0 0-1.465 3.535c0 1.336.521 2.592 1.479 3.551l10.083 9.671 1.606 1.606c.756.756 1.761 1.172 2.828 1.172s2.073-.416 2.828-1.172c.756-.756 1.172-1.761 1.172-2.828s-.416-2.072-1.174-2.832l-8.529-8.461zm7.121 12.707c-.756.756-2.074.756-2.83 0L8.893 18.148a2.978 2.978 0 0 1-.879-2.121c0-.802.312-1.555.867-2.109L20.599 2.586A1.984 1.984 0 0 1 22.014 2a1.99 1.99 0 0 1 1.414.586c.377.378.586.88.586 1.414s-.209 1.036-.584 1.412l-8.537 8.494a2.98 2.98 0 0 0-.879 2.121c0 .801.312 1.555.882 2.123l8.532 8.463c.377.378.586.881.586 1.414a1.99 1.99 0 0 1-.586 1.414z" fill="#3e617a"/>
</svg>
