<svg width="400" height="400" xmlns="http://www.w3.org/2000/svg">
  <path fill="none" d="M-1-1h402v402H-1z"/>
  <path fill-rule="evenodd" fill="#fff" d="M187.9 9.922c-1.547.165-7.674 1.168-10.1 1.654-4.813.963-6.449 1.335-9 2.049-14.418 4.035-24.322 8.245-36.3 15.432-2.518 1.511-9.922 6.604-11.231 7.725-.127.109-.937.731-1.8 1.381-1.428 1.077-3.61 2.937-7.039 6.002-4.666 4.171-11.162 11.116-15.219 16.272-3.133 3.983-3.428 4.391-5.823 8.066-2.441 3.743-2.181 3.32-3.983 6.497a165.356 165.356 0 0 1-1.61 2.8c-.188.293-4.347 8.71-4.892 9.9-.616 1.345-2.103 4.886-2.103 5.009 0 .072-.131.414-.291.761-.36.778-.613 1.494-2.133 6.03-1.407 4.199-1.935 5.983-2.663 9-.291 1.21-.658 2.695-.815 3.3-.822 3.178-1.638 8.336-2.404 15.2-.477 4.272-.632 14.049-.293 18.5.602 7.916 1.775 14.728 3.874 22.5.437 1.619 2.257 6.862 2.812 8.1.148.33.335.825.415 1.1.081.275.214.59.296.7.083.11.263.56.402 1 .139.44.319.89.401 1 .081.11.619 1.28 1.194 2.6 1.005 2.305 1.831 4.064 2.208 4.7.098.165.639 1.245 1.202 2.4.564 1.155 1.108 2.235 1.21 2.4.102.165.277.525.39.8.112.275.417.86.678 1.3.26.44.801 1.43 1.201 2.2.401.77.942 1.76 1.202 2.2.26.44.669 1.18.909 1.644.239.465.632 1.14.872 1.5.24.361.55.881.689 1.156.138.275.453.831.698 1.235.245.405.971 1.62 1.613 2.7a186.767 186.767 0 0 0 2.048 3.365c.484.77.943 1.535 1.019 1.7.077.165.291.525.476.8.475.704 2.385 3.69 3.2 5 .376.605.754 1.19.839 1.3.434.559 3.613 5.441 3.712 5.7.063.165.412.727.777 1.248.364.521.662.997.662 1.058 0 .061.168.354.373.652.65.943 1.91 2.921 2.224 3.49.263.476.755 1.306 3.148 5.307.245.41.538.925.65 1.145.112.22.469.85.793 1.4.323.55.729 1.27.901 1.6.172.33.713 1.32 1.202 2.2.489.88 1.873 3.58 3.075 6 2.067 4.159 2.446 4.956 3.449 7.25.229.522.544 1.189.7 1.481.157.292.285.638.285.77 0 .131.129.522.286.869.157.346.521 1.26.809 2.03 1.954 5.232 2.877 8.287 4.015 13.3.997 4.387 1.143 5.11 1.413 7 .914 6.4.96 6.622 1.452 7.02.748.606 144.897.499 145.341-.108.156-.214.286-.844.288-1.4.002-.557.095-1.597.207-2.312.112-.715.331-2.47.488-3.9.537-4.896 2.317-12.46 4.001-17 .285-.77.615-1.67.732-2 .364-1.025 2.01-5.17 2.181-5.493.316-.598 1.187-2.584 1.187-2.708 0-.163 4.933-10.073 5.163-10.371.097-.125.387-.633.645-1.128.258-.495 1.284-2.324 2.28-4.064 1.916-3.346 2.144-3.737 3.412-5.854 2.326-3.883 3.107-5.166 3.706-6.082.323-.495.656-1.037.741-1.204.084-.167.478-.797.875-1.4.732-1.109 3.06-4.701 4.754-7.332a188.03 188.03 0 0 0 1.703-2.7c.429-.695 1.093-1.759 1.476-2.364l1.139-1.8.822-1.3c.451-.713.558-.891 1.535-2.535.413-.696.953-1.596 1.2-2.001.658-1.078 4.352-7.514 4.915-8.564a538.3 538.3 0 0 0 1.486-2.8c.551-1.045 1.07-1.99 1.154-2.1.221-.292 2.194-4.205 2.194-4.352 0-.069.365-.917.812-1.886.752-1.632.991-2.157 1.849-4.062 1.441-3.201 3.738-9.849 4.724-13.673.525-2.038.74-3.023 1.703-7.827.176-.88.459-2.905.629-4.5.17-1.595.401-3.755.514-4.8.268-2.477.267-18.544-.002-21a1396.48 1396.48 0 0 1-.511-4.8c-.676-6.466-2.204-14.135-4.064-20.4a287.19 287.19 0 0 1-.758-2.6c-.392-1.394-1.086-3.434-1.406-4.13-.16-.347-.29-.722-.29-.834 0-.971-5.991-14.383-6.895-15.436-.142-.165-.324-.525-.405-.8-.081-.275-.259-.635-.396-.8-.238-.289-1.237-2.052-1.869-3.3-.167-.33-.366-.645-.441-.7-.076-.055-.308-.404-.516-.776-.771-1.379-3.064-4.864-4.885-7.424-1.327-1.866-1.435-2.008-3.55-4.691-2.343-2.972-3.173-3.989-3.743-4.588-.22-.232-.846-.961-1.391-1.621-2.607-3.158-10.371-10.703-15.109-14.681-.827-.695-5.72-4.474-6.641-5.13-.473-.337-1.201-.863-1.62-1.169-2.206-1.615-8.015-5.305-10.993-6.984-2.512-1.417-8.102-4.28-10.146-5.197-.605-.272-1.692-.768-2.415-1.104-1.346-.624-1.749-.791-5.385-2.225-2.437-.961-6.153-2.284-7.95-2.83l-2.6-.793c-4.088-1.25-10.699-2.819-13.378-3.175-.754-.1-2.047-.279-2.872-.399-1.33-.192-3.268-.353-12.2-1.013-2.494-.185-22.191-.417-23.5-.278m22.3 24.512c1.375.115 2.725.211 3 .214 5.355.061 16.052 2.218 23.6 4.761 3.097 1.043 4.157 1.42 7 2.494.385.146 1.285.53 2 .855.715.325 1.84.835 2.5 1.133 4.792 2.165 13.412 7.067 16.209 9.217.435.335 1.321.965 1.97 1.4 1.176.79 6.442 4.933 6.821 5.367.11.126.92.827 1.8 1.558 3.48 2.892 11.291 11.327 13.766 14.867.308.44.865 1.205 1.238 1.7.873 1.156 4.343 6.315 4.777 7.1.182.33.486.839.675 1.131.189.292.686 1.147 1.105 1.9.419.753.844 1.504.945 1.669.951 1.553 4.678 9.56 5.678 12.2 4.829 12.744 6.201 20.469 6.181 34.8-.017 12.248-.403 15.966-2.56 24.6-.151.605-.413 1.46-.581 1.9-.169.44-.313.98-.322 1.2-.009.22-.189.76-.402 1.2-.213.44-.389.91-.393 1.045-.004.134-.18.629-.392 1.1-.212.47-.764 1.755-1.227 2.855-.462 1.1-.959 2.225-1.103 2.5a36.53 36.53 0 0 0-.818 1.8 33.253 33.253 0 0 1-1.283 2.6c-.4.715-1.162 2.11-1.694 3.1-1.673 3.117-1.479 2.775-4.15 7.336-.858 1.465-1.824 3.069-2.146 3.564-.322.495-.68 1.08-.794 1.3-.114.22-.475.805-.801 1.3-.326.495-.656 1.035-.733 1.2-.078.165-.439.727-.804 1.248-.364.521-.662 1.002-.662 1.069 0 .067-.203.403-.45.748s-.54.783-.65.974c-.411.712-1.645 2.652-3.069 4.822-.808 1.232-1.618 2.498-1.8 2.815-.443.771-.603 1.027-1.481 2.374-1.228 1.882-2.045 3.191-2.638 4.226a37.939 37.939 0 0 1-.986 1.624c-.644.98-1.544 2.46-2.325 3.827a233.19 233.19 0 0 1-2.746 4.639 13.6 13.6 0 0 0-.658 1.216c-.116.265-.689 1.3-1.273 2.3-.583 1-1.21 2.111-1.392 2.468-.183.358-.473.898-.645 1.2-2.583 4.538-6.94 13.483-8.839 18.15-.984 2.417-1.292 3.264-2.367 6.5-.603 1.815-1.228 3.584-1.389 3.93-.161.347-.292.695-.292.775 0 .442-1.154 2.994-1.589 3.513-1.051 1.253-5.667 1.376-51.111 1.363-41.163-.012-50.048-.124-51.04-.645-1.331-.699-3.131-4.059-4.356-8.136a30.421 30.421 0 0 0-.706-2 36.748 36.748 0 0 1-.719-2 15.198 15.198 0 0 0-.582-1.53c-.164-.347-.297-.697-.297-.778 0-.082-.171-.518-.381-.97-.783-1.692-2.219-5.075-2.219-5.23 0-.088-.119-.303-.264-.476-.146-.174-.514-.901-.819-1.616-.913-2.142-3.618-7.484-4.09-8.076-.098-.123-.245-.449-.326-.724-.082-.275-.261-.635-.4-.8-.138-.165-.559-.885-.934-1.6-.599-1.139-3.953-7.028-5.067-8.897-1.964-3.294-2.203-3.686-3.15-5.162-.412-.643-.75-1.209-.75-1.258 0-.049-.711-1.19-1.579-2.536a1244.86 1244.86 0 0 1-2.474-3.847c-1.669-2.613-3.992-6.195-4.771-7.356-.427-.636-.776-1.225-.776-1.31 0-.084-.135-.328-.3-.543-.415-.541-1.19-1.729-1.363-2.091-.079-.165-.408-.705-.731-1.2-.52-.796-1.03-1.627-2.506-4.084a226.93 226.93 0 0 1-4.336-7.516 93.004 93.004 0 0 0-1.314-2.32c-.332-.56-.67-1.235-.751-1.5-.08-.264-.264-.615-.408-.78-.366-.421-2.633-5-2.796-5.649-.074-.294-.26-.639-.415-.767-.154-.128-.28-.325-.28-.437 0-.112-.17-.573-.379-1.025-4.062-8.815-6.525-18.635-6.726-26.822-.045-1.819-.045-13.186 0-15 .114-4.599 1.562-13.817 2.726-17.351.208-.633.379-1.28.379-1.437 0-.158.456-1.62 1.012-3.25.557-1.629 1.13-3.367 1.274-3.862.144-.495.403-1.215.577-1.6.173-.385.54-1.287.814-2.004.274-.717.639-1.572.81-1.9.171-.328.311-.672.312-.766 0-.093.369-.948.819-1.9 1.408-2.98 1.582-3.369 1.582-3.536 0-.089.126-.305.281-.478.154-.174.576-.901.936-1.616 1.478-2.929 5.805-9.965 7.271-11.822.226-.287.547-.727.712-.978 2.811-4.271 12.905-15.064 17.8-19.034 3.83-3.105 10.103-7.607 12.635-9.066 4.637-2.673 6.184-3.514 8.885-4.83 1.772-.864 3.572-1.723 4-1.911 1.772-.774 4.669-1.959 4.79-1.959.071 0 .413-.131.76-.291 1.603-.74 9.372-3.227 11.93-3.819.605-.139 1.46-.347 1.9-.46 8.724-2.254 21.908-3.129 33.1-2.196M141.493 82.25c-.053.138-.072 25.99-.044 57.45l.051 57.2 11.488.052c6.319.028 11.562-.022 11.651-.111.182-.182.234-114.362.052-114.655-.189-.307-23.082-.244-23.198.064m50.229.065c-.224.584-.14 113.878.085 114.298.204.38.832.387 37.305.387h37.098l.224-.55c.359-.878.701-15.84.381-16.614-.46-1.111.401-1.072-25.915-1.173-13.42-.052-24.467-.159-24.55-.238-.082-.079-.172-21.785-.2-48.235l-.05-48.09-12.128-.052c-10.93-.046-12.14-.02-12.25.267M130.55 299.807c-.575.35-.537 20.879.04 21.188.261.139 4.302.191 12.25.157l11.86-.052-.045-4.7c-.094-9.823-.344-15.508-.702-15.95-.144-.178-.996-.25-2.964-.25-1.52 0-2.971-.078-3.226-.173-.725-.271-16.792-.476-17.213-.22m63.325.243c-4.348 4.954-4.885 11.498-1.361 16.585 2.986 4.311 5.246 4.494 56.229 4.541 25.16.024 25.647.017 25.85-.363.285-.532.285-20.294 0-20.826-.204-.381-.866-.387-40.265-.387H194.27l-.395.45m-62.225 34.082c-.749.303 2.897 9.505 4.471 11.284.153.173.279.39.279.482 0 .389 2.483 4.398 3.681 5.943.23.297.824 1.093 1.319 1.768.495.676 1.143 1.355 1.44 1.51.458.238 5.635.281 34.023.281 38.099 0 34.239.194 34.727-1.742.132-.524.314-1.044.404-1.155 1.439-1.771 1.442-11.665.005-15.603-.2-.55-.47-1.338-.598-1.752-.128-.413-.4-.84-.604-.95-.379-.203-78.646-.268-79.147-.066m115.679.168c-.464.463-.506 19.981-.045 20.612.407.557 13.628.725 14.616.185.757-.412 4.218-5.56 6.21-9.235.927-1.709 1.158-2.115 1.398-2.462.114-.165.466-.885.78-1.6l.971-2.2c2.56-5.779 3.243-5.465-12.08-5.558-10.478-.064-11.552-.041-11.85.258m-87.594 37.032c-.321.321.071.795 3.815 4.616 5.472 5.584 7.732 7.48 12.35 10.362 1.557.973 6.21 3.349 8.5 4.342 4.639 2.012 5.816 2.285 11 2.546 12.874.649 20.475-.299 27.042-3.37.738-.346 1.395-.628 1.46-.628.23 0 4.416-2.458 6.024-3.537 3.614-2.425 6.387-4.784 11.056-9.409 4.084-4.044 4.152-4.218 1.712-4.382-6.556-.443-82.562-.937-82.959-.54"/>
</svg>
