<svg xmlns="http://www.w3.org/2000/svg" viewBox="0 0 505 505">
  <circle cx="252.5" cy="252.5" r="252.5" fill="#4cdbc4"/>
  <path d="M171.9 191.3c0-26.9-31.2-48.7-69.7-48.7s-69.7 21.8-69.7 48.7c0 24.1 24.9 44 57.7 48 12.9 24.3 38.1 39 62 37.3-19.3-8.6-28.8-23.7-31.1-38.4 29.3-5.8 50.8-24.6 50.8-46.9z" fill="#fff"/>
  <path d="M288.9 309.3c.1-1.2.1-2.4.1-3.7-.2-5.5 2.4-10 6.3-12.9-12.6-19.5-23.2-49.4-23.2-49.4h-40.6s-15.9 46.3-31.9 61l51.3 16.3v.8l1.2-.4 1.2.4v-.8l35.6-11.3z" fill="#f9b54c"/>
  <path d="M302.5 302l-50.6 4.3-46.8-4.6-2.6.3s-21.9 45.1-23.6 49.4c-1.7 4.3 17.2 85.3 17.2 90.9s72.9 37.3 72.9 37.3l47.2-77.6-13.7-100z" fill="#e6e9ee"/>
  <path fill="#f1543f" d="M260.2 334.1h-16.6l-11.1-27.8h38.7z"/>
  <path fill="#ff7058" d="M260.2 334.1h-16.6l-11.1 71.3 19.4 25.6 19.3-25.6z"/>
  <path d="M289.7 282.7s28.5 24.2-13.9 50.9L252 306.7l37.7-24zm-75.6 0s-28.5 24.2 13.9 50.9l23.8-26.9-37.7-24z" fill="#fff"/>
  <path d="M151.5 437.9c-2.6 11-5.7 25.6-8.4 42.2-20.7-9.9-39.8-22.6-56.8-37.6 4.9-38.7 14.4-78.6 31.3-116.3 0 0 0 .1.1.2l9.7 22.1c0 .2.1.4.2.5l29.6 67.5c-.1.1-2.5 8.1-5.7 21.4z" fill="#324a5e"/>
  <path d="M270 504.4a254.31 254.31 0 0 1-35.2 0c-27.2-1.9-53.1-8-77.2-17.8-1.4-17.5-3.6-33.7-6.2-48.6-6.8-39.7-16.6-69.9-23.9-88.8-.1-.2-.2-.4-.2-.5-5.1-13.1-9-20.7-9.7-22.1l-.1-.2c24.9-1.7 45-8.6 60-16.1 19.7-9.9 30.6-20.7 31.7-21.8l.1-.1-6.8 13.6-5.7 38.5 30 90.6 24.1 32.5 1.5 2 3.1 4.2 4.3 5.8 4.3 5.9c3.3 3.7 5.1 11.8 5.9 22.9z" fill="#2b3b4e"/>
  <path d="M209.3 288.4s-12.5 81.6 54.9 193.1c0 0-52.7-26.6-87.8-158l20.4-8.5-20.4-4 32.9-22.6z" fill="#324a5e"/>
  <path d="M418.7 442.6a254.24 254.24 0 0 1-56.8 37.5 598.3 598.3 0 0 0-8.4-42.1 472.1 472.1 0 0 0-5.6-21.4l29.8-68c0-.1 0-.2.1-.3l9.5-21.8.1-.2c16.9 37.7 26.5 77.6 31.3 116.3z" fill="#2b3b4e"/>
  <path d="M387.4 326.3s0 .1-.1.2c-.7 1.4-4.5 8.8-9.5 21.8-.1.1-.1.2-.1.3-7.3 18.9-17.3 49.3-24.2 89.4-2.6 14.9-4.7 31.1-6.2 48.6a251.45 251.45 0 0 1-94.8 18.4c-5.9 0-11.8-.2-17.6-.6.9-11 2.7-19.1 5.8-22.8l8-10.9.6-.7 3.1-4.2 1.5-2 24.1-32.5 29.7-89.8.3-.8-5.6-38.5-6.8-13.6.1.1c1.1 1.1 11.9 12 31.6 21.7 15 7.3 35.2 14.3 60.1 15.9z" fill="#324a5e"/>
  <path d="M295.7 288.4s12.5 81.6-54.9 193.1c0 0 52.7-26.6 87.8-158l-20.4-8.5 20.4-4-32.9-22.6z" fill="#2b3b4e"/>
  <path d="M315.1 199.6c-.8 9.8-4.3 17.7-7.9 17.7s-5.7-7.9-4.9-17.7c.8-9.8 4.3-17.7 7.9-17.7s5.7 7.9 4.9 17.7zm-125.2 0c.8 9.8 4.3 17.7 7.9 17.7s5.7-7.9 4.9-17.7-4.3-17.7-7.9-17.7-5.7 7.9-4.9 17.7z" fill="#f9b54c"/>
  <path d="M296.3 143.9c-3.3-7.2-10.7-11.8-18.9-11.8h-49c-8.2 0-15.6 4.6-18.9 11.8-7.9 17.3-9.5 47.4-9.6 67.8 0 13.5 5.2 26.6 14.7 36.7l7.7 8.1c7.1 7.5 16.2 13 26.3 15.9l4.3 1.2 4.3-1.2c10.2-2.9 19.3-8.4 26.3-15.9l7.7-8.1a53.38 53.38 0 0 0 14.7-36.7c-.1-20.4-1.7-50.5-9.6-67.8z" fill="#ffd05b"/>
  <path d="M312.1 126.9c-.9-2.9-2.1-5.7-2.9-8.5-.5-1.9-.9-4-1.9-5.7-2.1-3.8-6.7-5.8-11-5.4s-8.2 2.9-11.1 6c.7-4.1.8-8.5-1.2-12.1-2.3-4.1-6.9-6.4-11.5-7.2-4.6-.9-9.3-.6-13.9-1-5.1-.5-10.2-1.8-15.3-1.3-4.2.4-8 2.8-12.2 3.7-43.5 10-40.1 61.7-39.5 75.4.2 3.7.5 7.4 1.6 10.8 1.5 4.5 4.4 8.3 7.5 11.9.8-2.5.7-5.3 1.3-7.8.9-3.8 1.3-7.7 2.3-11.4 1-3.6 5.2-22.9 6.9-26.6 2.3-5.2 6.5-9.9 12-11.3 10.4-2.7 20.9 6.7 31.6 5 2-.3 3.9-1.1 5.9-1.7 2.2-.8 4.4-1.5 6.7-2.1 5-1.4 10.4-2.5 15.4-1.1 5.5 1.6 9.9 6 12.7 11.1 2.8 5.1 4.1 10.8 5.4 16.5.7 3.4 1.4 6.8 1.1 10.3 0 .3-.1.5-.1.8.2 2.8-.1 5.6.4 8.3.4 2.1 1.1 4.2 1.5 6.3l.6 2.9c3.7-6.8 6.3-14.2 7.7-21.9 1.1-6.2 1.4-12.5 1.7-18.8.3-8.5.6-17.1-1.7-25.1z" fill="#11110f"/>
</svg>
