<svg xmlns="http://www.w3.org/2000/svg" viewBox="0 0 294.84 294.84" width="512" height="512">
  <g fill="#FFF">
    <path d="M147.42 0C66.13 0 0 66.13 0 147.42a147.9 147.9 0 0 0 47.35 108.26 6 6 0 0 0 8.15-8.81A135.85 135.85 0 0 1 12 147.42C12 72.75 72.75 12 147.42 12s135.42 60.75 135.42 135.42-60.75 135.42-135.42 135.42a6 6 0 0 0 0 12c81.29 0 147.42-66.13 147.42-147.42S228.71 0 147.42 0z"/>
    <path d="M84.19 90.19h126.47a6 6 0 0 0 0-12H84.19a6 6 0 0 0 0 12zm0 63.23h126.47a6 6 0 0 0 0-12H84.19a6 6 0 0 0 0 12zm132.47 57.24a6 6 0 0 0-6-6H84.19a6 6 0 0 0 0 12h126.47a6 6 0 0 0 6-6z"/>
  </g>
</svg>
