<svg xmlns="http://www.w3.org/2000/svg" viewBox="0 0 490.3 490.3" width="512" height="512">
  <path d="M392.4 158.79L222.7 37.39a18.02 18.02 0 0 0-28.5 14.6v51.9c-77.4 7.5-132.5 38.5-164 92.3-27 46.4-30.2 99.8-30.2 136a18.07 18.07 0 0 0 18 18c6.4 0 12.4-3.4 15.7-9.1 39.1-68.9 76.4-85 107.8-91.6 9.7-2.1 15.9-11.6 13.9-21.3a18.07 18.07 0 0 0-21.3-13.9c-36 7.6-65.8 24.7-92.3 53.5 13-63 53.5-123.1 171.4-129 9.6-.5 17.1-8.4 17.1-18v-33.8l120.8 86.4-120.9 86.8v-33.7c0-9.9-8.1-18-18-18s-18 8.1-18 18v68.8a18.02 18.02 0 0 0 28.5 14.6l169.7-121.9c4.7-3.4 7.5-8.8 7.5-14.6s-2.8-11.2-7.5-14.6z" fill="#FFF"/>
  <path d="M472.4 157.89h-25.2c-9.9 0-18 8.1-18 18s8.1 18 18 18h7.2v226.5H165v-121c0-9.9-8.1-18-18-18s-18 8.1-18 18v138.9c0 9.9 8.1 18 18 18h325.3c9.9 0 18-8.1 18-18v-262.4c.1-10-8-18-17.9-18z" fill="#FFF"/>
</svg>
