<svg xmlns="http://www.w3.org/2000/svg" viewBox="0 0 300 300" width="512" height="512">
  <path d="M5.3 144.65l69.13 25.8 26.75 86.04a8.14 8.14 0 0 0 12.93 3.9l38.53-31.42a11.5 11.5 0 0 1 14.01-.39l69.5 50.46a8.15 8.15 0 0 0 12.76-4.93l50.91-244.89a8.15 8.15 0 0 0-10.9-9.26L5.21 129.4c-7 2.7-6.94 12.61.08 15.25zm91.57 12.06l135.1-83.2c2.43-1.5 4.92 1.79 2.84 3.72L123.3 180.87a23.11 23.11 0 0 0-7.16 13.83l-3.8 28.15c-.5 3.75-5.78 4.13-6.82.49L90.93 172a13.6 13.6 0 0 1 5.94-15.3z" fill="#FFF"/>
</svg>
