<svg xmlns="http://www.w3.org/2000/svg" viewBox="0 0 512 512">
  <path d="M400 512H112C50.14 512 0 461.86 0 400V112C0 50.14 50.14 0 112 0h288c61.86 0 112 50.14 112 112v288c0 61.86-50.14 112-112 112z" fill="#41479b"/>
  <path d="M512 399.99V375.4l-79.42-52.03H512v-26.95H296.42V512h26.95V348.46L494.3 460.45a111.41 111.41 0 0 0 13.75-30.9M7.53 440.44a111.73 111.73 0 0 0 10.17 20.01l170.93-111.99V512h26.95V296.42H0v26.95h79.42L0 375.4V400c0 4.3.25 8.55.72 12.73M0 115.8v20.8l79.42 52.03H0v26.95h215.58V0h-26.95v163.54L17.7 51.55A111.38 111.38 0 0 0 3.1 85.7m501.22-14.53c-2.7-6.9-6.07-13.47-10.02-19.62L323.37 163.54V0h-26.95v215.58H512v-26.95h-79.42L512 136.6V112c0-4.46-.27-8.86-.78-13.18" fill="#f5f5f5"/>
  <g fill="#ff4b55">
    <path d="M296.42 0h-80.84v215.58H0v80.84h215.58V512h80.84V296.42H512v-80.84H296.42z"/>
    <path d="M138.4 323.37L.72 412.73c1.1 9.67 3.42 18.96 6.81 27.71L187.9 323.37h-49.5zm206.06 0l163.6 106.19A112.14 112.14 0 0 0 512 400v-.01l-118.04-76.62h-49.5zM161.68 188.63L3.11 85.7A112.23 112.23 0 0 0 0 112v3.8l112.19 72.83h49.5zm211.18 0l138.36-89.81a111.28 111.28 0 0 0-6.9-27.65L323.37 188.63h49.5z"/>
  </g>
</svg>
