<svg xmlns="http://www.w3.org/2000/svg" width="512" height="512" viewBox="0 0 94 94">
  <path d="M89 0H5a5 5 0 0 0-5 5v84a5 5 0 0 0 5 5h84a5 5 0 0 0 5-5V5a5 5 0 0 0-5-5zM74.87 52.94c2.56 2.5 5.27 4.86 7.57 7.62a21.58 21.58 0 0 1 2.71 3.9c1.04 2.02.1 4.25-1.71 4.36H72.18c-2.9.24-5.22-.93-7.17-2.92-1.56-1.58-3-3.27-4.5-4.91a10.6 10.6 0 0 0-2.03-1.8c-1.53-1-2.86-.7-3.74.9-.9 1.63-1.1 3.44-1.19 5.26-.12 2.65-.92 3.35-3.59 3.47-5.69.27-11.09-.6-16.1-3.46-4.43-2.53-7.86-6.1-10.84-10.15-5.82-7.88-10.27-16.54-14.27-25.44-.9-2-.24-3.08 1.96-3.12 3.68-.07 7.36-.06 11.03 0 1.5.02 2.48.88 3.05 2.29a68.38 68.38 0 0 0 7.48 13.84c.8 1.15 1.64 2.3 2.82 3.1 1.3.9 2.3.6 2.91-.85.4-.93.56-1.91.65-2.9.29-3.4.33-6.8-.18-10.18-.31-2.12-1.5-3.48-3.62-3.88-1.07-.2-.91-.6-.4-1.22.92-1.06 1.77-1.72 3.47-1.72h12.72c2 .4 2.45 1.3 2.72 3.31l.01 14.14c-.02.78.4 3.1 1.8 3.6 1.12.38 1.87-.52 2.54-1.24 3.05-3.23 5.22-7.05 7.17-11 .85-1.75 1.6-3.56 2.32-5.36.53-1.34 1.36-2 2.87-1.97h12.25c.36 0 .73.01 1.08.07 2.06.36 2.63 1.24 2 3.26-1.01 3.16-2.97 5.8-4.88 8.44-2.04 2.83-4.22 5.56-6.25 8.4-1.86 2.6-1.7 3.9.6 6.16z" fill="#FFF"/>
</svg>
