<svg xmlns="http://www.w3.org/2000/svg" width="512" height="512" viewBox="0 0 94 94">
  <g fill="#FFF">
    <path d="M41.32 69.81c-.82 1.16-1.6 1.73-2.34 1.73-.5 0-.78-.29-.87-.86-.03-.12-.03-.57-.03-1.44V54.19h-3.7v16.16c0 1.45.12 2.43.32 3.05.37 1.03 1.2 1.51 2.39 1.51 1.36 0 2.76-.82 4.23-2.5v2.22h3.7V54.2h-3.7v15.6zm14.45-15.87c-1.36 0-2.63.74-3.83 2.22v-8.97h-3.7v27.44h3.7v-1.98c1.24 1.53 2.51 2.26 3.83 2.26 1.47 0 2.46-.77 2.96-2.3.25-.86.37-2.22.37-4.11v-8.15c0-1.93-.12-3.29-.37-4.1-.5-1.54-1.49-2.31-2.96-2.31zm-.37 14.85c0 1.84-.54 2.76-1.61 2.76-.61 0-1.23-.3-1.85-.92V58.17c.62-.6 1.23-.9 1.85-.9 1.07 0 1.6.95 1.6 2.8v8.72zM20.92 51.05h4.35v23.58h4.13V51.06h4.43v-3.87H20.92zM44.5 35.3c1.2 0 1.79-.96 1.79-2.87v-8.7c0-1.9-.58-2.86-1.79-2.86-1.2 0-1.79.96-1.79 2.87v8.69c0 1.91.59 2.87 1.8 2.87zm23.07 18.64c-1.9 0-3.37.7-4.44 2.1-.79 1.03-1.15 2.63-1.15 4.81v7.16c0 2.17.4 3.79 1.2 4.81a5.28 5.28 0 0 0 4.48 2.1A5.12 5.12 0 0 0 73 70.48c.03-.37.08-1.2.08-2.39v-.54H69.3c0 1.49-.05 2.3-.08 2.51-.21.99-.75 1.49-1.66 1.49-1.27 0-1.9-.95-1.9-2.84v-3.63h7.42v-4.23c0-2.19-.37-3.78-1.15-4.82a5.13 5.13 0 0 0-4.36-2.1zm1.8 8.06h-3.7v-1.9c0-1.89.63-2.83 1.86-2.83s1.85.95 1.85 2.84V62z"/>
    <path d="M89 0H5a5 5 0 0 0-5 5v84a5 5 0 0 0 5 5h84a5 5 0 0 0 5-5V5a5 5 0 0 0-5-5zM53.11 17.75h3.73v15.22c0 .87 0 1.33.05 1.45.08.58.37.88.88.88.74 0 1.53-.58 2.36-1.75v-15.8h3.74v20.67h-3.74v-2.26c-1.49 1.71-2.91 2.54-4.28 2.54-1.2 0-2.03-.49-2.4-1.54a10.4 10.4 0 0 1-.34-3.07V17.75zM38.97 24.5c0-2.2.38-3.82 1.17-4.87a5.1 5.1 0 0 1 4.36-2.12c1.87 0 3.33.71 4.37 2.12.78 1.05 1.16 2.66 1.16 4.87v7.24c0 2.2-.38 3.82-1.16 4.85a5.1 5.1 0 0 1-4.37 2.12 5.1 5.1 0 0 1-4.36-2.12c-.8-1.03-1.17-2.66-1.17-4.85V24.5zM28.96 10.7l2.94 10.89 2.84-10.9h4.2l-5 16.5v11.23H29.8V27.2c-.37-2-1.2-4.9-2.54-8.78-.87-2.57-1.78-5.15-2.66-7.72h4.37zm47.62 65.75a7.75 7.75 0 0 1-6.63 6.02c-7.6.85-15.3.85-22.95.85-7.66 0-15.36 0-22.96-.85a7.75 7.75 0 0 1-6.62-6.02c-1.07-4.65-1.07-9.71-1.07-14.5 0-4.77.01-9.84 1.08-14.48a7.74 7.74 0 0 1 6.62-6.03c7.6-.85 15.3-.85 22.96-.85s15.35 0 22.95.85a7.75 7.75 0 0 1 6.63 6.03c1.07 4.64 1.06 9.7 1.06 14.49 0 4.78 0 9.84-1.07 14.49z"/>
  </g>
</svg>
